Datalegreya-Thin
<glyph name="asterisk" format="1">
  <advance width="364"/>
  <unicode hex="002A"/>
  <outline>
    <contour>
      <point x="148" y="518" type="line" smooth="yes"/>
      <point x="143" y="517" type="line"/>
      <point x="41" y="556" type="line"/>
      <point x="41" y="564"/>
      <point x="42" y="572"/>
      <point x="44" y="577" type="curve" smooth="yes"/>
      <point x="47" y="579" type="line"/>
      <point x="151" y="532" type="line"/>
    </contour>
    <contour>
      <point x="167" y="477" type="line" smooth="yes"/>
      <point x="100" y="390" type="line"/>
      <point x="93" y="392"/>
      <point x="86" y="396"/>
      <point x="81" y="400" type="curve" smooth="yes"/>
      <point x="80" y="403" type="line"/>
      <point x="156" y="491" type="line"/>
      <point x="168" y="484" type="line"/>
    </contour>
    <contour>
      <point x="188" y="549" type="line" smooth="yes"/>
      <point x="174" y="547" type="line"/>
      <point x="171" y="553" type="line"/>
      <point x="176" y="665" type="line"/>
      <point x="183" y="667"/>
      <point x="191" y="668"/>
      <point x="197" y="668" type="curve" smooth="yes"/>
      <point x="199" y="666" type="line"/>
    </contour>
    <contour>
      <point x="271" y="397" type="line" smooth="yes"/>
      <point x="266" y="390"/>
      <point x="261" y="385"/>
      <point x="256" y="382" type="curve" smooth="yes"/>
      <point x="253" y="382" type="line"/>
      <point x="195" y="483" type="line"/>
      <point x="206" y="492" type="line"/>
      <point x="211" y="490" type="line"/>
    </contour>
    <contour>
      <point x="317" y="566" type="line" smooth="yes"/>
      <point x="322" y="560"/>
      <point x="325" y="553"/>
      <point x="327" y="546" type="curve" smooth="yes"/>
      <point x="326" y="544" type="line"/>
      <point x="215" y="519" type="line"/>
      <point x="210" y="532" type="line"/>
      <point x="213" y="536" type="line"/>
    </contour>
  </outline>
</glyph>
<glyph name="comma" format="1">
  <advance width="230"/>
  <unicode hex="002C"/>
  <outline>
    <contour>
      <point x="149" y="30" type="curve" smooth="yes"/>
      <point x="149" y="-2"/>
      <point x="126" y="-42"/>
      <point x="83" y="-82" type="curve" smooth="yes"/>
      <point x="71" y="-68" type="line"/>
      <point x="72" y="-65" type="line"/>
      <point x="107" y="-33"/>
      <point x="128" y="0"/>
      <point x="128" y="29" type="curve" smooth="yes"/>
      <point x="128" y="45"/>
      <point x="117" y="59"/>
      <point x="98" y="70" type="curve" smooth="yes"/>
      <point x="98" y="75" type="line"/>
      <point x="101" y="80"/>
      <point x="105" y="85"/>
      <point x="111" y="88" type="curve" smooth="yes"/>
      <point x="135" y="75"/>
      <point x="149" y="55"/>
    </contour>
  </outline>
</glyph>
<glyph name="hyphen" format="1">
  <advance width="311"/>
  <unicode hex="002D"/>
  <outline>
    <contour>
      <point x="280" y="277" type="line"/>
      <point x="276" y="281" type="line"/>
      <point x="31" y="248" type="line"/>
      <point x="31" y="232" type="line"/>
      <point x="35" y="228" type="line"/>
      <point x="280" y="261" type="line"/>
    </contour>
  </outline>
</glyph>
<glyph name="B" format="1">
  <advance width="492"/>
  <unicode hex="0042"/>
  <outline>
    <contour>
      <point x="301" y="334" type="curve"/>
      <point x="361" y="358"/>
      <point x="397" y="409"/>
      <point x="397" y="491" type="curve" smooth="yes"/>
      <point x="397" y="586"/>
      <point x="338" y="639"/>
      <point x="233" y="639" type="curve"/>
      <point x="110" y="637" type="line"/>
      <point x="110" y="0" type="line"/>
      <point x="144" y="-2"/>
      <point x="188" y="-3"/>
      <point x="219" y="-3" type="curve" smooth="yes"/>
      <point x="366" y="-3"/>
      <point x="447" y="63"/>
      <point x="447" y="176" type="curve" smooth="yes"/>
      <point x="447" y="270"/>
      <point x="390" y="321"/>
    </contour>
    <contour>
      <point x="240" y="618" type="line" smooth="yes"/>
      <point x="323" y="618"/>
      <point x="376" y="569"/>
      <point x="376" y="491" type="curve" smooth="yes"/>
      <point x="376" y="409"/>
      <point x="335" y="355"/>
      <point x="260" y="340" type="curve"/>
      <point x="130" y="343" type="line"/>
      <point x="130" y="618" type="line"/>
    </contour>
    <contour>
      <point x="215" y="17" type="curve" smooth="yes"/>
      <point x="187" y="17"/>
      <point x="156" y="18"/>
      <point x="130" y="20" type="curve"/>
      <point x="130" y="320" type="line"/>
      <point x="269" y="320" type="line"/>
      <point x="370" y="312"/>
      <point x="427" y="262"/>
      <point x="427" y="176" type="curve" smooth="yes"/>
      <point x="427" y="76"/>
      <point x="351" y="17"/>
    </contour>
  </outline>
</glyph>
<glyph name="J" format="1">
  <advance width="268"/>
  <unicode hex="004A"/>
  <outline>
    <contour>
      <point x="108" y="637" type="move" name="mark0"/>
    </contour>
    <contour>
      <point x="0" y="0" type="move" name="mark1"/>
    </contour>
    <contour>
      <point x="160" y="637" type="line"/>
      <point x="11" y="637" type="line"/>
      <point x="8" y="621" type="line"/>
      <point x="12" y="617" type="line"/>
      <point x="140" y="617" type="line"/>
      <point x="140" y="113" type="line" smooth="yes"/>
      <point x="140" y="30"/>
      <point x="106" y="-25"/>
      <point x="20" y="-81" type="curve"/>
      <point x="20" y="-87" type="line"/>
      <point x="31" y="-98" type="line"/>
      <point x="124" y="-37"/>
      <point x="160" y="21"/>
      <point x="160" y="115" type="curve" smooth="yes"/>
    </contour>
  </outline>
</glyph>
<glyph name="K" format="1">
  <advance width="507"/>
  <unicode hex="004B"/>
  <outline>
    <contour>
      <point x="254" y="637" type="move" name="mark0"/>
    </contour>
    <contour>
      <point x="274" y="0" type="move" name="mark1"/>
    </contour>
    <contour>
      <point x="130" y="0" type="line"/>
      <point x="130" y="637" type="line"/>
      <point x="110" y="637" type="line"/>
      <point x="110" y="0" type="line"/>
    </contour>
    <contour>
      <point x="482" y="637" type="line"/>
      <point x="451" y="637" type="line"/>
      <point x="408" y="590" type="line"/>
      <point x="159" y="341" type="line"/>
      <point x="159" y="338" type="line"/>
      <point x="258" y="219"/>
      <point x="369" y="102"/>
      <point x="480" y="-6" type="curve"/>
      <point x="484" y="-7" type="line"/>
      <point x="489" y="-5"/>
      <point x="495" y="-3"/>
      <point x="498" y="1" type="curve"/>
      <point x="498" y="5" type="line"/>
      <point x="390" y="108"/>
      <point x="281" y="225"/>
      <point x="186" y="340" type="curve"/>
    </contour>
  </outline>
</glyph>
<glyph name="Q" format="1">
  <advance width="628"/>
  <unicode hex="0051"/>
  <outline>
    <contour>
      <point x="362" y="-1" type="curve"/>
      <point x="502" y="22"/>
      <point x="579" y="137"/>
      <point x="579" y="329" type="curve" smooth="yes"/>
      <point x="579" y="530"/>
      <point x="486" y="642"/>
      <point x="318" y="642" type="curve" smooth="yes"/>
      <point x="144" y="642"/>
      <point x="48" y="526"/>
      <point x="48" y="317" type="curve" smooth="yes"/>
      <point x="48" y="110"/>
      <point x="141" y="-5"/>
      <point x="308" y="-5" type="curve" smooth="yes"/>
      <point x="318" y="-5"/>
      <point x="327" y="-5"/>
      <point x="336" y="-4" type="curve"/>
      <point x="444" y="-101"/>
      <point x="579" y="-165"/>
      <point x="716" y="-182" type="curve"/>
      <point x="721" y="-182" type="line"/>
      <point x="729" y="-170" type="line"/>
      <point x="729" y="-164" type="line"/>
      <point x="594" y="-148"/>
      <point x="464" y="-89"/>
    </contour>
    <contour>
      <point x="68" y="317" type="curve" smooth="yes"/>
      <point x="68" y="513"/>
      <point x="157" y="622"/>
      <point x="318" y="622" type="curve" smooth="yes"/>
      <point x="473" y="622"/>
      <point x="559" y="517"/>
      <point x="559" y="329" type="curve" smooth="yes"/>
      <point x="559" y="127"/>
      <point x="469" y="15"/>
      <point x="308" y="15" type="curve" smooth="yes"/>
      <point x="154" y="15"/>
      <point x="68" y="123"/>
    </contour>
  </outline>
</glyph>
<glyph name="S" format="1">
  <advance width="445"/>
  <unicode hex="0053"/>
  <outline>
    <contour>
      <point x="233" y="637" type="move" name="mark0"/>
    </contour>
    <contour>
      <point x="214" y="0" type="move" name="mark1"/>
    </contour>
    <contour>
      <point x="246" y="640" type="curve" smooth="yes"/>
      <point x="139" y="640"/>
      <point x="66" y="569"/>
      <point x="66" y="483" type="curve" smooth="yes"/>
      <point x="66" y="302"/>
      <point x="370" y="327"/>
      <point x="370" y="162" type="curve" smooth="yes"/>
      <point x="370" y="90"/>
      <point x="306" y="16"/>
      <point x="203" y="16" type="curve" smooth="yes"/>
      <point x="157" y="16"/>
      <point x="100" y="31"/>
      <point x="58" y="64" type="curve"/>
      <point x="53" y="62" type="line"/>
      <point x="52" y="43" type="line"/>
      <point x="95" y="12"/>
      <point x="154" y="-4"/>
      <point x="204" y="-4" type="curve" smooth="yes"/>
      <point x="313" y="-4"/>
      <point x="390" y="73"/>
      <point x="390" y="162" type="curve" smooth="yes"/>
      <point x="390" y="347"/>
      <point x="86" y="324"/>
      <point x="86" y="480" type="curve" smooth="yes"/>
      <point x="86" y="545"/>
      <point x="142" y="620"/>
      <point x="244" y="620" type="curve" smooth="yes"/>
      <point x="275" y="620"/>
      <point x="318" y="612"/>
      <point x="357" y="592" type="curve"/>
      <point x="364" y="593" type="line"/>
      <point x="368" y="611" type="line"/>
      <point x="321" y="633"/>
      <point x="277" y="640"/>
    </contour>
  </outline>
</glyph>
<glyph name="T" format="1">
  <advance width="475"/>
  <unicode hex="0054"/>
  <outline>
    <contour>
      <point x="242" y="637" type="move" name="mark0"/>
    </contour>
    <contour>
      <point x="230" y="0" type="move" name="mark1"/>
    </contour>
    <contour>
      <point x="447" y="633" type="line"/>
      <point x="444" y="637" type="line"/>
      <point x="32" y="637" type="line"/>
      <point x="28" y="621" type="line"/>
      <point x="31" y="617" type="line"/>
      <point x="228" y="617" type="line"/>
      <point x="228" y="0" type="line"/>
      <point x="248" y="0" type="line"/>
      <point x="248" y="617" type="line"/>
      <point x="443" y="617" type="line"/>
    </contour>
  </outline>
</glyph>
<glyph name="W" format="1">
  <advance width="884"/>
  <unicode hex="0057"/>
  <outline>
    <contour>
      <point x="434" y="637" type="move" name="mark0"/>
    </contour>
    <contour>
      <point x="0" y="0" type="move" name="mark1"/>
    </contour>
    <contour>
      <point x="622" y="0" type="line"/>
      <point x="871" y="637" type="line"/>
      <point x="848" y="637" type="line"/>
      <point x="834" y="594" type="line"/>
      <point x="615" y="34" type="line"/>
      <point x="611" y="34" type="line"/>
      <point x="409" y="594" type="line"/>
      <point x="396" y="637" type="line"/>
      <point x="374" y="637" type="line"/>
      <point x="434" y="471" type="line"/>
      <point x="265" y="34" type="line"/>
      <point x="261" y="34" type="line"/>
      <point x="59" y="594" type="line"/>
      <point x="46" y="637" type="line"/>
      <point x="23" y="637" type="line"/>
      <point x="252" y="0" type="line"/>
      <point x="272" y="0" type="line"/>
      <point x="442" y="438" type="line"/>
      <point x="446" y="438" type="line"/>
      <point x="602" y="0" type="line"/>
    </contour>
  </outline>
</glyph>
<glyph name="Y" format="1">
  <advance width="495"/>
  <unicode hex="0059"/>
  <outline>
    <contour>
      <point x="239" y="637" type="move" name="mark0"/>
    </contour>
    <contour>
      <point x="0" y="0" type="move" name="mark1"/>
    </contour>
    <contour>
      <point x="248" y="245" type="line"/>
      <point x="466" y="637" type="line"/>
      <point x="440" y="637" type="line"/>
      <point x="429" y="611" type="line"/>
      <point x="241" y="277" type="line"/>
      <point x="236" y="277" type="line"/>
      <point x="63" y="611" type="line"/>
      <point x="52" y="637" type="line"/>
      <point x="26" y="637" type="line"/>
      <point x="228" y="246" type="line"/>
      <point x="228" y="0" type="line"/>
      <point x="248" y="0" type="line"/>
    </contour>
  </outline>
</glyph>
<glyph name="Z" format="1">
  <advance width="507"/>
  <unicode hex="005A"/>
  <outline>
    <contour>
      <point x="261" y="637" type="move" name="mark0"/>
    </contour>
    <contour>
      <point x="0" y="0" type="move" name="mark1"/>
    </contour>
    <contour>
      <point x="460" y="620" type="line"/>
      <point x="460" y="638" type="line"/>
      <point x="423" y="637" type="line"/>
      <point x="119" y="637" type="line"/>
      <point x="54" y="638" type="line"/>
      <point x="51" y="621" type="line"/>
      <point x="55" y="616" type="line"/>
      <point x="113" y="617" type="line"/>
      <point x="433" y="617" type="line"/>
      <point x="32" y="17" type="line"/>
      <point x="32" y="-1" type="line"/>
      <point x="68" y="0" type="line"/>
      <point x="459" y="0" type="line"/>
      <point x="462" y="16" type="line"/>
      <point x="458" y="21" type="line"/>
      <point x="390" y="20" type="line"/>
      <point x="59" y="20" type="line"/>
    </contour>
  </outline>
</glyph>
<glyph name="brokenbar" format="1">
  <advance width="320"/>
  <unicode hex="00A6"/>
  <outline>
    <contour>
      <point x="170" y="789" type="line"/>
      <point x="168" y="791" type="line"/>
      <point x="150" y="789" type="line"/>
      <point x="150" y="369" type="line"/>
      <point x="153" y="366" type="line"/>
      <point x="170" y="368" type="line"/>
    </contour>
    <contour>
      <point x="170" y="155" type="line"/>
      <point x="167" y="160" type="line"/>
      <point x="150" y="157" type="line"/>
      <point x="150" y="-261" type="line"/>
      <point x="153" y="-265" type="line"/>
      <point x="170" y="-265" type="line"/>
    </contour>
  </outline>
</glyph>
<glyph name="threequarters" format="1">
  <advance width="689"/>
  <unicode hex="00BE"/>
  <outline>
    <contour>
      <point x="561" y="656" type="line"/>
      <point x="558" y="664" type="line"/>
      <point x="548" y="669" type="line"/>
      <point x="63" y="-77" type="line"/>
      <point x="67" y="-86" type="line"/>
      <point x="76" y="-90" type="line"/>
    </contour>
    <contour>
      <point x="239" y="375" type="curve" smooth="yes"/>
      <point x="239" y="423"/>
      <point x="207" y="456"/>
      <point x="150" y="468" type="curve"/>
      <point x="150" y="470" type="line"/>
      <point x="193" y="489"/>
      <point x="220" y="527"/>
      <point x="220" y="564" type="curve" smooth="yes"/>
      <point x="220" y="610"/>
      <point x="183" y="640"/>
      <point x="130" y="640" type="curve" smooth="yes"/>
      <point x="96" y="640"/>
      <point x="66" y="627"/>
      <point x="35" y="599" type="curve"/>
      <point x="39" y="582" type="line"/>
      <point x="42" y="582" type="line"/>
      <point x="71" y="608"/>
      <point x="98" y="621"/>
      <point x="128" y="621" type="curve" smooth="yes"/>
      <point x="170" y="621"/>
      <point x="199" y="597"/>
      <point x="199" y="561" type="curve" smooth="yes"/>
      <point x="199" y="511"/>
      <point x="144" y="474"/>
      <point x="105" y="474" type="curve" smooth="yes"/>
      <point x="76" y="474" type="line"/>
      <point x="75" y="459" type="line"/>
      <point x="77" y="457" type="line"/>
      <point x="110" y="457" type="line"/>
      <point x="180" y="454"/>
      <point x="219" y="425"/>
      <point x="219" y="375" type="curve" smooth="yes"/>
      <point x="219" y="320"/>
      <point x="171" y="285"/>
      <point x="99" y="285" type="curve" smooth="yes"/>
      <point x="82" y="285"/>
      <point x="58" y="287"/>
      <point x="39" y="290" type="curve"/>
      <point x="37" y="288" type="line"/>
      <point x="39" y="272" type="line"/>
      <point x="58" y="268"/>
      <point x="82" y="266"/>
      <point x="99" y="266" type="curve" smooth="yes"/>
      <point x="182" y="266"/>
      <point x="239" y="311"/>
    </contour>
    <contour>
      <point x="649" y="134" type="line"/>
      <point x="646" y="137" type="line"/>
      <point x="577" y="137" type="line"/>
      <point x="577" y="369" type="line"/>
      <point x="558" y="369" type="line"/>
      <point x="384" y="136" type="line"/>
      <point x="384" y="121" type="line"/>
      <point x="387" y="118" type="line"/>
      <point x="418" y="119" type="line"/>
      <point x="558" y="119" type="line"/>
      <point x="558" y="0" type="line"/>
      <point x="560" y="-2" type="line"/>
      <point x="576" y="0" type="line"/>
      <point x="578" y="2" type="line"/>
      <point x="577" y="119" type="line"/>
      <point x="596" y="119" type="line"/>
      <point x="646" y="118" type="line"/>
    </contour>
    <contour>
      <point x="558" y="137" type="line"/>
      <point x="406" y="137" type="line"/>
      <point x="555" y="337" type="line"/>
      <point x="558" y="337" type="line"/>
    </contour>
  </outline>
</glyph>
<glyph name="AE" format="1">
  <advance width="791"/>
  <unicode hex="00C6"/>
  <outline>
    <contour>
      <point x="493" y="637" type="move" name="mark0"/>
    </contour>
    <contour>
      <point x="0" y="0" type="move" name="mark1"/>
    </contour>
    <contour>
      <point x="766" y="16" type="line"/>
      <point x="764" y="20" type="line"/>
      <point x="477" y="20" type="line"/>
      <point x="431" y="294" type="line"/>
      <point x="664" y="332" type="line"/>
      <point x="667" y="349" type="line"/>
      <point x="664" y="352" type="line"/>
      <point x="428" y="313" type="line"/>
      <point x="377" y="617" type="line"/>
      <point x="652" y="617" type="line"/>
      <point x="657" y="633" type="line"/>
      <point x="654" y="637" type="line"/>
      <point x="353" y="637" type="line"/>
      <point x="-15" y="0" type="line"/>
      <point x="12" y="0" type="line"/>
      <point x="33" y="43" type="line"/>
      <point x="150" y="247" type="line"/>
      <point x="411" y="290" type="line"/>
      <point x="453" y="43" type="line"/>
      <point x="458" y="0" type="line"/>
      <point x="762" y="0" type="line"/>
    </contour>
    <contour>
      <point x="408" y="310" type="line"/>
      <point x="164" y="270" type="line"/>
      <point x="355" y="602" type="line"/>
      <point x="358" y="602" type="line"/>
    </contour>
  </outline>
</glyph>
<glyph name="Idieresis" format="1">
  <advance width="240"/>
  <unicode hex="00CF"/>
  <outline>
    <contour>
      <point x="120" y="637" type="move" name="mark0"/>
    </contour>
    <contour>
      <point x="0" y="0" type="move" name="mark1"/>
    </contour>
    <contour>
      <point x="70" y="800" type="curve" smooth="yes"/>
      <point x="58" y="800"/>
      <point x="50" y="792"/>
      <point x="50" y="780" type="curve" smooth="yes"/>
      <point x="50" y="768"/>
      <point x="58" y="760"/>
      <point x="70" y="760" type="curve" smooth="yes"/>
      <point x="82" y="760"/>
      <point x="90" y="768"/>
      <point x="90" y="780" type="curve" smooth="yes"/>
      <point x="90" y="792"/>
      <point x="82" y="800"/>
    </contour>
    <contour>
      <point x="170" y="800" type="curve" smooth="yes"/>
      <point x="158" y="800"/>
      <point x="150" y="792"/>
      <point x="150" y="780" type="curve" smooth="yes"/>
      <point x="150" y="768"/>
      <point x="158" y="760"/>
      <point x="170" y="760" type="curve" smooth="yes"/>
      <point x="182" y="760"/>
      <point x="190" y="768"/>
      <point x="190" y="780" type="curve" smooth="yes"/>
      <point x="190" y="792"/>
      <point x="182" y="800"/>
    </contour>
    <contour>
      <point x="130" y="0" type="line"/>
      <point x="130" y="637" type="line"/>
      <point x="110" y="637" type="line"/>
      <point x="110" y="0" type="line"/>
    </contour>
  </outline>
</glyph>
<glyph name="divide" format="1">
  <advance width="480"/>
  <unicode hex="00F7"/>
  <outline>
    <contour>
      <point x="264" y="471" type="curve" smooth="yes"/>
      <point x="252" y="471"/>
      <point x="244" y="463"/>
      <point x="244" y="451" type="curve" smooth="yes"/>
      <point x="244" y="439"/>
      <point x="252" y="431"/>
      <point x="264" y="431" type="curve" smooth="yes"/>
      <point x="276" y="431"/>
      <point x="284" y="439"/>
      <point x="284" y="451" type="curve" smooth="yes"/>
      <point x="284" y="463"/>
      <point x="276" y="471"/>
    </contour>
    <contour>
      <point x="456" y="277" type="line"/>
      <point x="453" y="280" type="line"/>
      <point x="56" y="280" type="line"/>
      <point x="54" y="263" type="line"/>
      <point x="57" y="260" type="line"/>
      <point x="454" y="260" type="line"/>
    </contour>
    <contour>
      <point x="264" y="108" type="curve" smooth="yes"/>
      <point x="252" y="108"/>
      <point x="244" y="100"/>
      <point x="244" y="88" type="curve" smooth="yes"/>
      <point x="244" y="76"/>
      <point x="252" y="68"/>
      <point x="264" y="68" type="curve" smooth="yes"/>
      <point x="276" y="68"/>
      <point x="284" y="76"/>
      <point x="284" y="88" type="curve" smooth="yes"/>
      <point x="284" y="100"/>
      <point x="276" y="108"/>
    </contour>
  </outline>
</glyph>
<glyph name="Idotaccent" format="1">
  <advance width="240"/>
  <unicode hex="0130"/>
  <outline>
    <contour>
      <point x="120" y="637" type="move" name="mark0"/>
    </contour>
    <contour>
      <point x="0" y="0" type="move" name="mark1"/>
    </contour>
    <contour>
      <point x="120" y="816" type="curve" smooth="yes"/>
      <point x="108" y="816"/>
      <point x="100" y="808"/>
      <point x="100" y="796" type="curve" smooth="yes"/>
      <point x="100" y="784"/>
      <point x="108" y="776"/>
      <point x="120" y="776" type="curve" smooth="yes"/>
      <point x="132" y="776"/>
      <point x="140" y="784"/>
      <point x="140" y="796" type="curve" smooth="yes"/>
      <point x="140" y="808"/>
      <point x="132" y="816"/>
    </contour>
    <contour>
      <point x="130" y="0" type="line"/>
      <point x="130" y="637" type="line"/>
      <point x="110" y="637" type="line"/>
      <point x="110" y="0" type="line"/>
    </contour>
  </outline>
</glyph>
<glyph name="commaaccent" format="1">
  <advance width="0"/>
  <unicode hex="0326"/>
  <outline>
    <contour>
      <point x="107" y="0" type="move" name="_mark1"/>
    </contour>
    <contour>
      <point x="107" y="-70" type="curve"/>
      <point x="101" y="-73"/>
      <point x="97" y="-77"/>
      <point x="94" y="-81" type="curve"/>
      <point x="94" y="-85" type="line"/>
      <point x="113" y="-94"/>
      <point x="124" y="-106"/>
      <point x="124" y="-119" type="curve" smooth="yes"/>
      <point x="124" y="-143"/>
      <point x="105" y="-171"/>
      <point x="70" y="-197" type="curve"/>
      <point x="69" y="-200" type="line"/>
      <point x="79" y="-211" type="line"/>
      <point x="122" y="-178"/>
      <point x="145" y="-145"/>
      <point x="145" y="-118" type="curve" smooth="yes"/>
      <point x="145" y="-98"/>
      <point x="131" y="-81"/>
    </contour>
  </outline>
</glyph>
<glyph name="Delta" format="1">
  <advance width="554"/>
  <unicode hex="0394"/>
  <outline>
    <contour>
      <point x="526" y="0" type="line"/>
      <point x="293" y="637" type="line"/>
      <point x="273" y="637" type="line"/>
      <point x="19" y="0" type="line"/>
    </contour>
    <contour>
      <point x="280" y="603" type="line"/>
      <point x="285" y="603" type="line"/>
      <point x="498" y="20" type="line"/>
      <point x="47" y="20" type="line"/>
    </contour>
  </outline>
</glyph>
<glyph name="pi" format="1">
  <advance width="580"/>
  <unicode hex="03C0"/>
  <outline>
    <contour>
      <point x="94" y="506" type="line"/>
      <point x="79" y="503" type="line"/>
      <point x="27" y="459" type="line"/>
      <point x="27" y="453" type="line"/>
      <point x="34" y="444" type="line"/>
      <point x="40" y="444" type="line"/>
      <point x="76" y="477"/>
      <point x="87" y="485"/>
      <point x="99" y="485" type="curve" smooth="yes"/>
      <point x="160" y="485" type="line"/>
      <point x="160" y="-101" type="line"/>
      <point x="180" y="-101" type="line"/>
      <point x="180" y="485" type="line"/>
      <point x="394" y="485" type="line"/>
      <point x="394" y="81" type="line" smooth="yes"/>
      <point x="394" y="21"/>
      <point x="413" y="-3"/>
      <point x="449" y="-3" type="curve" smooth="yes"/>
      <point x="466" y="-3"/>
      <point x="481" y="2"/>
      <point x="494" y="11" type="curve"/>
      <point x="498" y="30" type="line"/>
      <point x="492" y="33" type="line"/>
      <point x="480" y="23"/>
      <point x="463" y="18"/>
      <point x="450" y="18" type="curve" smooth="yes"/>
      <point x="425" y="18"/>
      <point x="414" y="37"/>
      <point x="414" y="81" type="curve" smooth="yes"/>
      <point x="414" y="485" type="line"/>
      <point x="538" y="485" type="line"/>
      <point x="542" y="502" type="line"/>
      <point x="539" y="506" type="line"/>
    </contour>
  </outline>
</glyph>
<glyph name="quotedblbase" format="1">
  <advance width="325"/>
  <unicode hex="201E"/>
  <outline>
    <contour>
      <point x="107" y="41" type="curve"/>
      <point x="101" y="38"/>
      <point x="97" y="34"/>
      <point x="94" y="30" type="curve"/>
      <point x="94" y="26" type="line"/>
      <point x="113" y="17"/>
      <point x="124" y="5"/>
      <point x="124" y="-8" type="curve" smooth="yes"/>
      <point x="124" y="-32"/>
      <point x="105" y="-60"/>
      <point x="70" y="-86" type="curve"/>
      <point x="69" y="-89" type="line"/>
      <point x="79" y="-100" type="line"/>
      <point x="122" y="-67"/>
      <point x="145" y="-34"/>
      <point x="145" y="-7" type="curve" smooth="yes"/>
      <point x="145" y="13"/>
      <point x="131" y="30"/>
    </contour>
    <contour>
      <point x="202" y="41" type="curve"/>
      <point x="196" y="38"/>
      <point x="192" y="34"/>
      <point x="189" y="30" type="curve"/>
      <point x="189" y="26" type="line"/>
      <point x="208" y="17"/>
      <point x="219" y="5"/>
      <point x="219" y="-8" type="curve" smooth="yes"/>
      <point x="219" y="-32"/>
      <point x="200" y="-60"/>
      <point x="165" y="-86" type="curve"/>
      <point x="164" y="-89" type="line"/>
      <point x="174" y="-100" type="line"/>
      <point x="217" y="-67"/>
      <point x="240" y="-34"/>
      <point x="240" y="-7" type="curve" smooth="yes"/>
      <point x="240" y="13"/>
      <point x="226" y="30"/>
    </contour>
  </outline>
</glyph>
<glyph name="oneeighth" format="1">
  <advance width="641"/>
  <unicode hex="215B"/>
  <outline>
    <contour>
      <point x="525" y="664" type="line"/>
      <point x="515" y="669" type="line"/>
      <point x="30" y="-77" type="line"/>
      <point x="34" y="-86" type="line"/>
      <point x="43" y="-90" type="line"/>
      <point x="528" y="656" type="line"/>
    </contour>
    <contour>
      <point x="138" y="638" type="line"/>
      <point x="135" y="642" type="line"/>
      <point x="16" y="607" type="line"/>
      <point x="16" y="591" type="line"/>
      <point x="20" y="589" type="line"/>
      <point x="118" y="616" type="line"/>
      <point x="118" y="268" type="line"/>
      <point x="138" y="268" type="line"/>
    </contour>
    <contour>
      <point x="485" y="371" type="curve" smooth="yes"/>
      <point x="424" y="371"/>
      <point x="381" y="338"/>
      <point x="381" y="281" type="curve" smooth="yes"/>
      <point x="381" y="232"/>
      <point x="416" y="209"/>
      <point x="455" y="193" type="curve"/>
      <point x="455" y="191" type="line"/>
      <point x="411" y="175"/>
      <point x="363" y="147"/>
      <point x="363" y="91" type="curve" smooth="yes"/>
      <point x="363" y="35"/>
      <point x="406" y="-3"/>
      <point x="475" y="-3" type="curve" smooth="yes"/>
      <point x="546" y="-3"/>
      <point x="593" y="36"/>
      <point x="593" y="96" type="curve" smooth="yes"/>
      <point x="593" y="154"/>
      <point x="546" y="174"/>
      <point x="499" y="192" type="curve"/>
      <point x="499" y="194" type="line"/>
      <point x="542" y="210"/>
      <point x="579" y="235"/>
      <point x="579" y="287" type="curve" smooth="yes"/>
      <point x="579" y="340"/>
      <point x="543" y="371"/>
    </contour>
    <contour>
      <point x="484" y="354" type="curve" smooth="yes"/>
      <point x="531" y="354"/>
      <point x="561" y="328"/>
      <point x="561" y="286" type="curve" smooth="yes"/>
      <point x="561" y="236"/>
      <point x="519" y="214"/>
      <point x="478" y="201" type="curve"/>
      <point x="437" y="217"/>
      <point x="400" y="235"/>
      <point x="400" y="281" type="curve" smooth="yes"/>
      <point x="400" y="326"/>
      <point x="434" y="354"/>
    </contour>
    <contour>
      <point x="475" y="183" type="curve"/>
      <point x="524" y="164"/>
      <point x="574" y="148"/>
      <point x="574" y="94" type="curve" smooth="yes"/>
      <point x="574" y="47"/>
      <point x="536" y="15"/>
      <point x="475" y="15" type="curve" smooth="yes"/>
      <point x="418" y="15"/>
      <point x="382" y="45"/>
      <point x="382" y="91" type="curve" smooth="yes"/>
      <point x="382" y="146"/>
      <point x="432" y="168"/>
    </contour>
  </outline>
</glyph>
<glyph name="arrowup" format="1">
  <advance width="500"/>
  <unicode hex="2191"/>
  <outline>
    <contour>
      <point x="442" y="265" type="line"/>
      <point x="250" y="455" type="line"/>
      <point x="246" y="455" type="line"/>
      <point x="54" y="265" type="line"/>
      <point x="62" y="251" type="line"/>
      <point x="68" y="251" type="line"/>
      <point x="238" y="418" type="line"/>
      <point x="238" y="3" type="line"/>
      <point x="256" y="1" type="line"/>
      <point x="258" y="3" type="line"/>
      <point x="258" y="418" type="line"/>
      <point x="428" y="251" type="line"/>
      <point x="434" y="251" type="line"/>
    </contour>
  </outline>
</glyph>
<glyph name="product" format="1">
  <advance width="633"/>
  <unicode hex="220F"/>
  <outline>
    <contour>
      <point x="564" y="617" type="line"/>
      <point x="568" y="633" type="line"/>
      <point x="565" y="637" type="line"/>
      <point x="69" y="637" type="line"/>
      <point x="65" y="621" type="line"/>
      <point x="68" y="617" type="line"/>
      <point x="117" y="617" type="line"/>
      <point x="117" y="0" type="line"/>
      <point x="137" y="0" type="line"/>
      <point x="137" y="617" type="line"/>
      <point x="501" y="617" type="line"/>
      <point x="501" y="0" type="line"/>
      <point x="521" y="0" type="line"/>
      <point x="521" y="617" type="line"/>
    </contour>
  </outline>
</glyph>
<glyph name="uniA78B" format="1">
  <advance width="105"/>
  <unicode hex="A78B"/>
  <outline>
    <contour>
      <point x="67" y="600" type="line"/>
      <point x="64" y="606" type="line"/>
      <point x="47" y="603" type="line"/>
      <point x="35" y="380" type="line"/>
      <point x="38" y="374" type="line"/>
      <point x="55" y="377" type="line"/>
    </contour>
  </outline>
</glyph>
<glyph name="a.1.0" format="1">
  <advance width="494"/>
  <outline>
    <contour>
      <point x="396" y="-41" type="curve" smooth="yes"/>
      <point x="395" y="-41"/>
      <point x="395" y="-42"/>
      <point x="395" y="-42" type="curve" smooth="yes"/>
      <point x="395" y="-43"/>
      <point x="395" y="-43"/>
      <point x="396" y="-43" type="curve" smooth="yes"/>
      <point x="396" y="-43"/>
      <point x="397" y="-43"/>
      <point x="397" y="-42" type="curve" smooth="yes"/>
      <point x="397" y="-42"/>
      <point x="396" y="-41"/>
    </contour>
    <contour>
      <point x="346" y="-41" type="curve" smooth="yes"/>
      <point x="346" y="-41"/>
      <point x="345" y="-42"/>
      <point x="345" y="-42" type="curve" smooth="yes"/>
      <point x="345" y="-43"/>
      <point x="346" y="-43"/>
      <point x="346" y="-43" type="curve" smooth="yes"/>
      <point x="347" y="-43"/>
      <point x="347" y="-43"/>
      <point x="347" y="-42" type="curve" smooth="yes"/>
      <point x="347" y="-42"/>
      <point x="347" y="-41"/>
    </contour>
    <contour>
      <point x="297" y="-41" type="curve" smooth="yes"/>
      <point x="296" y="-41"/>
      <point x="296" y="-42"/>
      <point x="296" y="-42" type="curve" smooth="yes"/>
      <point x="296" y="-43"/>
      <point x="296" y="-43"/>
      <point x="297" y="-43" type="curve" smooth="yes"/>
      <point x="297" y="-43"/>
      <point x="298" y="-43"/>
      <point x="298" y="-42" type="curve" smooth="yes"/>
      <point x="298" y="-42"/>
      <point x="297" y="-41"/>
    </contour>
    <contour>
      <point x="297" y="9" type="curve" smooth="yes"/>
      <point x="296" y="9"/>
      <point x="295" y="8"/>
      <point x="295" y="7" type="curve" smooth="yes"/>
      <point x="295" y="6"/>
      <point x="296" y="5"/>
      <point x="297" y="5" type="curve" smooth="yes"/>
      <point x="298" y="5"/>
      <point x="299" y="6"/>
      <point x="299" y="7" type="curve" smooth="yes"/>
      <point x="299" y="8"/>
      <point x="298" y="9"/>
    </contour>
    <contour>
      <point x="247" y="-41" type="curve" smooth="yes"/>
      <point x="247" y="-41"/>
      <point x="246" y="-42"/>
      <point x="246" y="-42" type="curve" smooth="yes"/>
      <point x="246" y="-43"/>
      <point x="247" y="-43"/>
      <point x="247" y="-43" type="curve" smooth="yes"/>
      <point x="248" y="-43"/>
      <point x="249" y="-43"/>
      <point x="249" y="-42" type="curve" smooth="yes"/>
      <point x="249" y="-42"/>
      <point x="248" y="-41"/>
    </contour>
    <contour>
      <point x="247" y="9" type="curve" smooth="yes"/>
      <point x="246" y="9"/>
      <point x="246" y="8"/>
      <point x="246" y="7" type="curve" smooth="yes"/>
      <point x="246" y="6"/>
      <point x="246" y="5"/>
      <point x="247" y="5" type="curve" smooth="yes"/>
      <point x="248" y="5"/>
      <point x="249" y="6"/>
      <point x="249" y="7" type="curve" smooth="yes"/>
      <point x="249" y="8"/>
      <point x="248" y="9"/>
    </contour>
    <contour>
      <point x="198" y="-41" type="curve" smooth="yes"/>
      <point x="197" y="-41"/>
      <point x="197" y="-42"/>
      <point x="197" y="-42" type="curve" smooth="yes"/>
      <point x="197" y="-43"/>
      <point x="197" y="-43"/>
      <point x="198" y="-43" type="curve" smooth="yes"/>
      <point x="199" y="-43"/>
      <point x="199" y="-43"/>
      <point x="199" y="-42" type="curve" smooth="yes"/>
      <point x="199" y="-42"/>
      <point x="199" y="-41"/>
    </contour>
    <contour>
      <point x="198" y="9" type="curve" smooth="yes"/>
      <point x="197" y="9"/>
      <point x="196" y="8"/>
      <point x="196" y="7" type="curve" smooth="yes"/>
      <point x="196" y="6"/>
      <point x="197" y="5"/>
      <point x="198" y="5" type="curve" smooth="yes"/>
      <point x="199" y="5"/>
      <point x="200" y="6"/>
      <point x="200" y="7" type="curve" smooth="yes"/>
      <point x="200" y="8"/>
      <point x="199" y="9"/>
    </contour>
    <contour>
      <point x="198" y="59" type="curve" smooth="yes"/>
      <point x="197" y="59"/>
      <point x="195" y="57"/>
      <point x="195" y="56" type="curve" smooth="yes"/>
      <point x="195" y="55"/>
      <point x="197" y="53"/>
      <point x="198" y="53" type="curve" smooth="yes"/>
      <point x="199" y="53"/>
      <point x="201" y="55"/>
      <point x="201" y="56" type="curve" smooth="yes"/>
      <point x="201" y="57"/>
      <point x="199" y="59"/>
    </contour>
    <contour>
      <point x="149" y="-41" type="curve" smooth="yes"/>
      <point x="148" y="-41"/>
      <point x="147" y="-42"/>
      <point x="147" y="-42" type="curve" smooth="yes"/>
      <point x="147" y="-43"/>
      <point x="148" y="-43"/>
      <point x="149" y="-43" type="curve" smooth="yes"/>
      <point x="149" y="-43"/>
      <point x="150" y="-43"/>
      <point x="150" y="-42" type="curve" smooth="yes"/>
      <point x="150" y="-42"/>
      <point x="149" y="-41"/>
    </contour>
    <contour>
      <point x="149" y="9" type="curve" smooth="yes"/>
      <point x="148" y="9"/>
      <point x="147" y="8"/>
      <point x="147" y="7" type="curve" smooth="yes"/>
      <point x="147" y="6"/>
      <point x="148" y="5"/>
      <point x="149" y="5" type="curve" smooth="yes"/>
      <point x="150" y="5"/>
      <point x="150" y="6"/>
      <point x="150" y="7" type="curve" smooth="yes"/>
      <point x="150" y="8"/>
      <point x="150" y="9"/>
    </contour>
    <contour>
      <point x="149" y="59" type="curve" smooth="yes"/>
      <point x="147" y="59"/>
      <point x="146" y="57"/>
      <point x="146" y="56" type="curve" smooth="yes"/>
      <point x="146" y="55"/>
      <point x="147" y="53"/>
      <point x="149" y="53" type="curve" smooth="yes"/>
      <point x="150" y="53"/>
      <point x="151" y="55"/>
      <point x="151" y="56" type="curve" smooth="yes"/>
      <point x="151" y="57"/>
      <point x="150" y="59"/>
    </contour>
    <contour>
      <point x="99" y="-41" type="curve" smooth="yes"/>
      <point x="99" y="-41"/>
      <point x="98" y="-42"/>
      <point x="98" y="-42" type="curve" smooth="yes"/>
      <point x="98" y="-43"/>
      <point x="99" y="-43"/>
      <point x="99" y="-43" type="curve" smooth="yes"/>
      <point x="100" y="-43"/>
      <point x="100" y="-43"/>
      <point x="100" y="-42" type="curve" smooth="yes"/>
      <point x="100" y="-42"/>
      <point x="100" y="-41"/>
    </contour>
    <contour>
      <point x="50" y="-41" type="curve" smooth="yes"/>
      <point x="49" y="-41"/>
      <point x="49" y="-42"/>
      <point x="49" y="-42" type="curve" smooth="yes"/>
      <point x="49" y="-43"/>
      <point x="49" y="-43"/>
      <point x="50" y="-43" type="curve" smooth="yes"/>
      <point x="50" y="-43"/>
      <point x="51" y="-43"/>
      <point x="51" y="-42" type="curve" smooth="yes"/>
      <point x="51" y="-42"/>
      <point x="50" y="-41"/>
    </contour>
    <contour>
      <point x="67" y="132" type="line"/>
      <point x="2" y="158" type="line"/>
      <point x="0" y="159"/>
      <point x="-3" y="158"/>
      <point x="-3" y="156" type="curve" smooth="yes"/>
      <point x="-4" y="154"/>
      <point x="-3" y="151"/>
      <point x="-1" y="150" type="curve"/>
      <point x="63" y="125" type="line"/>
    </contour>
    <contour>
      <point x="496" y="-38" type="curve"/>
      <point x="130" y="107" type="line"/>
      <point x="127" y="99" type="line"/>
      <point x="493" y="-46" type="line"/>
      <point x="493" y="-46"/>
      <point x="494" y="-46"/>
      <point x="494" y="-46" type="curve" smooth="yes"/>
      <point x="496" y="-46"/>
      <point x="498" y="-45"/>
      <point x="498" y="-44" type="curve" smooth="yes"/>
      <point x="499" y="-42"/>
      <point x="498" y="-39"/>
    </contour>
    <contour>
      <point x="69" y="36" type="line"/>
      <point x="113" y="142" type="line"/>
      <point x="379" y="142" type="line"/>
      <point x="419" y="36" type="line"/>
      <point x="429" y="0" type="line"/>
      <point x="452" y="0" type="line"/>
      <point x="397" y="149" type="line"/>
      <point x="262" y="506" type="line"/>
      <point x="241" y="506" type="line"/>
      <point x="34" y="0" type="line"/>
      <point x="57" y="0" type="line"/>
    </contour>
    <contour>
      <point x="249" y="475" type="line"/>
      <point x="252" y="475" type="line"/>
      <point x="372" y="161" type="line"/>
      <point x="121" y="161" type="line"/>
    </contour>
  </outline>
</glyph>
<glyph name="a.1.1" format="1">
  <advance width="494"/>
  <outline>
    <contour>
      <point x="494" y="59" type="curve" smooth="yes"/>
      <point x="493" y="59"/>
      <point x="492" y="57"/>
      <point x="492" y="56" type="curve" smooth="yes"/>
      <point x="492" y="55"/>
      <point x="493" y="53"/>
      <point x="494" y="53" type="curve" smooth="yes"/>
      <point x="496" y="53"/>
      <point x="497" y="55"/>
      <point x="497" y="56" type="curve" smooth="yes"/>
      <point x="497" y="57"/>
      <point x="496" y="59"/>
    </contour>
    <contour>
      <point x="494" y="108" type="curve" smooth="yes"/>
      <point x="493" y="108"/>
      <point x="491" y="107"/>
      <point x="491" y="105" type="curve" smooth="yes"/>
      <point x="491" y="103"/>
      <point x="493" y="102"/>
      <point x="494" y="102" type="curve" smooth="yes"/>
      <point x="496" y="102"/>
      <point x="498" y="103"/>
      <point x="498" y="105" type="curve" smooth="yes"/>
      <point x="498" y="107"/>
      <point x="496" y="108"/>
    </contour>
    <contour>
      <point x="346" y="59" type="curve" smooth="yes"/>
      <point x="345" y="59"/>
      <point x="344" y="57"/>
      <point x="344" y="56" type="curve" smooth="yes"/>
      <point x="344" y="55"/>
      <point x="345" y="53"/>
      <point x="346" y="53" type="curve" smooth="yes"/>
      <point x="348" y="53"/>
      <point x="349" y="55"/>
      <point x="349" y="56" type="curve" smooth="yes"/>
      <point x="349" y="57"/>
      <point x="348" y="59"/>
    </contour>
    <contour>
      <point x="346" y="108" type="curve" smooth="yes"/>
      <point x="344" y="108"/>
      <point x="343" y="107"/>
      <point x="343" y="105" type="curve" smooth="yes"/>
      <point x="343" y="103"/>
      <point x="344" y="102"/>
      <point x="346" y="102" type="curve" smooth="yes"/>
      <point x="348" y="102"/>
      <point x="349" y="103"/>
      <point x="349" y="105" type="curve" smooth="yes"/>
      <point x="349" y="107"/>
      <point x="348" y="108"/>
    </contour>
    <contour>
      <point x="297" y="59" type="curve" smooth="yes"/>
      <point x="295" y="59"/>
      <point x="294" y="57"/>
      <point x="294" y="56" type="curve" smooth="yes"/>
      <point x="294" y="55"/>
      <point x="295" y="53"/>
      <point x="297" y="53" type="curve" smooth="yes"/>
      <point x="298" y="53"/>
      <point x="299" y="55"/>
      <point x="299" y="56" type="curve" smooth="yes"/>
      <point x="299" y="57"/>
      <point x="298" y="59"/>
    </contour>
    <contour>
      <point x="297" y="108" type="curve" smooth="yes"/>
      <point x="295" y="108"/>
      <point x="294" y="107"/>
      <point x="294" y="105" type="curve" smooth="yes"/>
      <point x="294" y="103"/>
      <point x="295" y="102"/>
      <point x="297" y="102" type="curve" smooth="yes"/>
      <point x="299" y="102"/>
      <point x="300" y="103"/>
      <point x="300" y="105" type="curve" smooth="yes"/>
      <point x="300" y="107"/>
      <point x="299" y="108"/>
    </contour>
    <contour>
      <point x="247" y="59" type="curve" smooth="yes"/>
      <point x="246" y="59"/>
      <point x="245" y="57"/>
      <point x="245" y="56" type="curve" smooth="yes"/>
      <point x="245" y="55"/>
      <point x="246" y="53"/>
      <point x="247" y="53" type="curve" smooth="yes"/>
      <point x="249" y="53"/>
      <point x="250" y="55"/>
      <point x="250" y="56" type="curve" smooth="yes"/>
      <point x="250" y="57"/>
      <point x="249" y="59"/>
    </contour>
    <contour>
      <point x="247" y="108" type="curve" smooth="yes"/>
      <point x="246" y="108"/>
      <point x="244" y="107"/>
      <point x="244" y="105" type="curve" smooth="yes"/>
      <point x="244" y="103"/>
      <point x="246" y="102"/>
      <point x="247" y="102" type="curve" smooth="yes"/>
      <point x="249" y="102"/>
      <point x="251" y="103"/>
      <point x="251" y="105" type="curve" smooth="yes"/>
      <point x="251" y="107"/>
      <point x="249" y="108"/>
    </contour>
    <contour>
      <point x="198" y="59" type="curve" smooth="yes"/>
      <point x="197" y="59"/>
      <point x="195" y="57"/>
      <point x="195" y="56" type="curve" smooth="yes"/>
      <point x="195" y="55"/>
      <point x="197" y="53"/>
      <point x="198" y="53" type="curve" smooth="yes"/>
      <point x="199" y="53"/>
      <point x="201" y="55"/>
      <point x="201" y="56" type="curve" smooth="yes"/>
      <point x="201" y="57"/>
      <point x="199" y="59"/>
    </contour>
    <contour>
      <point x="198" y="108" type="curve" smooth="yes"/>
      <point x="196" y="108"/>
      <point x="195" y="107"/>
      <point x="195" y="105" type="curve" smooth="yes"/>
      <point x="195" y="103"/>
      <point x="196" y="102"/>
      <point x="198" y="102" type="curve" smooth="yes"/>
      <point x="200" y="102"/>
      <point x="201" y="103"/>
      <point x="201" y="105" type="curve" smooth="yes"/>
      <point x="201" y="107"/>
      <point x="200" y="108"/>
    </contour>
    <contour>
      <point x="149" y="59" type="curve" smooth="yes"/>
      <point x="147" y="59"/>
      <point x="146" y="57"/>
      <point x="146" y="56" type="curve" smooth="yes"/>
      <point x="146" y="55"/>
      <point x="147" y="53"/>
      <point x="149" y="53" type="curve" smooth="yes"/>
      <point x="150" y="53"/>
      <point x="151" y="55"/>
      <point x="151" y="56" type="curve" smooth="yes"/>
      <point x="151" y="57"/>
      <point x="150" y="59"/>
    </contour>
    <contour>
      <point x="149" y="108" type="curve" smooth="yes"/>
      <point x="147" y="108"/>
      <point x="145" y="107"/>
      <point x="145" y="105" type="curve" smooth="yes"/>
      <point x="145" y="103"/>
      <point x="147" y="102"/>
      <point x="149" y="102" type="curve" smooth="yes"/>
      <point x="150" y="102"/>
      <point x="152" y="103"/>
      <point x="152" y="105" type="curve" smooth="yes"/>
      <point x="152" y="107"/>
      <point x="150" y="108"/>
    </contour>
    <contour>
      <point x="494" y="-41" type="curve" smooth="yes"/>
      <point x="494" y="-41"/>
      <point x="493" y="-42"/>
      <point x="493" y="-42" type="curve" smooth="yes"/>
      <point x="493" y="-43"/>
      <point x="494" y="-43"/>
      <point x="494" y="-43" type="curve" smooth="yes"/>
      <point x="495" y="-43"/>
      <point x="496" y="-43"/>
      <point x="496" y="-42" type="curve" smooth="yes"/>
      <point x="496" y="-42"/>
      <point x="495" y="-41"/>
    </contour>
    <contour>
      <point x="494" y="9" type="curve" smooth="yes"/>
      <point x="493" y="9"/>
      <point x="493" y="8"/>
      <point x="493" y="7" type="curve" smooth="yes"/>
      <point x="493" y="6"/>
      <point x="493" y="5"/>
      <point x="494" y="5" type="curve" smooth="yes"/>
      <point x="495" y="5"/>
      <point x="496" y="6"/>
      <point x="496" y="7" type="curve" smooth="yes"/>
      <point x="496" y="8"/>
      <point x="495" y="9"/>
    </contour>
    <contour>
      <point x="445" y="-41" type="curve" smooth="yes"/>
      <point x="444" y="-41"/>
      <point x="444" y="-42"/>
      <point x="444" y="-42" type="curve" smooth="yes"/>
      <point x="444" y="-43"/>
      <point x="444" y="-43"/>
      <point x="445" y="-43" type="curve" smooth="yes"/>
      <point x="446" y="-43"/>
      <point x="446" y="-43"/>
      <point x="446" y="-42" type="curve" smooth="yes"/>
      <point x="446" y="-42"/>
      <point x="446" y="-41"/>
    </contour>
    <contour>
      <point x="396" y="-41" type="curve" smooth="yes"/>
      <point x="395" y="-41"/>
      <point x="395" y="-42"/>
      <point x="395" y="-42" type="curve" smooth="yes"/>
      <point x="395" y="-43"/>
      <point x="395" y="-43"/>
      <point x="396" y="-43" type="curve" smooth="yes"/>
      <point x="396" y="-43"/>
      <point x="397" y="-43"/>
      <point x="397" y="-42" type="curve" smooth="yes"/>
      <point x="397" y="-42"/>
      <point x="396" y="-41"/>
    </contour>
    <contour>
      <point x="346" y="-41" type="curve" smooth="yes"/>
      <point x="346" y="-41"/>
      <point x="345" y="-42"/>
      <point x="345" y="-42" type="curve" smooth="yes"/>
      <point x="345" y="-43"/>
      <point x="346" y="-43"/>
      <point x="346" y="-43" type="curve" smooth="yes"/>
      <point x="347" y="-43"/>
      <point x="347" y="-43"/>
      <point x="347" y="-42" type="curve" smooth="yes"/>
      <point x="347" y="-42"/>
      <point x="347" y="-41"/>
    </contour>
    <contour>
      <point x="346" y="9" type="curve" smooth="yes"/>
      <point x="345" y="9"/>
      <point x="344" y="8"/>
      <point x="344" y="7" type="curve" smooth="yes"/>
      <point x="344" y="6"/>
      <point x="345" y="5"/>
      <point x="346" y="5" type="curve" smooth="yes"/>
      <point x="347" y="5"/>
      <point x="348" y="6"/>
      <point x="348" y="7" type="curve" smooth="yes"/>
      <point x="348" y="8"/>
      <point x="347" y="9"/>
    </contour>
    <contour>
      <point x="396" y="9" type="curve" smooth="yes"/>
      <point x="395" y="9"/>
      <point x="394" y="8"/>
      <point x="394" y="7" type="curve" smooth="yes"/>
      <point x="394" y="6"/>
      <point x="395" y="5"/>
      <point x="396" y="5" type="curve" smooth="yes"/>
      <point x="397" y="5"/>
      <point x="397" y="6"/>
      <point x="397" y="7" type="curve" smooth="yes"/>
      <point x="397" y="8"/>
      <point x="397" y="9"/>
    </contour>
    <contour>
      <point x="297" y="-41" type="curve" smooth="yes"/>
      <point x="296" y="-41"/>
      <point x="296" y="-42"/>
      <point x="296" y="-42" type="curve" smooth="yes"/>
      <point x="296" y="-43"/>
      <point x="296" y="-43"/>
      <point x="297" y="-43" type="curve" smooth="yes"/>
      <point x="297" y="-43"/>
      <point x="298" y="-43"/>
      <point x="298" y="-42" type="curve" smooth="yes"/>
      <point x="298" y="-42"/>
      <point x="297" y="-41"/>
    </contour>
    <contour>
      <point x="297" y="9" type="curve" smooth="yes"/>
      <point x="296" y="9"/>
      <point x="295" y="8"/>
      <point x="295" y="7" type="curve" smooth="yes"/>
      <point x="295" y="6"/>
      <point x="296" y="5"/>
      <point x="297" y="5" type="curve" smooth="yes"/>
      <point x="298" y="5"/>
      <point x="299" y="6"/>
      <point x="299" y="7" type="curve" smooth="yes"/>
      <point x="299" y="8"/>
      <point x="298" y="9"/>
    </contour>
    <contour>
      <point x="247" y="-41" type="curve" smooth="yes"/>
      <point x="247" y="-41"/>
      <point x="246" y="-42"/>
      <point x="246" y="-42" type="curve" smooth="yes"/>
      <point x="246" y="-43"/>
      <point x="247" y="-43"/>
      <point x="247" y="-43" type="curve" smooth="yes"/>
      <point x="248" y="-43"/>
      <point x="249" y="-43"/>
      <point x="249" y="-42" type="curve" smooth="yes"/>
      <point x="249" y="-42"/>
      <point x="248" y="-41"/>
    </contour>
    <contour>
      <point x="247" y="9" type="curve" smooth="yes"/>
      <point x="246" y="9"/>
      <point x="246" y="8"/>
      <point x="246" y="7" type="curve" smooth="yes"/>
      <point x="246" y="6"/>
      <point x="246" y="5"/>
      <point x="247" y="5" type="curve" smooth="yes"/>
      <point x="248" y="5"/>
      <point x="249" y="6"/>
      <point x="249" y="7" type="curve" smooth="yes"/>
      <point x="249" y="8"/>
      <point x="248" y="9"/>
    </contour>
    <contour>
      <point x="198" y="-41" type="curve" smooth="yes"/>
      <point x="197" y="-41"/>
      <point x="197" y="-42"/>
      <point x="197" y="-42" type="curve" smooth="yes"/>
      <point x="197" y="-43"/>
      <point x="197" y="-43"/>
      <point x="198" y="-43" type="curve" smooth="yes"/>
      <point x="199" y="-43"/>
      <point x="199" y="-43"/>
      <point x="199" y="-42" type="curve" smooth="yes"/>
      <point x="199" y="-42"/>
      <point x="199" y="-41"/>
    </contour>
    <contour>
      <point x="198" y="9" type="curve" smooth="yes"/>
      <point x="197" y="9"/>
      <point x="196" y="8"/>
      <point x="196" y="7" type="curve" smooth="yes"/>
      <point x="196" y="6"/>
      <point x="197" y="5"/>
      <point x="198" y="5" type="curve" smooth="yes"/>
      <point x="199" y="5"/>
      <point x="200" y="6"/>
      <point x="200" y="7" type="curve" smooth="yes"/>
      <point x="200" y="8"/>
      <point x="199" y="9"/>
    </contour>
    <contour>
      <point x="149" y="-41" type="curve" smooth="yes"/>
      <point x="148" y="-41"/>
      <point x="147" y="-42"/>
      <point x="147" y="-42" type="curve" smooth="yes"/>
      <point x="147" y="-43"/>
      <point x="148" y="-43"/>
      <point x="149" y="-43" type="curve" smooth="yes"/>
      <point x="149" y="-43"/>
      <point x="150" y="-43"/>
      <point x="150" y="-42" type="curve" smooth="yes"/>
      <point x="150" y="-42"/>
      <point x="149" y="-41"/>
    </contour>
    <contour>
      <point x="149" y="9" type="curve" smooth="yes"/>
      <point x="148" y="9"/>
      <point x="147" y="8"/>
      <point x="147" y="7" type="curve" smooth="yes"/>
      <point x="147" y="6"/>
      <point x="148" y="5"/>
      <point x="149" y="5" type="curve" smooth="yes"/>
      <point x="150" y="5"/>
      <point x="150" y="6"/>
      <point x="150" y="7" type="curve" smooth="yes"/>
      <point x="150" y="8"/>
      <point x="150" y="9"/>
    </contour>
    <contour>
      <point x="99" y="-41" type="curve" smooth="yes"/>
      <point x="99" y="-41"/>
      <point x="98" y="-42"/>
      <point x="98" y="-42" type="curve" smooth="yes"/>
      <point x="98" y="-43"/>
      <point x="99" y="-43"/>
      <point x="99" y="-43" type="curve" smooth="yes"/>
      <point x="100" y="-43"/>
      <point x="100" y="-43"/>
      <point x="100" y="-42" type="curve" smooth="yes"/>
      <point x="100" y="-42"/>
      <point x="100" y="-41"/>
    </contour>
    <contour>
      <point x="99" y="9" type="curve" smooth="yes"/>
      <point x="98" y="9"/>
      <point x="97" y="8"/>
      <point x="97" y="7" type="curve" smooth="yes"/>
      <point x="97" y="6"/>
      <point x="98" y="5"/>
      <point x="99" y="5" type="curve" smooth="yes"/>
      <point x="100" y="5"/>
      <point x="101" y="6"/>
      <point x="101" y="7" type="curve" smooth="yes"/>
      <point x="101" y="8"/>
      <point x="100" y="9"/>
    </contour>
    <contour>
      <point x="50" y="-41" type="curve" smooth="yes"/>
      <point x="49" y="-41"/>
      <point x="49" y="-42"/>
      <point x="49" y="-42" type="curve" smooth="yes"/>
      <point x="49" y="-43"/>
      <point x="49" y="-43"/>
      <point x="50" y="-43" type="curve" smooth="yes"/>
      <point x="50" y="-43"/>
      <point x="51" y="-43"/>
      <point x="51" y="-42" type="curve" smooth="yes"/>
      <point x="51" y="-42"/>
      <point x="50" y="-41"/>
    </contour>
    <contour>
      <point x="388" y="119" type="line"/>
      <point x="419" y="36" type="line"/>
      <point x="429" y="0" type="line"/>
      <point x="452" y="0" type="line"/>
      <point x="408" y="119" type="line"/>
    </contour>
    <contour>
      <point x="34" y="0" type="line"/>
      <point x="57" y="0" type="line"/>
      <point x="69" y="36" type="line"/>
      <point x="104" y="119" type="line"/>
      <point x="83" y="119" type="line"/>
    </contour>
    <contour>
      <point x="494" y="158" type="curve"/>
      <point x="393" y="158" type="line"/>
      <point x="262" y="506" type="line"/>
      <point x="241" y="506" type="line"/>
      <point x="99" y="158" type="line"/>
      <point x="0" y="158" type="line"/>
      <point x="-2" y="158"/>
      <point x="-4" y="156"/>
      <point x="-4" y="154" type="curve" smooth="yes"/>
      <point x="-4" y="152"/>
      <point x="-2" y="150"/>
      <point x="0" y="150" type="curve"/>
      <point x="494" y="150" type="line"/>
      <point x="497" y="150"/>
      <point x="498" y="152"/>
      <point x="498" y="154" type="curve" smooth="yes"/>
      <point x="498" y="156"/>
      <point x="497" y="158"/>
    </contour>
    <contour>
      <point x="249" y="475" type="line"/>
      <point x="252" y="475" type="line"/>
      <point x="373" y="158" type="line"/>
      <point x="120" y="158" type="line"/>
    </contour>
  </outline>
</glyph>
<glyph name="a.2.0" format="1">
  <advance width="494"/>
  <outline>
    <contour>
      <point x="445" y="-41" type="curve" smooth="yes"/>
      <point x="444" y="-41"/>
      <point x="444" y="-42"/>
      <point x="444" y="-42" type="curve" smooth="yes"/>
      <point x="444" y="-43"/>
      <point x="444" y="-43"/>
      <point x="445" y="-43" type="curve" smooth="yes"/>
      <point x="446" y="-43"/>
      <point x="446" y="-43"/>
      <point x="446" y="-42" type="curve" smooth="yes"/>
      <point x="446" y="-42"/>
      <point x="446" y="-41"/>
    </contour>
    <contour>
      <point x="396" y="-41" type="curve" smooth="yes"/>
      <point x="395" y="-41"/>
      <point x="395" y="-42"/>
      <point x="395" y="-42" type="curve" smooth="yes"/>
      <point x="395" y="-43"/>
      <point x="395" y="-43"/>
      <point x="396" y="-43" type="curve" smooth="yes"/>
      <point x="396" y="-43"/>
      <point x="397" y="-43"/>
      <point x="397" y="-42" type="curve" smooth="yes"/>
      <point x="397" y="-42"/>
      <point x="396" y="-41"/>
    </contour>
    <contour>
      <point x="346" y="-41" type="curve" smooth="yes"/>
      <point x="346" y="-41"/>
      <point x="345" y="-42"/>
      <point x="345" y="-42" type="curve" smooth="yes"/>
      <point x="345" y="-43"/>
      <point x="346" y="-43"/>
      <point x="346" y="-43" type="curve" smooth="yes"/>
      <point x="347" y="-43"/>
      <point x="347" y="-43"/>
      <point x="347" y="-42" type="curve" smooth="yes"/>
      <point x="347" y="-42"/>
      <point x="347" y="-41"/>
    </contour>
    <contour>
      <point x="346" y="9" type="curve" smooth="yes"/>
      <point x="345" y="9"/>
      <point x="344" y="8"/>
      <point x="344" y="7" type="curve" smooth="yes"/>
      <point x="344" y="6"/>
      <point x="345" y="5"/>
      <point x="346" y="5" type="curve" smooth="yes"/>
      <point x="347" y="5"/>
      <point x="348" y="6"/>
      <point x="348" y="7" type="curve" smooth="yes"/>
      <point x="348" y="8"/>
      <point x="347" y="9"/>
    </contour>
    <contour>
      <point x="297" y="-41" type="curve" smooth="yes"/>
      <point x="296" y="-41"/>
      <point x="296" y="-42"/>
      <point x="296" y="-42" type="curve" smooth="yes"/>
      <point x="296" y="-43"/>
      <point x="296" y="-43"/>
      <point x="297" y="-43" type="curve" smooth="yes"/>
      <point x="297" y="-43"/>
      <point x="298" y="-43"/>
      <point x="298" y="-42" type="curve" smooth="yes"/>
      <point x="298" y="-42"/>
      <point x="297" y="-41"/>
    </contour>
    <contour>
      <point x="297" y="9" type="curve" smooth="yes"/>
      <point x="296" y="9"/>
      <point x="295" y="8"/>
      <point x="295" y="7" type="curve" smooth="yes"/>
      <point x="295" y="6"/>
      <point x="296" y="5"/>
      <point x="297" y="5" type="curve" smooth="yes"/>
      <point x="298" y="5"/>
      <point x="299" y="6"/>
      <point x="299" y="7" type="curve" smooth="yes"/>
      <point x="299" y="8"/>
      <point x="298" y="9"/>
    </contour>
    <contour>
      <point x="297" y="59" type="curve" smooth="yes"/>
      <point x="295" y="59"/>
      <point x="294" y="57"/>
      <point x="294" y="56" type="curve" smooth="yes"/>
      <point x="294" y="55"/>
      <point x="295" y="53"/>
      <point x="297" y="53" type="curve" smooth="yes"/>
      <point x="298" y="53"/>
      <point x="299" y="55"/>
      <point x="299" y="56" type="curve" smooth="yes"/>
      <point x="299" y="57"/>
      <point x="298" y="59"/>
    </contour>
    <contour>
      <point x="247" y="-41" type="curve" smooth="yes"/>
      <point x="247" y="-41"/>
      <point x="246" y="-42"/>
      <point x="246" y="-42" type="curve" smooth="yes"/>
      <point x="246" y="-43"/>
      <point x="247" y="-43"/>
      <point x="247" y="-43" type="curve" smooth="yes"/>
      <point x="248" y="-43"/>
      <point x="249" y="-43"/>
      <point x="249" y="-42" type="curve" smooth="yes"/>
      <point x="249" y="-42"/>
      <point x="248" y="-41"/>
    </contour>
    <contour>
      <point x="247" y="9" type="curve" smooth="yes"/>
      <point x="246" y="9"/>
      <point x="246" y="8"/>
      <point x="246" y="7" type="curve" smooth="yes"/>
      <point x="246" y="6"/>
      <point x="246" y="5"/>
      <point x="247" y="5" type="curve" smooth="yes"/>
      <point x="248" y="5"/>
      <point x="249" y="6"/>
      <point x="249" y="7" type="curve" smooth="yes"/>
      <point x="249" y="8"/>
      <point x="248" y="9"/>
    </contour>
    <contour>
      <point x="247" y="59" type="curve" smooth="yes"/>
      <point x="246" y="59"/>
      <point x="245" y="57"/>
      <point x="245" y="56" type="curve" smooth="yes"/>
      <point x="245" y="55"/>
      <point x="246" y="53"/>
      <point x="247" y="53" type="curve" smooth="yes"/>
      <point x="249" y="53"/>
      <point x="250" y="55"/>
      <point x="250" y="56" type="curve" smooth="yes"/>
      <point x="250" y="57"/>
      <point x="249" y="59"/>
    </contour>
    <contour>
      <point x="247" y="108" type="curve" smooth="yes"/>
      <point x="246" y="108"/>
      <point x="244" y="107"/>
      <point x="244" y="105" type="curve" smooth="yes"/>
      <point x="244" y="103"/>
      <point x="246" y="102"/>
      <point x="247" y="102" type="curve" smooth="yes"/>
      <point x="249" y="102"/>
      <point x="251" y="103"/>
      <point x="251" y="105" type="curve" smooth="yes"/>
      <point x="251" y="107"/>
      <point x="249" y="108"/>
    </contour>
    <contour>
      <point x="198" y="-41" type="curve" smooth="yes"/>
      <point x="197" y="-41"/>
      <point x="197" y="-42"/>
      <point x="197" y="-42" type="curve" smooth="yes"/>
      <point x="197" y="-43"/>
      <point x="197" y="-43"/>
      <point x="198" y="-43" type="curve" smooth="yes"/>
      <point x="199" y="-43"/>
      <point x="199" y="-43"/>
      <point x="199" y="-42" type="curve" smooth="yes"/>
      <point x="199" y="-42"/>
      <point x="199" y="-41"/>
    </contour>
    <contour>
      <point x="198" y="9" type="curve" smooth="yes"/>
      <point x="197" y="9"/>
      <point x="196" y="8"/>
      <point x="196" y="7" type="curve" smooth="yes"/>
      <point x="196" y="6"/>
      <point x="197" y="5"/>
      <point x="198" y="5" type="curve" smooth="yes"/>
      <point x="199" y="5"/>
      <point x="200" y="6"/>
      <point x="200" y="7" type="curve" smooth="yes"/>
      <point x="200" y="8"/>
      <point x="199" y="9"/>
    </contour>
    <contour>
      <point x="198" y="59" type="curve" smooth="yes"/>
      <point x="197" y="59"/>
      <point x="195" y="57"/>
      <point x="195" y="56" type="curve" smooth="yes"/>
      <point x="195" y="55"/>
      <point x="197" y="53"/>
      <point x="198" y="53" type="curve" smooth="yes"/>
      <point x="199" y="53"/>
      <point x="201" y="55"/>
      <point x="201" y="56" type="curve" smooth="yes"/>
      <point x="201" y="57"/>
      <point x="199" y="59"/>
    </contour>
    <contour>
      <point x="198" y="108" type="curve" smooth="yes"/>
      <point x="196" y="108"/>
      <point x="195" y="107"/>
      <point x="195" y="105" type="curve" smooth="yes"/>
      <point x="195" y="103"/>
      <point x="196" y="102"/>
      <point x="198" y="102" type="curve" smooth="yes"/>
      <point x="200" y="102"/>
      <point x="201" y="103"/>
      <point x="201" y="105" type="curve" smooth="yes"/>
      <point x="201" y="107"/>
      <point x="200" y="108"/>
    </contour>
    <contour>
      <point x="149" y="-41" type="curve" smooth="yes"/>
      <point x="148" y="-41"/>
      <point x="147" y="-42"/>
      <point x="147" y="-42" type="curve" smooth="yes"/>
      <point x="147" y="-43"/>
      <point x="148" y="-43"/>
      <point x="149" y="-43" type="curve" smooth="yes"/>
      <point x="149" y="-43"/>
      <point x="150" y="-43"/>
      <point x="150" y="-42" type="curve" smooth="yes"/>
      <point x="150" y="-42"/>
      <point x="149" y="-41"/>
    </contour>
    <contour>
      <point x="149" y="9" type="curve" smooth="yes"/>
      <point x="148" y="9"/>
      <point x="147" y="8"/>
      <point x="147" y="7" type="curve" smooth="yes"/>
      <point x="147" y="6"/>
      <point x="148" y="5"/>
      <point x="149" y="5" type="curve" smooth="yes"/>
      <point x="150" y="5"/>
      <point x="150" y="6"/>
      <point x="150" y="7" type="curve" smooth="yes"/>
      <point x="150" y="8"/>
      <point x="150" y="9"/>
    </contour>
    <contour>
      <point x="149" y="59" type="curve" smooth="yes"/>
      <point x="147" y="59"/>
      <point x="146" y="57"/>
      <point x="146" y="56" type="curve" smooth="yes"/>
      <point x="146" y="55"/>
      <point x="147" y="53"/>
      <point x="149" y="53" type="curve" smooth="yes"/>
      <point x="150" y="53"/>
      <point x="151" y="55"/>
      <point x="151" y="56" type="curve" smooth="yes"/>
      <point x="151" y="57"/>
      <point x="150" y="59"/>
    </contour>
    <contour>
      <point x="149" y="108" type="curve" smooth="yes"/>
      <point x="147" y="108"/>
      <point x="145" y="107"/>
      <point x="145" y="105" type="curve" smooth="yes"/>
      <point x="145" y="103"/>
      <point x="147" y="102"/>
      <point x="149" y="102" type="curve" smooth="yes"/>
      <point x="150" y="102"/>
      <point x="152" y="103"/>
      <point x="152" y="105" type="curve" smooth="yes"/>
      <point x="152" y="107"/>
      <point x="150" y="108"/>
    </contour>
    <contour>
      <point x="99" y="-41" type="curve" smooth="yes"/>
      <point x="99" y="-41"/>
      <point x="98" y="-42"/>
      <point x="98" y="-42" type="curve" smooth="yes"/>
      <point x="98" y="-43"/>
      <point x="99" y="-43"/>
      <point x="99" y="-43" type="curve" smooth="yes"/>
      <point x="100" y="-43"/>
      <point x="100" y="-43"/>
      <point x="100" y="-42" type="curve" smooth="yes"/>
      <point x="100" y="-42"/>
      <point x="100" y="-41"/>
    </contour>
    <contour>
      <point x="99" y="9" type="curve" smooth="yes"/>
      <point x="98" y="9"/>
      <point x="97" y="8"/>
      <point x="97" y="7" type="curve" smooth="yes"/>
      <point x="97" y="6"/>
      <point x="98" y="5"/>
      <point x="99" y="5" type="curve" smooth="yes"/>
      <point x="100" y="5"/>
      <point x="101" y="6"/>
      <point x="101" y="7" type="curve" smooth="yes"/>
      <point x="101" y="8"/>
      <point x="100" y="9"/>
    </contour>
    <contour>
      <point x="50" y="-41" type="curve" smooth="yes"/>
      <point x="49" y="-41"/>
      <point x="49" y="-42"/>
      <point x="49" y="-42" type="curve" smooth="yes"/>
      <point x="49" y="-43"/>
      <point x="49" y="-43"/>
      <point x="50" y="-43" type="curve" smooth="yes"/>
      <point x="50" y="-43"/>
      <point x="51" y="-43"/>
      <point x="51" y="-42" type="curve" smooth="yes"/>
      <point x="51" y="-42"/>
      <point x="50" y="-41"/>
    </contour>
    <contour>
      <point x="50" y="158" type="curve" smooth="yes"/>
      <point x="48" y="158"/>
      <point x="46" y="156"/>
      <point x="46" y="154" type="curve" smooth="yes"/>
      <point x="46" y="152"/>
      <point x="48" y="150"/>
      <point x="50" y="150" type="curve" smooth="yes"/>
      <point x="52" y="150"/>
      <point x="54" y="152"/>
      <point x="54" y="154" type="curve" smooth="yes"/>
      <point x="54" y="156"/>
      <point x="52" y="158"/>
    </contour>
    <contour>
      <point x="50" y="208" type="curve" smooth="yes"/>
      <point x="47" y="208"/>
      <point x="45" y="206"/>
      <point x="45" y="203" type="curve" smooth="yes"/>
      <point x="45" y="201"/>
      <point x="47" y="199"/>
      <point x="50" y="199" type="curve" smooth="yes"/>
      <point x="52" y="199"/>
      <point x="55" y="201"/>
      <point x="55" y="203" type="curve" smooth="yes"/>
      <point x="55" y="206"/>
      <point x="52" y="208"/>
    </contour>
    <contour>
      <point x="50" y="258" type="curve" smooth="yes"/>
      <point x="47" y="258"/>
      <point x="44" y="255"/>
      <point x="44" y="252" type="curve" smooth="yes"/>
      <point x="44" y="249"/>
      <point x="47" y="247"/>
      <point x="50" y="247" type="curve" smooth="yes"/>
      <point x="53" y="247"/>
      <point x="55" y="249"/>
      <point x="55" y="252" type="curve" smooth="yes"/>
      <point x="55" y="255"/>
      <point x="53" y="258"/>
    </contour>
    <contour>
      <point x="497" y="-39" type="curve"/>
      <point x="455" y="-5" type="line"/>
      <point x="262" y="506" type="line"/>
      <point x="241" y="506" type="line"/>
      <point x="136" y="249" type="line"/>
      <point x="3" y="354" type="line"/>
      <point x="1" y="355"/>
      <point x="-1" y="355"/>
      <point x="-3" y="353" type="curve" smooth="yes"/>
      <point x="-4" y="351"/>
      <point x="-4" y="349"/>
      <point x="-2" y="347" type="curve"/>
      <point x="132" y="240" type="line"/>
      <point x="34" y="1" type="line"/>
      <point x="57" y="1" type="line"/>
      <point x="69" y="37" type="line"/>
      <point x="113" y="143" type="line"/>
      <point x="198" y="143" type="line"/>
      <point x="174" y="162" type="line"/>
      <point x="121" y="162" type="line"/>
      <point x="148" y="228" type="line"/>
      <point x="492" y="-46" type="line"/>
      <point x="493" y="-46"/>
      <point x="493" y="-47"/>
      <point x="494" y="-47" type="curve" smooth="yes"/>
      <point x="496" y="-47"/>
      <point x="497" y="-46"/>
      <point x="498" y="-45" type="curve" smooth="yes"/>
      <point x="499" y="-43"/>
      <point x="499" y="-40"/>
    </contour>
    <contour>
      <point x="419" y="37" type="line"/>
      <point x="425" y="19" type="line"/>
      <point x="269" y="143" type="line"/>
      <point x="379" y="143" type="line"/>
    </contour>
    <contour>
      <point x="249" y="475" type="line"/>
      <point x="252" y="475" type="line"/>
      <point x="372" y="162" type="line"/>
      <point x="244" y="162" type="line"/>
      <point x="151" y="236" type="line"/>
    </contour>
  </outline>
</glyph>
<glyph name="a.2.2" format="1">
  <advance width="494"/>
  <outline>
    <contour>
      <point x="494" y="-41" type="curve" smooth="yes"/>
      <point x="494" y="-41"/>
      <point x="493" y="-42"/>
      <point x="493" y="-42" type="curve" smooth="yes"/>
      <point x="493" y="-43"/>
      <point x="494" y="-43"/>
      <point x="494" y="-43" type="curve" smooth="yes"/>
      <point x="495" y="-43"/>
      <point x="496" y="-43"/>
      <point x="496" y="-42" type="curve" smooth="yes"/>
      <point x="496" y="-42"/>
      <point x="495" y="-41"/>
    </contour>
    <contour>
      <point x="494" y="9" type="curve" smooth="yes"/>
      <point x="493" y="9"/>
      <point x="493" y="8"/>
      <point x="493" y="7" type="curve" smooth="yes"/>
      <point x="493" y="6"/>
      <point x="493" y="5"/>
      <point x="494" y="5" type="curve" smooth="yes"/>
      <point x="495" y="5"/>
      <point x="496" y="6"/>
      <point x="496" y="7" type="curve" smooth="yes"/>
      <point x="496" y="8"/>
      <point x="495" y="9"/>
    </contour>
    <contour>
      <point x="494" y="59" type="curve" smooth="yes"/>
      <point x="493" y="59"/>
      <point x="492" y="57"/>
      <point x="492" y="56" type="curve" smooth="yes"/>
      <point x="492" y="55"/>
      <point x="493" y="53"/>
      <point x="494" y="53" type="curve" smooth="yes"/>
      <point x="496" y="53"/>
      <point x="497" y="55"/>
      <point x="497" y="56" type="curve" smooth="yes"/>
      <point x="497" y="57"/>
      <point x="496" y="59"/>
    </contour>
    <contour>
      <point x="494" y="108" type="curve" smooth="yes"/>
      <point x="493" y="108"/>
      <point x="491" y="107"/>
      <point x="491" y="105" type="curve" smooth="yes"/>
      <point x="491" y="103"/>
      <point x="493" y="102"/>
      <point x="494" y="102" type="curve" smooth="yes"/>
      <point x="496" y="102"/>
      <point x="498" y="103"/>
      <point x="498" y="105" type="curve" smooth="yes"/>
      <point x="498" y="107"/>
      <point x="496" y="108"/>
    </contour>
    <contour>
      <point x="494" y="158" type="curve" smooth="yes"/>
      <point x="492" y="158"/>
      <point x="490" y="156"/>
      <point x="490" y="154" type="curve" smooth="yes"/>
      <point x="490" y="152"/>
      <point x="492" y="150"/>
      <point x="494" y="150" type="curve" smooth="yes"/>
      <point x="497" y="150"/>
      <point x="498" y="152"/>
      <point x="498" y="154" type="curve" smooth="yes"/>
      <point x="498" y="156"/>
      <point x="497" y="158"/>
    </contour>
    <contour>
      <point x="494" y="208" type="curve" smooth="yes"/>
      <point x="492" y="208"/>
      <point x="490" y="206"/>
      <point x="490" y="203" type="curve" smooth="yes"/>
      <point x="490" y="201"/>
      <point x="492" y="199"/>
      <point x="494" y="199" type="curve" smooth="yes"/>
      <point x="497" y="199"/>
      <point x="499" y="201"/>
      <point x="499" y="203" type="curve" smooth="yes"/>
      <point x="499" y="206"/>
      <point x="497" y="208"/>
    </contour>
    <contour>
      <point x="494" y="258" type="curve" smooth="yes"/>
      <point x="491" y="258"/>
      <point x="489" y="255"/>
      <point x="489" y="252" type="curve" smooth="yes"/>
      <point x="489" y="249"/>
      <point x="491" y="247"/>
      <point x="494" y="247" type="curve" smooth="yes"/>
      <point x="497" y="247"/>
      <point x="500" y="249"/>
      <point x="500" y="252" type="curve" smooth="yes"/>
      <point x="500" y="255"/>
      <point x="497" y="258"/>
    </contour>
    <contour>
      <point x="494" y="308" type="curve" smooth="yes"/>
      <point x="491" y="308"/>
      <point x="488" y="305"/>
      <point x="488" y="301" type="curve" smooth="yes"/>
      <point x="488" y="298"/>
      <point x="491" y="295"/>
      <point x="494" y="295" type="curve" smooth="yes"/>
      <point x="498" y="295"/>
      <point x="501" y="298"/>
      <point x="501" y="301" type="curve" smooth="yes"/>
      <point x="501" y="305"/>
      <point x="498" y="308"/>
    </contour>
    <contour>
      <point x="445" y="-41" type="curve" smooth="yes"/>
      <point x="444" y="-41"/>
      <point x="444" y="-42"/>
      <point x="444" y="-42" type="curve" smooth="yes"/>
      <point x="444" y="-43"/>
      <point x="444" y="-43"/>
      <point x="445" y="-43" type="curve" smooth="yes"/>
      <point x="446" y="-43"/>
      <point x="446" y="-43"/>
      <point x="446" y="-42" type="curve" smooth="yes"/>
      <point x="446" y="-42"/>
      <point x="446" y="-41"/>
    </contour>
    <contour>
      <point x="445" y="108" type="curve" smooth="yes"/>
      <point x="443" y="108"/>
      <point x="442" y="107"/>
      <point x="442" y="105" type="curve" smooth="yes"/>
      <point x="442" y="103"/>
      <point x="443" y="102"/>
      <point x="445" y="102" type="curve" smooth="yes"/>
      <point x="447" y="102"/>
      <point x="448" y="103"/>
      <point x="448" y="105" type="curve" smooth="yes"/>
      <point x="448" y="107"/>
      <point x="447" y="108"/>
    </contour>
    <contour>
      <point x="445" y="158" type="curve" smooth="yes"/>
      <point x="443" y="158"/>
      <point x="441" y="156"/>
      <point x="441" y="154" type="curve" smooth="yes"/>
      <point x="441" y="152"/>
      <point x="443" y="150"/>
      <point x="445" y="150" type="curve" smooth="yes"/>
      <point x="447" y="150"/>
      <point x="449" y="152"/>
      <point x="449" y="154" type="curve" smooth="yes"/>
      <point x="449" y="156"/>
      <point x="447" y="158"/>
    </contour>
    <contour>
      <point x="445" y="208" type="curve" smooth="yes"/>
      <point x="442" y="208"/>
      <point x="440" y="206"/>
      <point x="440" y="203" type="curve" smooth="yes"/>
      <point x="440" y="201"/>
      <point x="442" y="199"/>
      <point x="445" y="199" type="curve" smooth="yes"/>
      <point x="448" y="199"/>
      <point x="450" y="201"/>
      <point x="450" y="203" type="curve" smooth="yes"/>
      <point x="450" y="206"/>
      <point x="448" y="208"/>
    </contour>
    <contour>
      <point x="445" y="258" type="curve" smooth="yes"/>
      <point x="442" y="258"/>
      <point x="440" y="255"/>
      <point x="440" y="252" type="curve" smooth="yes"/>
      <point x="440" y="249"/>
      <point x="442" y="247"/>
      <point x="445" y="247" type="curve" smooth="yes"/>
      <point x="448" y="247"/>
      <point x="450" y="249"/>
      <point x="450" y="252" type="curve" smooth="yes"/>
      <point x="450" y="255"/>
      <point x="448" y="258"/>
    </contour>
    <contour>
      <point x="445" y="308" type="curve" smooth="yes"/>
      <point x="442" y="308"/>
      <point x="439" y="305"/>
      <point x="439" y="301" type="curve" smooth="yes"/>
      <point x="439" y="298"/>
      <point x="442" y="295"/>
      <point x="445" y="295" type="curve" smooth="yes"/>
      <point x="448" y="295"/>
      <point x="451" y="298"/>
      <point x="451" y="301" type="curve" smooth="yes"/>
      <point x="451" y="305"/>
      <point x="448" y="308"/>
    </contour>
    <contour>
      <point x="396" y="-41" type="curve" smooth="yes"/>
      <point x="395" y="-41"/>
      <point x="395" y="-42"/>
      <point x="395" y="-42" type="curve" smooth="yes"/>
      <point x="395" y="-43"/>
      <point x="395" y="-43"/>
      <point x="396" y="-43" type="curve" smooth="yes"/>
      <point x="396" y="-43"/>
      <point x="397" y="-43"/>
      <point x="397" y="-42" type="curve" smooth="yes"/>
      <point x="397" y="-42"/>
      <point x="396" y="-41"/>
    </contour>
    <contour>
      <point x="396" y="9" type="curve" smooth="yes"/>
      <point x="395" y="9"/>
      <point x="394" y="8"/>
      <point x="394" y="7" type="curve" smooth="yes"/>
      <point x="394" y="6"/>
      <point x="395" y="5"/>
      <point x="396" y="5" type="curve" smooth="yes"/>
      <point x="397" y="5"/>
      <point x="397" y="6"/>
      <point x="397" y="7" type="curve" smooth="yes"/>
      <point x="397" y="8"/>
      <point x="397" y="9"/>
    </contour>
    <contour>
      <point x="396" y="258" type="curve" smooth="yes"/>
      <point x="393" y="258"/>
      <point x="390" y="255"/>
      <point x="390" y="252" type="curve" smooth="yes"/>
      <point x="390" y="249"/>
      <point x="393" y="247"/>
      <point x="396" y="247" type="curve" smooth="yes"/>
      <point x="399" y="247"/>
      <point x="401" y="249"/>
      <point x="401" y="252" type="curve" smooth="yes"/>
      <point x="401" y="255"/>
      <point x="399" y="258"/>
    </contour>
    <contour>
      <point x="396" y="308" type="curve" smooth="yes"/>
      <point x="392" y="308"/>
      <point x="389" y="305"/>
      <point x="389" y="301" type="curve" smooth="yes"/>
      <point x="389" y="298"/>
      <point x="392" y="295"/>
      <point x="396" y="295" type="curve" smooth="yes"/>
      <point x="399" y="295"/>
      <point x="402" y="298"/>
      <point x="402" y="301" type="curve" smooth="yes"/>
      <point x="402" y="305"/>
      <point x="399" y="308"/>
    </contour>
    <contour>
      <point x="346" y="-41" type="curve" smooth="yes"/>
      <point x="346" y="-41"/>
      <point x="345" y="-42"/>
      <point x="345" y="-42" type="curve" smooth="yes"/>
      <point x="345" y="-43"/>
      <point x="346" y="-43"/>
      <point x="346" y="-43" type="curve" smooth="yes"/>
      <point x="347" y="-43"/>
      <point x="347" y="-43"/>
      <point x="347" y="-42" type="curve" smooth="yes"/>
      <point x="347" y="-42"/>
      <point x="347" y="-41"/>
    </contour>
    <contour>
      <point x="346" y="9" type="curve" smooth="yes"/>
      <point x="345" y="9"/>
      <point x="344" y="8"/>
      <point x="344" y="7" type="curve" smooth="yes"/>
      <point x="344" y="6"/>
      <point x="345" y="5"/>
      <point x="346" y="5" type="curve" smooth="yes"/>
      <point x="347" y="5"/>
      <point x="348" y="6"/>
      <point x="348" y="7" type="curve" smooth="yes"/>
      <point x="348" y="8"/>
      <point x="347" y="9"/>
    </contour>
    <contour>
      <point x="346" y="59" type="curve" smooth="yes"/>
      <point x="345" y="59"/>
      <point x="344" y="57"/>
      <point x="344" y="56" type="curve" smooth="yes"/>
      <point x="344" y="55"/>
      <point x="345" y="53"/>
      <point x="346" y="53" type="curve" smooth="yes"/>
      <point x="348" y="53"/>
      <point x="349" y="55"/>
      <point x="349" y="56" type="curve" smooth="yes"/>
      <point x="349" y="57"/>
      <point x="348" y="59"/>
    </contour>
    <contour>
      <point x="346" y="108" type="curve" smooth="yes"/>
      <point x="344" y="108"/>
      <point x="343" y="107"/>
      <point x="343" y="105" type="curve" smooth="yes"/>
      <point x="343" y="103"/>
      <point x="344" y="102"/>
      <point x="346" y="102" type="curve" smooth="yes"/>
      <point x="348" y="102"/>
      <point x="349" y="103"/>
      <point x="349" y="105" type="curve" smooth="yes"/>
      <point x="349" y="107"/>
      <point x="348" y="108"/>
    </contour>
    <contour>
      <point x="297" y="-41" type="curve" smooth="yes"/>
      <point x="296" y="-41"/>
      <point x="296" y="-42"/>
      <point x="296" y="-42" type="curve" smooth="yes"/>
      <point x="296" y="-43"/>
      <point x="296" y="-43"/>
      <point x="297" y="-43" type="curve" smooth="yes"/>
      <point x="297" y="-43"/>
      <point x="298" y="-43"/>
      <point x="298" y="-42" type="curve" smooth="yes"/>
      <point x="298" y="-42"/>
      <point x="297" y="-41"/>
    </contour>
    <contour>
      <point x="297" y="9" type="curve" smooth="yes"/>
      <point x="296" y="9"/>
      <point x="295" y="8"/>
      <point x="295" y="7" type="curve" smooth="yes"/>
      <point x="295" y="6"/>
      <point x="296" y="5"/>
      <point x="297" y="5" type="curve" smooth="yes"/>
      <point x="298" y="5"/>
      <point x="299" y="6"/>
      <point x="299" y="7" type="curve" smooth="yes"/>
      <point x="299" y="8"/>
      <point x="298" y="9"/>
    </contour>
    <contour>
      <point x="297" y="59" type="curve" smooth="yes"/>
      <point x="295" y="59"/>
      <point x="294" y="57"/>
      <point x="294" y="56" type="curve" smooth="yes"/>
      <point x="294" y="55"/>
      <point x="295" y="53"/>
      <point x="297" y="53" type="curve" smooth="yes"/>
      <point x="298" y="53"/>
      <point x="299" y="55"/>
      <point x="299" y="56" type="curve" smooth="yes"/>
      <point x="299" y="57"/>
      <point x="298" y="59"/>
    </contour>
    <contour>
      <point x="297" y="108" type="curve" smooth="yes"/>
      <point x="295" y="108"/>
      <point x="294" y="107"/>
      <point x="294" y="105" type="curve" smooth="yes"/>
      <point x="294" y="103"/>
      <point x="295" y="102"/>
      <point x="297" y="102" type="curve" smooth="yes"/>
      <point x="299" y="102"/>
      <point x="300" y="103"/>
      <point x="300" y="105" type="curve" smooth="yes"/>
      <point x="300" y="107"/>
      <point x="299" y="108"/>
    </contour>
    <contour>
      <point x="297" y="208" type="curve" smooth="yes"/>
      <point x="294" y="208"/>
      <point x="292" y="206"/>
      <point x="292" y="203" type="curve" smooth="yes"/>
      <point x="292" y="201"/>
      <point x="294" y="199"/>
      <point x="297" y="199" type="curve" smooth="yes"/>
      <point x="299" y="199"/>
      <point x="302" y="201"/>
      <point x="302" y="203" type="curve" smooth="yes"/>
      <point x="302" y="206"/>
      <point x="299" y="208"/>
    </contour>
    <contour>
      <point x="297" y="258" type="curve" smooth="yes"/>
      <point x="294" y="258"/>
      <point x="291" y="255"/>
      <point x="291" y="252" type="curve" smooth="yes"/>
      <point x="291" y="249"/>
      <point x="294" y="247"/>
      <point x="297" y="247" type="curve" smooth="yes"/>
      <point x="300" y="247"/>
      <point x="302" y="249"/>
      <point x="302" y="252" type="curve" smooth="yes"/>
      <point x="302" y="255"/>
      <point x="300" y="258"/>
    </contour>
    <contour>
      <point x="247" y="-41" type="curve" smooth="yes"/>
      <point x="247" y="-41"/>
      <point x="246" y="-42"/>
      <point x="246" y="-42" type="curve" smooth="yes"/>
      <point x="246" y="-43"/>
      <point x="247" y="-43"/>
      <point x="247" y="-43" type="curve" smooth="yes"/>
      <point x="248" y="-43"/>
      <point x="249" y="-43"/>
      <point x="249" y="-42" type="curve" smooth="yes"/>
      <point x="249" y="-42"/>
      <point x="248" y="-41"/>
    </contour>
    <contour>
      <point x="247" y="9" type="curve" smooth="yes"/>
      <point x="246" y="9"/>
      <point x="246" y="8"/>
      <point x="246" y="7" type="curve" smooth="yes"/>
      <point x="246" y="6"/>
      <point x="246" y="5"/>
      <point x="247" y="5" type="curve" smooth="yes"/>
      <point x="248" y="5"/>
      <point x="249" y="6"/>
      <point x="249" y="7" type="curve" smooth="yes"/>
      <point x="249" y="8"/>
      <point x="248" y="9"/>
    </contour>
    <contour>
      <point x="247" y="59" type="curve" smooth="yes"/>
      <point x="246" y="59"/>
      <point x="245" y="57"/>
      <point x="245" y="56" type="curve" smooth="yes"/>
      <point x="245" y="55"/>
      <point x="246" y="53"/>
      <point x="247" y="53" type="curve" smooth="yes"/>
      <point x="249" y="53"/>
      <point x="250" y="55"/>
      <point x="250" y="56" type="curve" smooth="yes"/>
      <point x="250" y="57"/>
      <point x="249" y="59"/>
    </contour>
    <contour>
      <point x="247" y="108" type="curve" smooth="yes"/>
      <point x="246" y="108"/>
      <point x="244" y="107"/>
      <point x="244" y="105" type="curve" smooth="yes"/>
      <point x="244" y="103"/>
      <point x="246" y="102"/>
      <point x="247" y="102" type="curve" smooth="yes"/>
      <point x="249" y="102"/>
      <point x="251" y="103"/>
      <point x="251" y="105" type="curve" smooth="yes"/>
      <point x="251" y="107"/>
      <point x="249" y="108"/>
    </contour>
    <contour>
      <point x="247" y="208" type="curve" smooth="yes"/>
      <point x="245" y="208"/>
      <point x="243" y="206"/>
      <point x="243" y="203" type="curve" smooth="yes"/>
      <point x="243" y="201"/>
      <point x="245" y="199"/>
      <point x="247" y="199" type="curve" smooth="yes"/>
      <point x="250" y="199"/>
      <point x="252" y="201"/>
      <point x="252" y="203" type="curve" smooth="yes"/>
      <point x="252" y="206"/>
      <point x="250" y="208"/>
    </contour>
    <contour>
      <point x="247" y="258" type="curve" smooth="yes"/>
      <point x="244" y="258"/>
      <point x="242" y="255"/>
      <point x="242" y="252" type="curve" smooth="yes"/>
      <point x="242" y="249"/>
      <point x="244" y="247"/>
      <point x="247" y="247" type="curve" smooth="yes"/>
      <point x="250" y="247"/>
      <point x="253" y="249"/>
      <point x="253" y="252" type="curve" smooth="yes"/>
      <point x="253" y="255"/>
      <point x="250" y="258"/>
    </contour>
    <contour>
      <point x="247" y="308" type="curve" smooth="yes"/>
      <point x="244" y="308"/>
      <point x="241" y="305"/>
      <point x="241" y="301" type="curve" smooth="yes"/>
      <point x="241" y="298"/>
      <point x="244" y="295"/>
      <point x="247" y="295" type="curve" smooth="yes"/>
      <point x="251" y="295"/>
      <point x="254" y="298"/>
      <point x="254" y="301" type="curve" smooth="yes"/>
      <point x="254" y="305"/>
      <point x="251" y="308"/>
    </contour>
    <contour>
      <point x="198" y="-41" type="curve" smooth="yes"/>
      <point x="197" y="-41"/>
      <point x="197" y="-42"/>
      <point x="197" y="-42" type="curve" smooth="yes"/>
      <point x="197" y="-43"/>
      <point x="197" y="-43"/>
      <point x="198" y="-43" type="curve" smooth="yes"/>
      <point x="199" y="-43"/>
      <point x="199" y="-43"/>
      <point x="199" y="-42" type="curve" smooth="yes"/>
      <point x="199" y="-42"/>
      <point x="199" y="-41"/>
    </contour>
    <contour>
      <point x="198" y="9" type="curve" smooth="yes"/>
      <point x="197" y="9"/>
      <point x="196" y="8"/>
      <point x="196" y="7" type="curve" smooth="yes"/>
      <point x="196" y="6"/>
      <point x="197" y="5"/>
      <point x="198" y="5" type="curve" smooth="yes"/>
      <point x="199" y="5"/>
      <point x="200" y="6"/>
      <point x="200" y="7" type="curve" smooth="yes"/>
      <point x="200" y="8"/>
      <point x="199" y="9"/>
    </contour>
    <contour>
      <point x="198" y="59" type="curve" smooth="yes"/>
      <point x="197" y="59"/>
      <point x="195" y="57"/>
      <point x="195" y="56" type="curve" smooth="yes"/>
      <point x="195" y="55"/>
      <point x="197" y="53"/>
      <point x="198" y="53" type="curve" smooth="yes"/>
      <point x="199" y="53"/>
      <point x="201" y="55"/>
      <point x="201" y="56" type="curve" smooth="yes"/>
      <point x="201" y="57"/>
      <point x="199" y="59"/>
    </contour>
    <contour>
      <point x="198" y="108" type="curve" smooth="yes"/>
      <point x="196" y="108"/>
      <point x="195" y="107"/>
      <point x="195" y="105" type="curve" smooth="yes"/>
      <point x="195" y="103"/>
      <point x="196" y="102"/>
      <point x="198" y="102" type="curve" smooth="yes"/>
      <point x="200" y="102"/>
      <point x="201" y="103"/>
      <point x="201" y="105" type="curve" smooth="yes"/>
      <point x="201" y="107"/>
      <point x="200" y="108"/>
    </contour>
    <contour>
      <point x="198" y="208" type="curve" smooth="yes"/>
      <point x="195" y="208"/>
      <point x="193" y="206"/>
      <point x="193" y="203" type="curve" smooth="yes"/>
      <point x="193" y="201"/>
      <point x="195" y="199"/>
      <point x="198" y="199" type="curve" smooth="yes"/>
      <point x="201" y="199"/>
      <point x="203" y="201"/>
      <point x="203" y="203" type="curve" smooth="yes"/>
      <point x="203" y="206"/>
      <point x="201" y="208"/>
    </contour>
    <contour>
      <point x="198" y="258" type="curve" smooth="yes"/>
      <point x="195" y="258"/>
      <point x="193" y="255"/>
      <point x="193" y="252" type="curve" smooth="yes"/>
      <point x="193" y="249"/>
      <point x="195" y="247"/>
      <point x="198" y="247" type="curve" smooth="yes"/>
      <point x="201" y="247"/>
      <point x="203" y="249"/>
      <point x="203" y="252" type="curve" smooth="yes"/>
      <point x="203" y="255"/>
      <point x="201" y="258"/>
    </contour>
    <contour>
      <point x="149" y="-41" type="curve" smooth="yes"/>
      <point x="148" y="-41"/>
      <point x="147" y="-42"/>
      <point x="147" y="-42" type="curve" smooth="yes"/>
      <point x="147" y="-43"/>
      <point x="148" y="-43"/>
      <point x="149" y="-43" type="curve" smooth="yes"/>
      <point x="149" y="-43"/>
      <point x="150" y="-43"/>
      <point x="150" y="-42" type="curve" smooth="yes"/>
      <point x="150" y="-42"/>
      <point x="149" y="-41"/>
    </contour>
    <contour>
      <point x="149" y="9" type="curve" smooth="yes"/>
      <point x="148" y="9"/>
      <point x="147" y="8"/>
      <point x="147" y="7" type="curve" smooth="yes"/>
      <point x="147" y="6"/>
      <point x="148" y="5"/>
      <point x="149" y="5" type="curve" smooth="yes"/>
      <point x="150" y="5"/>
      <point x="150" y="6"/>
      <point x="150" y="7" type="curve" smooth="yes"/>
      <point x="150" y="8"/>
      <point x="150" y="9"/>
    </contour>
    <contour>
      <point x="149" y="59" type="curve" smooth="yes"/>
      <point x="147" y="59"/>
      <point x="146" y="57"/>
      <point x="146" y="56" type="curve" smooth="yes"/>
      <point x="146" y="55"/>
      <point x="147" y="53"/>
      <point x="149" y="53" type="curve" smooth="yes"/>
      <point x="150" y="53"/>
      <point x="151" y="55"/>
      <point x="151" y="56" type="curve" smooth="yes"/>
      <point x="151" y="57"/>
      <point x="150" y="59"/>
    </contour>
    <contour>
      <point x="149" y="108" type="curve" smooth="yes"/>
      <point x="147" y="108"/>
      <point x="145" y="107"/>
      <point x="145" y="105" type="curve" smooth="yes"/>
      <point x="145" y="103"/>
      <point x="147" y="102"/>
      <point x="149" y="102" type="curve" smooth="yes"/>
      <point x="150" y="102"/>
      <point x="152" y="103"/>
      <point x="152" y="105" type="curve" smooth="yes"/>
      <point x="152" y="107"/>
      <point x="150" y="108"/>
    </contour>
    <contour>
      <point x="99" y="-41" type="curve" smooth="yes"/>
      <point x="99" y="-41"/>
      <point x="98" y="-42"/>
      <point x="98" y="-42" type="curve" smooth="yes"/>
      <point x="98" y="-43"/>
      <point x="99" y="-43"/>
      <point x="99" y="-43" type="curve" smooth="yes"/>
      <point x="100" y="-43"/>
      <point x="100" y="-43"/>
      <point x="100" y="-42" type="curve" smooth="yes"/>
      <point x="100" y="-42"/>
      <point x="100" y="-41"/>
    </contour>
    <contour>
      <point x="99" y="9" type="curve" smooth="yes"/>
      <point x="98" y="9"/>
      <point x="97" y="8"/>
      <point x="97" y="7" type="curve" smooth="yes"/>
      <point x="97" y="6"/>
      <point x="98" y="5"/>
      <point x="99" y="5" type="curve" smooth="yes"/>
      <point x="100" y="5"/>
      <point x="101" y="6"/>
      <point x="101" y="7" type="curve" smooth="yes"/>
      <point x="101" y="8"/>
      <point x="100" y="9"/>
    </contour>
    <contour>
      <point x="99" y="258" type="curve" smooth="yes"/>
      <point x="96" y="258"/>
      <point x="94" y="255"/>
      <point x="94" y="252" type="curve" smooth="yes"/>
      <point x="94" y="249"/>
      <point x="96" y="247"/>
      <point x="99" y="247" type="curve" smooth="yes"/>
      <point x="102" y="247"/>
      <point x="105" y="249"/>
      <point x="105" y="252" type="curve" smooth="yes"/>
      <point x="105" y="255"/>
      <point x="102" y="258"/>
    </contour>
    <contour>
      <point x="99" y="308" type="curve" smooth="yes"/>
      <point x="96" y="308"/>
      <point x="93" y="305"/>
      <point x="93" y="301" type="curve" smooth="yes"/>
      <point x="93" y="298"/>
      <point x="96" y="295"/>
      <point x="99" y="295" type="curve" smooth="yes"/>
      <point x="103" y="295"/>
      <point x="105" y="298"/>
      <point x="105" y="301" type="curve" smooth="yes"/>
      <point x="105" y="305"/>
      <point x="103" y="308"/>
    </contour>
    <contour>
      <point x="50" y="-41" type="curve" smooth="yes"/>
      <point x="49" y="-41"/>
      <point x="49" y="-42"/>
      <point x="49" y="-42" type="curve" smooth="yes"/>
      <point x="49" y="-43"/>
      <point x="49" y="-43"/>
      <point x="50" y="-43" type="curve" smooth="yes"/>
      <point x="50" y="-43"/>
      <point x="51" y="-43"/>
      <point x="51" y="-42" type="curve" smooth="yes"/>
      <point x="51" y="-42"/>
      <point x="50" y="-41"/>
    </contour>
    <contour>
      <point x="50" y="158" type="curve" smooth="yes"/>
      <point x="48" y="158"/>
      <point x="46" y="156"/>
      <point x="46" y="154" type="curve" smooth="yes"/>
      <point x="46" y="152"/>
      <point x="48" y="150"/>
      <point x="50" y="150" type="curve" smooth="yes"/>
      <point x="52" y="150"/>
      <point x="54" y="152"/>
      <point x="54" y="154" type="curve" smooth="yes"/>
      <point x="54" y="156"/>
      <point x="52" y="158"/>
    </contour>
    <contour>
      <point x="50" y="208" type="curve" smooth="yes"/>
      <point x="47" y="208"/>
      <point x="45" y="206"/>
      <point x="45" y="203" type="curve" smooth="yes"/>
      <point x="45" y="201"/>
      <point x="47" y="199"/>
      <point x="50" y="199" type="curve" smooth="yes"/>
      <point x="52" y="199"/>
      <point x="55" y="201"/>
      <point x="55" y="203" type="curve" smooth="yes"/>
      <point x="55" y="206"/>
      <point x="52" y="208"/>
    </contour>
    <contour>
      <point x="50" y="258" type="curve" smooth="yes"/>
      <point x="47" y="258"/>
      <point x="44" y="255"/>
      <point x="44" y="252" type="curve" smooth="yes"/>
      <point x="44" y="249"/>
      <point x="47" y="247"/>
      <point x="50" y="247" type="curve" smooth="yes"/>
      <point x="53" y="247"/>
      <point x="55" y="249"/>
      <point x="55" y="252" type="curve" smooth="yes"/>
      <point x="55" y="255"/>
      <point x="53" y="258"/>
    </contour>
    <contour>
      <point x="50" y="308" type="curve" smooth="yes"/>
      <point x="46" y="308"/>
      <point x="44" y="305"/>
      <point x="44" y="301" type="curve" smooth="yes"/>
      <point x="44" y="298"/>
      <point x="46" y="295"/>
      <point x="50" y="295" type="curve" smooth="yes"/>
      <point x="53" y="295"/>
      <point x="56" y="298"/>
      <point x="56" y="301" type="curve" smooth="yes"/>
      <point x="56" y="305"/>
      <point x="53" y="308"/>
    </contour>
    <contour>
      <point x="241" y="506" type="line"/>
      <point x="180" y="355" type="line"/>
      <point x="0" y="355" type="line"/>
      <point x="-2" y="355"/>
      <point x="-4" y="353"/>
      <point x="-4" y="351" type="curve" smooth="yes"/>
      <point x="-4" y="348"/>
      <point x="-2" y="347"/>
      <point x="0" y="347" type="curve"/>
      <point x="274" y="347" type="line"/>
      <point x="271" y="355" type="line"/>
      <point x="200" y="355" type="line"/>
      <point x="249" y="475" type="line"/>
      <point x="252" y="475" type="line"/>
      <point x="372" y="161" type="line"/>
      <point x="121" y="161" type="line"/>
      <point x="184" y="316" type="line"/>
      <point x="164" y="316" type="line"/>
      <point x="34" y="0" type="line"/>
      <point x="57" y="0" type="line"/>
      <point x="69" y="36" type="line"/>
      <point x="113" y="141" type="line"/>
      <point x="379" y="141" type="line"/>
      <point x="419" y="36" type="line"/>
      <point x="429" y="0" type="line"/>
      <point x="452" y="0" type="line"/>
      <point x="262" y="506" type="line"/>
    </contour>
    <contour>
      <point x="494" y="355" type="curve"/>
      <point x="346" y="355" type="line"/>
      <point x="349" y="347" type="line"/>
      <point x="494" y="347" type="line"/>
      <point x="497" y="347"/>
      <point x="498" y="348"/>
      <point x="498" y="351" type="curve" smooth="yes"/>
      <point x="498" y="353"/>
      <point x="497" y="355"/>
    </contour>
  </outline>
</glyph>
<glyph name="a.3" format="1">
  <advance width="494"/>
  <outline>
    <contour>
      <point x="494" y="-41" type="curve" smooth="yes"/>
      <point x="494" y="-41"/>
      <point x="493" y="-42"/>
      <point x="493" y="-42" type="curve" smooth="yes"/>
      <point x="493" y="-43"/>
      <point x="494" y="-43"/>
      <point x="494" y="-43" type="curve" smooth="yes"/>
      <point x="495" y="-43"/>
      <point x="496" y="-43"/>
      <point x="496" y="-42" type="curve" smooth="yes"/>
      <point x="496" y="-42"/>
      <point x="495" y="-41"/>
    </contour>
    <contour>
      <point x="494" y="9" type="curve" smooth="yes"/>
      <point x="493" y="9"/>
      <point x="493" y="8"/>
      <point x="493" y="7" type="curve" smooth="yes"/>
      <point x="493" y="6"/>
      <point x="493" y="5"/>
      <point x="494" y="5" type="curve" smooth="yes"/>
      <point x="495" y="5"/>
      <point x="496" y="6"/>
      <point x="496" y="7" type="curve" smooth="yes"/>
      <point x="496" y="8"/>
      <point x="495" y="9"/>
    </contour>
    <contour>
      <point x="494" y="59" type="curve" smooth="yes"/>
      <point x="493" y="59"/>
      <point x="492" y="57"/>
      <point x="492" y="56" type="curve" smooth="yes"/>
      <point x="492" y="55"/>
      <point x="493" y="53"/>
      <point x="494" y="53" type="curve" smooth="yes"/>
      <point x="496" y="53"/>
      <point x="497" y="55"/>
      <point x="497" y="56" type="curve" smooth="yes"/>
      <point x="497" y="57"/>
      <point x="496" y="59"/>
    </contour>
    <contour>
      <point x="494" y="108" type="curve" smooth="yes"/>
      <point x="493" y="108"/>
      <point x="491" y="107"/>
      <point x="491" y="105" type="curve" smooth="yes"/>
      <point x="491" y="103"/>
      <point x="493" y="102"/>
      <point x="494" y="102" type="curve" smooth="yes"/>
      <point x="496" y="102"/>
      <point x="498" y="103"/>
      <point x="498" y="105" type="curve" smooth="yes"/>
      <point x="498" y="107"/>
      <point x="496" y="108"/>
    </contour>
    <contour>
      <point x="494" y="158" type="curve" smooth="yes"/>
      <point x="492" y="158"/>
      <point x="490" y="156"/>
      <point x="490" y="154" type="curve" smooth="yes"/>
      <point x="490" y="152"/>
      <point x="492" y="150"/>
      <point x="494" y="150" type="curve" smooth="yes"/>
      <point x="497" y="150"/>
      <point x="498" y="152"/>
      <point x="498" y="154" type="curve" smooth="yes"/>
      <point x="498" y="156"/>
      <point x="497" y="158"/>
    </contour>
    <contour>
      <point x="494" y="208" type="curve" smooth="yes"/>
      <point x="492" y="208"/>
      <point x="490" y="206"/>
      <point x="490" y="203" type="curve" smooth="yes"/>
      <point x="490" y="201"/>
      <point x="492" y="199"/>
      <point x="494" y="199" type="curve" smooth="yes"/>
      <point x="497" y="199"/>
      <point x="499" y="201"/>
      <point x="499" y="203" type="curve" smooth="yes"/>
      <point x="499" y="206"/>
      <point x="497" y="208"/>
    </contour>
    <contour>
      <point x="494" y="258" type="curve" smooth="yes"/>
      <point x="491" y="258"/>
      <point x="489" y="255"/>
      <point x="489" y="252" type="curve" smooth="yes"/>
      <point x="489" y="249"/>
      <point x="491" y="247"/>
      <point x="494" y="247" type="curve" smooth="yes"/>
      <point x="497" y="247"/>
      <point x="500" y="249"/>
      <point x="500" y="252" type="curve" smooth="yes"/>
      <point x="500" y="255"/>
      <point x="497" y="258"/>
    </contour>
    <contour>
      <point x="494" y="308" type="curve" smooth="yes"/>
      <point x="491" y="308"/>
      <point x="488" y="305"/>
      <point x="488" y="301" type="curve" smooth="yes"/>
      <point x="488" y="298"/>
      <point x="491" y="295"/>
      <point x="494" y="295" type="curve" smooth="yes"/>
      <point x="498" y="295"/>
      <point x="501" y="298"/>
      <point x="501" y="301" type="curve" smooth="yes"/>
      <point x="501" y="305"/>
      <point x="498" y="308"/>
    </contour>
    <contour>
      <point x="494" y="357" type="curve" smooth="yes"/>
      <point x="491" y="357"/>
      <point x="488" y="354"/>
      <point x="488" y="351" type="curve" smooth="yes"/>
      <point x="488" y="347"/>
      <point x="491" y="344"/>
      <point x="494" y="344" type="curve" smooth="yes"/>
      <point x="498" y="344"/>
      <point x="501" y="347"/>
      <point x="501" y="351" type="curve" smooth="yes"/>
      <point x="501" y="354"/>
      <point x="498" y="357"/>
    </contour>
    <contour>
      <point x="494" y="407" type="curve" smooth="yes"/>
      <point x="490" y="407"/>
      <point x="487" y="404"/>
      <point x="487" y="400" type="curve" smooth="yes"/>
      <point x="487" y="395"/>
      <point x="490" y="392"/>
      <point x="494" y="392" type="curve" smooth="yes"/>
      <point x="499" y="392"/>
      <point x="502" y="395"/>
      <point x="502" y="400" type="curve" smooth="yes"/>
      <point x="502" y="404"/>
      <point x="499" y="407"/>
    </contour>
    <contour>
      <point x="494" y="457" type="curve" smooth="yes"/>
      <point x="490" y="457"/>
      <point x="486" y="453"/>
      <point x="486" y="449" type="curve" smooth="yes"/>
      <point x="486" y="444"/>
      <point x="490" y="440"/>
      <point x="494" y="440" type="curve" smooth="yes"/>
      <point x="499" y="440"/>
      <point x="503" y="444"/>
      <point x="503" y="449" type="curve" smooth="yes"/>
      <point x="503" y="453"/>
      <point x="499" y="457"/>
    </contour>
    <contour>
      <point x="494" y="507" type="curve" smooth="yes"/>
      <point x="489" y="507"/>
      <point x="485" y="503"/>
      <point x="485" y="498" type="curve" smooth="yes"/>
      <point x="485" y="493"/>
      <point x="489" y="489"/>
      <point x="494" y="489" type="curve" smooth="yes"/>
      <point x="499" y="489"/>
      <point x="503" y="493"/>
      <point x="503" y="498" type="curve" smooth="yes"/>
      <point x="503" y="503"/>
      <point x="499" y="507"/>
    </contour>
    <contour>
      <point x="445" y="-41" type="curve" smooth="yes"/>
      <point x="444" y="-41"/>
      <point x="444" y="-42"/>
      <point x="444" y="-42" type="curve" smooth="yes"/>
      <point x="444" y="-43"/>
      <point x="444" y="-43"/>
      <point x="445" y="-43" type="curve" smooth="yes"/>
      <point x="446" y="-43"/>
      <point x="446" y="-43"/>
      <point x="446" y="-42" type="curve" smooth="yes"/>
      <point x="446" y="-42"/>
      <point x="446" y="-41"/>
    </contour>
    <contour>
      <point x="445" y="158" type="curve" smooth="yes"/>
      <point x="443" y="158"/>
      <point x="441" y="156"/>
      <point x="441" y="154" type="curve" smooth="yes"/>
      <point x="441" y="152"/>
      <point x="443" y="150"/>
      <point x="445" y="150" type="curve" smooth="yes"/>
      <point x="447" y="150"/>
      <point x="449" y="152"/>
      <point x="449" y="154" type="curve" smooth="yes"/>
      <point x="449" y="156"/>
      <point x="447" y="158"/>
    </contour>
    <contour>
      <point x="445" y="208" type="curve" smooth="yes"/>
      <point x="442" y="208"/>
      <point x="440" y="206"/>
      <point x="440" y="203" type="curve" smooth="yes"/>
      <point x="440" y="201"/>
      <point x="442" y="199"/>
      <point x="445" y="199" type="curve" smooth="yes"/>
      <point x="448" y="199"/>
      <point x="450" y="201"/>
      <point x="450" y="203" type="curve" smooth="yes"/>
      <point x="450" y="206"/>
      <point x="448" y="208"/>
    </contour>
    <contour>
      <point x="445" y="258" type="curve" smooth="yes"/>
      <point x="442" y="258"/>
      <point x="440" y="255"/>
      <point x="440" y="252" type="curve" smooth="yes"/>
      <point x="440" y="249"/>
      <point x="442" y="247"/>
      <point x="445" y="247" type="curve" smooth="yes"/>
      <point x="448" y="247"/>
      <point x="450" y="249"/>
      <point x="450" y="252" type="curve" smooth="yes"/>
      <point x="450" y="255"/>
      <point x="448" y="258"/>
    </contour>
    <contour>
      <point x="445" y="308" type="curve" smooth="yes"/>
      <point x="442" y="308"/>
      <point x="439" y="305"/>
      <point x="439" y="301" type="curve" smooth="yes"/>
      <point x="439" y="298"/>
      <point x="442" y="295"/>
      <point x="445" y="295" type="curve" smooth="yes"/>
      <point x="448" y="295"/>
      <point x="451" y="298"/>
      <point x="451" y="301" type="curve" smooth="yes"/>
      <point x="451" y="305"/>
      <point x="448" y="308"/>
    </contour>
    <contour>
      <point x="445" y="357" type="curve" smooth="yes"/>
      <point x="441" y="357"/>
      <point x="438" y="354"/>
      <point x="438" y="351" type="curve" smooth="yes"/>
      <point x="438" y="347"/>
      <point x="441" y="344"/>
      <point x="445" y="344" type="curve" smooth="yes"/>
      <point x="449" y="344"/>
      <point x="452" y="347"/>
      <point x="452" y="351" type="curve" smooth="yes"/>
      <point x="452" y="354"/>
      <point x="449" y="357"/>
    </contour>
    <contour>
      <point x="445" y="407" type="curve" smooth="yes"/>
      <point x="441" y="407"/>
      <point x="437" y="404"/>
      <point x="437" y="400" type="curve" smooth="yes"/>
      <point x="437" y="395"/>
      <point x="441" y="392"/>
      <point x="445" y="392" type="curve" smooth="yes"/>
      <point x="449" y="392"/>
      <point x="453" y="395"/>
      <point x="453" y="400" type="curve" smooth="yes"/>
      <point x="453" y="404"/>
      <point x="449" y="407"/>
    </contour>
    <contour>
      <point x="396" y="-41" type="curve" smooth="yes"/>
      <point x="395" y="-41"/>
      <point x="395" y="-42"/>
      <point x="395" y="-42" type="curve" smooth="yes"/>
      <point x="395" y="-43"/>
      <point x="395" y="-43"/>
      <point x="396" y="-43" type="curve" smooth="yes"/>
      <point x="396" y="-43"/>
      <point x="397" y="-43"/>
      <point x="397" y="-42" type="curve" smooth="yes"/>
      <point x="397" y="-42"/>
      <point x="396" y="-41"/>
    </contour>
    <contour>
      <point x="396" y="258" type="curve" smooth="yes"/>
      <point x="393" y="258"/>
      <point x="390" y="255"/>
      <point x="390" y="252" type="curve" smooth="yes"/>
      <point x="390" y="249"/>
      <point x="393" y="247"/>
      <point x="396" y="247" type="curve" smooth="yes"/>
      <point x="399" y="247"/>
      <point x="401" y="249"/>
      <point x="401" y="252" type="curve" smooth="yes"/>
      <point x="401" y="255"/>
      <point x="399" y="258"/>
    </contour>
    <contour>
      <point x="396" y="308" type="curve" smooth="yes"/>
      <point x="392" y="308"/>
      <point x="389" y="305"/>
      <point x="389" y="301" type="curve" smooth="yes"/>
      <point x="389" y="298"/>
      <point x="392" y="295"/>
      <point x="396" y="295" type="curve" smooth="yes"/>
      <point x="399" y="295"/>
      <point x="402" y="298"/>
      <point x="402" y="301" type="curve" smooth="yes"/>
      <point x="402" y="305"/>
      <point x="399" y="308"/>
    </contour>
    <contour>
      <point x="396" y="357" type="curve" smooth="yes"/>
      <point x="392" y="357"/>
      <point x="389" y="354"/>
      <point x="389" y="351" type="curve" smooth="yes"/>
      <point x="389" y="347"/>
      <point x="392" y="344"/>
      <point x="396" y="344" type="curve" smooth="yes"/>
      <point x="399" y="344"/>
      <point x="402" y="347"/>
      <point x="402" y="351" type="curve" smooth="yes"/>
      <point x="402" y="354"/>
      <point x="399" y="357"/>
    </contour>
    <contour>
      <point x="346" y="-41" type="curve" smooth="yes"/>
      <point x="346" y="-41"/>
      <point x="345" y="-42"/>
      <point x="345" y="-42" type="curve" smooth="yes"/>
      <point x="345" y="-43"/>
      <point x="346" y="-43"/>
      <point x="346" y="-43" type="curve" smooth="yes"/>
      <point x="347" y="-43"/>
      <point x="347" y="-43"/>
      <point x="347" y="-42" type="curve" smooth="yes"/>
      <point x="347" y="-42"/>
      <point x="347" y="-41"/>
    </contour>
    <contour>
      <point x="346" y="9" type="curve" smooth="yes"/>
      <point x="345" y="9"/>
      <point x="344" y="8"/>
      <point x="344" y="7" type="curve" smooth="yes"/>
      <point x="344" y="6"/>
      <point x="345" y="5"/>
      <point x="346" y="5" type="curve" smooth="yes"/>
      <point x="347" y="5"/>
      <point x="348" y="6"/>
      <point x="348" y="7" type="curve" smooth="yes"/>
      <point x="348" y="8"/>
      <point x="347" y="9"/>
    </contour>
    <contour>
      <point x="396" y="9" type="curve" smooth="yes"/>
      <point x="395" y="9"/>
      <point x="394" y="8"/>
      <point x="394" y="7" type="curve" smooth="yes"/>
      <point x="394" y="6"/>
      <point x="395" y="5"/>
      <point x="396" y="5" type="curve" smooth="yes"/>
      <point x="397" y="5"/>
      <point x="397" y="6"/>
      <point x="397" y="7" type="curve" smooth="yes"/>
      <point x="397" y="8"/>
      <point x="397" y="9"/>
    </contour>
    <contour>
      <point x="346" y="59" type="curve" smooth="yes"/>
      <point x="345" y="59"/>
      <point x="344" y="57"/>
      <point x="344" y="56" type="curve" smooth="yes"/>
      <point x="344" y="55"/>
      <point x="345" y="53"/>
      <point x="346" y="53" type="curve" smooth="yes"/>
      <point x="348" y="53"/>
      <point x="349" y="55"/>
      <point x="349" y="56" type="curve" smooth="yes"/>
      <point x="349" y="57"/>
      <point x="348" y="59"/>
    </contour>
    <contour>
      <point x="346" y="108" type="curve" smooth="yes"/>
      <point x="344" y="108"/>
      <point x="343" y="107"/>
      <point x="343" y="105" type="curve" smooth="yes"/>
      <point x="343" y="103"/>
      <point x="344" y="102"/>
      <point x="346" y="102" type="curve" smooth="yes"/>
      <point x="348" y="102"/>
      <point x="349" y="103"/>
      <point x="349" y="105" type="curve" smooth="yes"/>
      <point x="349" y="107"/>
      <point x="348" y="108"/>
    </contour>
    <contour>
      <point x="297" y="-41" type="curve" smooth="yes"/>
      <point x="296" y="-41"/>
      <point x="296" y="-42"/>
      <point x="296" y="-42" type="curve" smooth="yes"/>
      <point x="296" y="-43"/>
      <point x="296" y="-43"/>
      <point x="297" y="-43" type="curve" smooth="yes"/>
      <point x="297" y="-43"/>
      <point x="298" y="-43"/>
      <point x="298" y="-42" type="curve" smooth="yes"/>
      <point x="298" y="-42"/>
      <point x="297" y="-41"/>
    </contour>
    <contour>
      <point x="297" y="9" type="curve" smooth="yes"/>
      <point x="296" y="9"/>
      <point x="295" y="8"/>
      <point x="295" y="7" type="curve" smooth="yes"/>
      <point x="295" y="6"/>
      <point x="296" y="5"/>
      <point x="297" y="5" type="curve" smooth="yes"/>
      <point x="298" y="5"/>
      <point x="299" y="6"/>
      <point x="299" y="7" type="curve" smooth="yes"/>
      <point x="299" y="8"/>
      <point x="298" y="9"/>
    </contour>
    <contour>
      <point x="297" y="59" type="curve" smooth="yes"/>
      <point x="295" y="59"/>
      <point x="294" y="57"/>
      <point x="294" y="56" type="curve" smooth="yes"/>
      <point x="294" y="55"/>
      <point x="295" y="53"/>
      <point x="297" y="53" type="curve" smooth="yes"/>
      <point x="298" y="53"/>
      <point x="299" y="55"/>
      <point x="299" y="56" type="curve" smooth="yes"/>
      <point x="299" y="57"/>
      <point x="298" y="59"/>
    </contour>
    <contour>
      <point x="297" y="108" type="curve" smooth="yes"/>
      <point x="295" y="108"/>
      <point x="294" y="107"/>
      <point x="294" y="105" type="curve" smooth="yes"/>
      <point x="294" y="103"/>
      <point x="295" y="102"/>
      <point x="297" y="102" type="curve" smooth="yes"/>
      <point x="299" y="102"/>
      <point x="300" y="103"/>
      <point x="300" y="105" type="curve" smooth="yes"/>
      <point x="300" y="107"/>
      <point x="299" y="108"/>
    </contour>
    <contour>
      <point x="297" y="208" type="curve" smooth="yes"/>
      <point x="294" y="208"/>
      <point x="292" y="206"/>
      <point x="292" y="203" type="curve" smooth="yes"/>
      <point x="292" y="201"/>
      <point x="294" y="199"/>
      <point x="297" y="199" type="curve" smooth="yes"/>
      <point x="299" y="199"/>
      <point x="302" y="201"/>
      <point x="302" y="203" type="curve" smooth="yes"/>
      <point x="302" y="206"/>
      <point x="299" y="208"/>
    </contour>
    <contour>
      <point x="297" y="258" type="curve" smooth="yes"/>
      <point x="294" y="258"/>
      <point x="291" y="255"/>
      <point x="291" y="252" type="curve" smooth="yes"/>
      <point x="291" y="249"/>
      <point x="294" y="247"/>
      <point x="297" y="247" type="curve" smooth="yes"/>
      <point x="300" y="247"/>
      <point x="302" y="249"/>
      <point x="302" y="252" type="curve" smooth="yes"/>
      <point x="302" y="255"/>
      <point x="300" y="258"/>
    </contour>
    <contour>
      <point x="247" y="-41" type="curve" smooth="yes"/>
      <point x="247" y="-41"/>
      <point x="246" y="-42"/>
      <point x="246" y="-42" type="curve" smooth="yes"/>
      <point x="246" y="-43"/>
      <point x="247" y="-43"/>
      <point x="247" y="-43" type="curve" smooth="yes"/>
      <point x="248" y="-43"/>
      <point x="249" y="-43"/>
      <point x="249" y="-42" type="curve" smooth="yes"/>
      <point x="249" y="-42"/>
      <point x="248" y="-41"/>
    </contour>
    <contour>
      <point x="247" y="9" type="curve" smooth="yes"/>
      <point x="246" y="9"/>
      <point x="246" y="8"/>
      <point x="246" y="7" type="curve" smooth="yes"/>
      <point x="246" y="6"/>
      <point x="246" y="5"/>
      <point x="247" y="5" type="curve" smooth="yes"/>
      <point x="248" y="5"/>
      <point x="249" y="6"/>
      <point x="249" y="7" type="curve" smooth="yes"/>
      <point x="249" y="8"/>
      <point x="248" y="9"/>
    </contour>
    <contour>
      <point x="247" y="59" type="curve" smooth="yes"/>
      <point x="246" y="59"/>
      <point x="245" y="57"/>
      <point x="245" y="56" type="curve" smooth="yes"/>
      <point x="245" y="55"/>
      <point x="246" y="53"/>
      <point x="247" y="53" type="curve" smooth="yes"/>
      <point x="249" y="53"/>
      <point x="250" y="55"/>
      <point x="250" y="56" type="curve" smooth="yes"/>
      <point x="250" y="57"/>
      <point x="249" y="59"/>
    </contour>
    <contour>
      <point x="247" y="108" type="curve" smooth="yes"/>
      <point x="246" y="108"/>
      <point x="244" y="107"/>
      <point x="244" y="105" type="curve" smooth="yes"/>
      <point x="244" y="103"/>
      <point x="246" y="102"/>
      <point x="247" y="102" type="curve" smooth="yes"/>
      <point x="249" y="102"/>
      <point x="251" y="103"/>
      <point x="251" y="105" type="curve" smooth="yes"/>
      <point x="251" y="107"/>
      <point x="249" y="108"/>
    </contour>
    <contour>
      <point x="247" y="208" type="curve" smooth="yes"/>
      <point x="245" y="208"/>
      <point x="243" y="206"/>
      <point x="243" y="203" type="curve" smooth="yes"/>
      <point x="243" y="201"/>
      <point x="245" y="199"/>
      <point x="247" y="199" type="curve" smooth="yes"/>
      <point x="250" y="199"/>
      <point x="252" y="201"/>
      <point x="252" y="203" type="curve" smooth="yes"/>
      <point x="252" y="206"/>
      <point x="250" y="208"/>
    </contour>
    <contour>
      <point x="198" y="-41" type="curve" smooth="yes"/>
      <point x="197" y="-41"/>
      <point x="197" y="-42"/>
      <point x="197" y="-42" type="curve" smooth="yes"/>
      <point x="197" y="-43"/>
      <point x="197" y="-43"/>
      <point x="198" y="-43" type="curve" smooth="yes"/>
      <point x="199" y="-43"/>
      <point x="199" y="-43"/>
      <point x="199" y="-42" type="curve" smooth="yes"/>
      <point x="199" y="-42"/>
      <point x="199" y="-41"/>
    </contour>
    <contour>
      <point x="198" y="9" type="curve" smooth="yes"/>
      <point x="197" y="9"/>
      <point x="196" y="8"/>
      <point x="196" y="7" type="curve" smooth="yes"/>
      <point x="196" y="6"/>
      <point x="197" y="5"/>
      <point x="198" y="5" type="curve" smooth="yes"/>
      <point x="199" y="5"/>
      <point x="200" y="6"/>
      <point x="200" y="7" type="curve" smooth="yes"/>
      <point x="200" y="8"/>
      <point x="199" y="9"/>
    </contour>
    <contour>
      <point x="198" y="59" type="curve" smooth="yes"/>
      <point x="197" y="59"/>
      <point x="195" y="57"/>
      <point x="195" y="56" type="curve" smooth="yes"/>
      <point x="195" y="55"/>
      <point x="197" y="53"/>
      <point x="198" y="53" type="curve" smooth="yes"/>
      <point x="199" y="53"/>
      <point x="201" y="55"/>
      <point x="201" y="56" type="curve" smooth="yes"/>
      <point x="201" y="57"/>
      <point x="199" y="59"/>
    </contour>
    <contour>
      <point x="198" y="108" type="curve" smooth="yes"/>
      <point x="196" y="108"/>
      <point x="195" y="107"/>
      <point x="195" y="105" type="curve" smooth="yes"/>
      <point x="195" y="103"/>
      <point x="196" y="102"/>
      <point x="198" y="102" type="curve" smooth="yes"/>
      <point x="200" y="102"/>
      <point x="201" y="103"/>
      <point x="201" y="105" type="curve" smooth="yes"/>
      <point x="201" y="107"/>
      <point x="200" y="108"/>
    </contour>
    <contour>
      <point x="149" y="-41" type="curve" smooth="yes"/>
      <point x="148" y="-41"/>
      <point x="147" y="-42"/>
      <point x="147" y="-42" type="curve" smooth="yes"/>
      <point x="147" y="-43"/>
      <point x="148" y="-43"/>
      <point x="149" y="-43" type="curve" smooth="yes"/>
      <point x="149" y="-43"/>
      <point x="150" y="-43"/>
      <point x="150" y="-42" type="curve" smooth="yes"/>
      <point x="150" y="-42"/>
      <point x="149" y="-41"/>
    </contour>
    <contour>
      <point x="149" y="9" type="curve" smooth="yes"/>
      <point x="148" y="9"/>
      <point x="147" y="8"/>
      <point x="147" y="7" type="curve" smooth="yes"/>
      <point x="147" y="6"/>
      <point x="148" y="5"/>
      <point x="149" y="5" type="curve" smooth="yes"/>
      <point x="150" y="5"/>
      <point x="150" y="6"/>
      <point x="150" y="7" type="curve" smooth="yes"/>
      <point x="150" y="8"/>
      <point x="150" y="9"/>
    </contour>
    <contour>
      <point x="149" y="59" type="curve" smooth="yes"/>
      <point x="147" y="59"/>
      <point x="146" y="57"/>
      <point x="146" y="56" type="curve" smooth="yes"/>
      <point x="146" y="55"/>
      <point x="147" y="53"/>
      <point x="149" y="53" type="curve" smooth="yes"/>
      <point x="150" y="53"/>
      <point x="151" y="55"/>
      <point x="151" y="56" type="curve" smooth="yes"/>
      <point x="151" y="57"/>
      <point x="150" y="59"/>
    </contour>
    <contour>
      <point x="99" y="-41" type="curve" smooth="yes"/>
      <point x="99" y="-41"/>
      <point x="98" y="-42"/>
      <point x="98" y="-42" type="curve" smooth="yes"/>
      <point x="98" y="-43"/>
      <point x="99" y="-43"/>
      <point x="99" y="-43" type="curve" smooth="yes"/>
      <point x="100" y="-43"/>
      <point x="100" y="-43"/>
      <point x="100" y="-42" type="curve" smooth="yes"/>
      <point x="100" y="-42"/>
      <point x="100" y="-41"/>
    </contour>
    <contour>
      <point x="99" y="9" type="curve" smooth="yes"/>
      <point x="98" y="9"/>
      <point x="97" y="8"/>
      <point x="97" y="7" type="curve" smooth="yes"/>
      <point x="97" y="6"/>
      <point x="98" y="5"/>
      <point x="99" y="5" type="curve" smooth="yes"/>
      <point x="100" y="5"/>
      <point x="101" y="6"/>
      <point x="101" y="7" type="curve" smooth="yes"/>
      <point x="101" y="8"/>
      <point x="100" y="9"/>
    </contour>
    <contour>
      <point x="50" y="-41" type="curve" smooth="yes"/>
      <point x="49" y="-41"/>
      <point x="49" y="-42"/>
      <point x="49" y="-42" type="curve" smooth="yes"/>
      <point x="49" y="-43"/>
      <point x="49" y="-43"/>
      <point x="50" y="-43" type="curve" smooth="yes"/>
      <point x="50" y="-43"/>
      <point x="51" y="-43"/>
      <point x="51" y="-42" type="curve" smooth="yes"/>
      <point x="51" y="-42"/>
      <point x="50" y="-41"/>
    </contour>
    <contour>
      <point x="498" y="544" type="line"/>
      <point x="498" y="545"/>
      <point x="499" y="546"/>
      <point x="499" y="547" type="curve" smooth="yes"/>
      <point x="498" y="548"/>
      <point x="498" y="549"/>
      <point x="497" y="550" type="curve" smooth="yes"/>
      <point x="495" y="552"/>
      <point x="493" y="551"/>
      <point x="491" y="550" type="curve"/>
      <point x="322" y="348" type="line"/>
      <point x="262" y="506" type="line"/>
      <point x="241" y="506" type="line"/>
      <point x="57" y="59" type="line"/>
      <point x="36" y="7" type="line"/>
      <point x="-3" y="-40" type="line"/>
      <point x="-4" y="-41"/>
      <point x="-4" y="-44"/>
      <point x="-2" y="-45" type="curve" smooth="yes"/>
      <point x="-1" y="-46"/>
      <point x="-1" y="-46"/>
      <point x="0" y="-46" type="curve" smooth="yes"/>
      <point x="2" y="-46"/>
      <point x="3" y="-46"/>
      <point x="4" y="-45" type="curve"/>
      <point x="129" y="105" type="line"/>
      <point x="131" y="107"/>
      <point x="130" y="109"/>
      <point x="129" y="111" type="curve" smooth="yes"/>
      <point x="127" y="112"/>
      <point x="124" y="112"/>
      <point x="123" y="110" type="curve"/>
      <point x="72" y="50" type="line"/>
      <point x="83" y="73" type="line"/>
      <point x="113" y="144" type="line"/>
      <point x="379" y="144" type="line"/>
      <point x="419" y="36" type="line"/>
      <point x="429" y="0" type="line"/>
      <point x="452" y="0" type="line"/>
      <point x="338" y="306" type="line"/>
      <point x="324" y="289" type="line"/>
      <point x="372" y="163" type="line"/>
      <point x="178" y="163" type="line"/>
    </contour>
    <contour>
      <point x="121" y="163" type="line"/>
      <point x="249" y="475" type="line"/>
      <point x="252" y="475" type="line"/>
      <point x="308" y="331" type="line"/>
      <point x="167" y="163" type="line"/>
    </contour>
  </outline>
</glyph>
<glyph name="a.sups" format="1">
  <advance width="296"/>
  <outline>
    <contour>
      <point x="162" y="290" type="move" name="mark0"/>
    </contour>
    <contour>
      <point x="0" y="0" type="move" name="mark1"/>
    </contour>
    <contour>
      <point x="149" y="644" type="curve" smooth="yes"/>
      <point x="117" y="644"/>
      <point x="81" y="629"/>
      <point x="48" y="601" type="curve"/>
      <point x="52" y="586" type="line"/>
      <point x="56" y="585" type="line"/>
      <point x="88" y="611"/>
      <point x="120" y="625"/>
      <point x="147" y="625" type="curve" smooth="yes"/>
      <point x="188" y="625"/>
      <point x="210" y="604"/>
      <point x="210" y="566" type="curve"/>
      <point x="208" y="507" type="line"/>
      <point x="96" y="483" type="line" smooth="yes"/>
      <point x="61" y="475"/>
      <point x="40" y="453"/>
      <point x="40" y="420" type="curve" smooth="yes"/>
      <point x="40" y="374"/>
      <point x="68" y="347"/>
      <point x="117" y="347" type="curve"/>
      <point x="146" y="348"/>
      <point x="177" y="367"/>
      <point x="202" y="396" type="curve"/>
      <point x="204" y="396" type="line"/>
      <point x="205" y="361"/>
      <point x="218" y="348"/>
      <point x="242" y="348" type="curve" smooth="yes"/>
      <point x="254" y="348"/>
      <point x="265" y="351"/>
      <point x="274" y="357" type="curve"/>
      <point x="277" y="373" type="line"/>
      <point x="273" y="375" type="line"/>
      <point x="265" y="369"/>
      <point x="255" y="366"/>
      <point x="247" y="366" type="curve" smooth="yes"/>
      <point x="231" y="366"/>
      <point x="224" y="377"/>
      <point x="224" y="401" type="curve" smooth="yes"/>
      <point x="224" y="417"/>
      <point x="230" y="554"/>
      <point x="230" y="570" type="curve" smooth="yes"/>
      <point x="230" y="617"/>
      <point x="201" y="644"/>
    </contour>
    <contour>
      <point x="207" y="491" type="line"/>
      <point x="204" y="419" type="line"/>
      <point x="178" y="385"/>
      <point x="146" y="365"/>
      <point x="119" y="365" type="curve" smooth="yes"/>
      <point x="82" y="365"/>
      <point x="61" y="386"/>
      <point x="61" y="421" type="curve" smooth="yes"/>
      <point x="61" y="445"/>
      <point x="76" y="461"/>
      <point x="103" y="467" type="curve" smooth="yes"/>
    </contour>
  </outline>
</glyph>
<glyph name="adieresis.001" format="1">
  <advance width="494"/>
  <outline>
    <contour>
      <point x="251" y="491" type="move" name="mark0"/>
    </contour>
    <contour>
      <point x="0" y="0" type="move" name="mark1"/>
    </contour>
    <contour>
      <point x="181" y="614" type="curve" smooth="yes"/>
      <point x="193" y="614"/>
      <point x="201" y="622"/>
      <point x="201" y="634" type="curve" smooth="yes"/>
      <point x="201" y="646"/>
      <point x="193" y="654"/>
      <point x="181" y="654" type="curve" smooth="yes"/>
      <point x="169" y="654"/>
      <point x="161" y="646"/>
      <point x="161" y="634" type="curve" smooth="yes"/>
      <point x="161" y="622"/>
      <point x="169" y="614"/>
    </contour>
    <contour>
      <point x="321" y="614" type="curve" smooth="yes"/>
      <point x="333" y="614"/>
      <point x="341" y="622"/>
      <point x="341" y="634" type="curve" smooth="yes"/>
      <point x="341" y="646"/>
      <point x="333" y="654"/>
      <point x="321" y="654" type="curve" smooth="yes"/>
      <point x="309" y="654"/>
      <point x="301" y="646"/>
      <point x="301" y="634" type="curve" smooth="yes"/>
      <point x="301" y="622"/>
      <point x="309" y="614"/>
    </contour>
    <contour>
      <point x="452" y="0" type="line"/>
      <point x="262" y="491" type="line"/>
      <point x="241" y="491" type="line"/>
      <point x="34" y="0" type="line"/>
      <point x="57" y="0" type="line"/>
      <point x="69" y="35" type="line"/>
      <point x="122" y="161" type="line"/>
      <point x="370" y="161" type="line"/>
      <point x="419" y="35" type="line"/>
      <point x="429" y="0" type="line"/>
    </contour>
    <contour>
      <point x="362" y="180" type="line"/>
      <point x="130" y="180" type="line"/>
      <point x="249" y="461" type="line"/>
      <point x="252" y="461" type="line"/>
    </contour>
  </outline>
</glyph>
<glyph name="agrave.001" format="1">
  <advance width="494"/>
  <outline>
    <contour>
      <point x="251" y="491" type="move" name="mark0"/>
    </contour>
    <contour>
      <point x="0" y="0" type="move" name="mark1"/>
    </contour>
    <contour>
      <point x="321" y="558" type="line"/>
      <point x="332" y="571" type="line"/>
      <point x="286" y="610"/>
      <point x="240" y="653"/>
      <point x="186" y="708" type="curve"/>
      <point x="181" y="707" type="line"/>
      <point x="171" y="697" type="line"/>
      <point x="172" y="692" type="line"/>
      <point x="220" y="644"/>
      <point x="266" y="601"/>
      <point x="316" y="557" type="curve"/>
    </contour>
    <contour>
      <point x="452" y="0" type="line"/>
      <point x="262" y="491" type="line"/>
      <point x="241" y="491" type="line"/>
      <point x="34" y="0" type="line"/>
      <point x="57" y="0" type="line"/>
      <point x="69" y="35" type="line"/>
      <point x="122" y="161" type="line"/>
      <point x="370" y="161" type="line"/>
      <point x="419" y="35" type="line"/>
      <point x="429" y="0" type="line"/>
    </contour>
    <contour>
      <point x="362" y="180" type="line"/>
      <point x="130" y="180" type="line"/>
      <point x="249" y="461" type="line"/>
      <point x="252" y="461" type="line"/>
    </contour>
  </outline>
</glyph>
<glyph name="b.1" format="1">
  <advance width="444"/>
  <outline>
    <contour>
      <point x="444" y="108" type="curve" smooth="yes"/>
      <point x="443" y="108"/>
      <point x="441" y="107"/>
      <point x="441" y="105" type="curve" smooth="yes"/>
      <point x="441" y="103"/>
      <point x="443" y="102"/>
      <point x="444" y="102" type="curve" smooth="yes"/>
      <point x="446" y="102"/>
      <point x="448" y="103"/>
      <point x="448" y="105" type="curve" smooth="yes"/>
      <point x="448" y="107"/>
      <point x="446" y="108"/>
    </contour>
    <contour>
      <point x="395" y="-41" type="curve" smooth="yes"/>
      <point x="394" y="-41"/>
      <point x="394" y="-42"/>
      <point x="394" y="-42" type="curve" smooth="yes"/>
      <point x="394" y="-43"/>
      <point x="394" y="-43"/>
      <point x="395" y="-43" type="curve" smooth="yes"/>
      <point x="396" y="-43"/>
      <point x="396" y="-43"/>
      <point x="396" y="-42" type="curve" smooth="yes"/>
      <point x="396" y="-42"/>
      <point x="396" y="-41"/>
    </contour>
    <contour>
      <point x="395" y="9" type="curve" smooth="yes"/>
      <point x="394" y="9"/>
      <point x="393" y="8"/>
      <point x="393" y="7" type="curve" smooth="yes"/>
      <point x="393" y="6"/>
      <point x="394" y="5"/>
      <point x="395" y="5" type="curve" smooth="yes"/>
      <point x="396" y="5"/>
      <point x="397" y="6"/>
      <point x="397" y="7" type="curve" smooth="yes"/>
      <point x="397" y="8"/>
      <point x="396" y="9"/>
    </contour>
    <contour>
      <point x="395" y="59" type="curve" smooth="yes"/>
      <point x="394" y="59"/>
      <point x="393" y="57"/>
      <point x="393" y="56" type="curve" smooth="yes"/>
      <point x="393" y="55"/>
      <point x="394" y="53"/>
      <point x="395" y="53" type="curve" smooth="yes"/>
      <point x="397" y="53"/>
      <point x="398" y="55"/>
      <point x="398" y="56" type="curve" smooth="yes"/>
      <point x="398" y="57"/>
      <point x="397" y="59"/>
    </contour>
    <contour>
      <point x="444" y="-41" type="curve" smooth="yes"/>
      <point x="444" y="-41"/>
      <point x="443" y="-42"/>
      <point x="443" y="-42" type="curve" smooth="yes"/>
      <point x="443" y="-43"/>
      <point x="444" y="-43"/>
      <point x="444" y="-43" type="curve" smooth="yes"/>
      <point x="445" y="-43"/>
      <point x="446" y="-43"/>
      <point x="446" y="-42" type="curve" smooth="yes"/>
      <point x="446" y="-42"/>
      <point x="445" y="-41"/>
    </contour>
    <contour>
      <point x="444" y="9" type="curve" smooth="yes"/>
      <point x="443" y="9"/>
      <point x="443" y="8"/>
      <point x="443" y="7" type="curve" smooth="yes"/>
      <point x="443" y="6"/>
      <point x="443" y="5"/>
      <point x="444" y="5" type="curve" smooth="yes"/>
      <point x="445" y="5"/>
      <point x="446" y="6"/>
      <point x="446" y="7" type="curve" smooth="yes"/>
      <point x="446" y="8"/>
      <point x="445" y="9"/>
    </contour>
    <contour>
      <point x="444" y="59" type="curve" smooth="yes"/>
      <point x="443" y="59"/>
      <point x="442" y="57"/>
      <point x="442" y="56" type="curve" smooth="yes"/>
      <point x="442" y="55"/>
      <point x="443" y="53"/>
      <point x="444" y="53" type="curve" smooth="yes"/>
      <point x="446" y="53"/>
      <point x="447" y="55"/>
      <point x="447" y="56" type="curve" smooth="yes"/>
      <point x="447" y="57"/>
      <point x="446" y="59"/>
    </contour>
    <contour>
      <point x="346" y="-41" type="curve" smooth="yes"/>
      <point x="345" y="-41"/>
      <point x="345" y="-42"/>
      <point x="345" y="-42" type="curve" smooth="yes"/>
      <point x="345" y="-43"/>
      <point x="345" y="-43"/>
      <point x="346" y="-43" type="curve" smooth="yes"/>
      <point x="346" y="-43"/>
      <point x="347" y="-43"/>
      <point x="347" y="-42" type="curve" smooth="yes"/>
      <point x="347" y="-42"/>
      <point x="346" y="-41"/>
    </contour>
    <contour>
      <point x="346" y="9" type="curve" smooth="yes"/>
      <point x="345" y="9"/>
      <point x="344" y="8"/>
      <point x="344" y="7" type="curve" smooth="yes"/>
      <point x="344" y="6"/>
      <point x="345" y="5"/>
      <point x="346" y="5" type="curve" smooth="yes"/>
      <point x="347" y="5"/>
      <point x="348" y="6"/>
      <point x="348" y="7" type="curve" smooth="yes"/>
      <point x="348" y="8"/>
      <point x="347" y="9"/>
    </contour>
    <contour>
      <point x="346" y="59" type="curve" smooth="yes"/>
      <point x="344" y="59"/>
      <point x="343" y="57"/>
      <point x="343" y="56" type="curve" smooth="yes"/>
      <point x="343" y="55"/>
      <point x="344" y="53"/>
      <point x="346" y="53" type="curve" smooth="yes"/>
      <point x="347" y="53"/>
      <point x="348" y="55"/>
      <point x="348" y="56" type="curve" smooth="yes"/>
      <point x="348" y="57"/>
      <point x="347" y="59"/>
    </contour>
    <contour>
      <point x="296" y="-41" type="curve" smooth="yes"/>
      <point x="296" y="-41"/>
      <point x="295" y="-42"/>
      <point x="295" y="-42" type="curve" smooth="yes"/>
      <point x="295" y="-43"/>
      <point x="296" y="-43"/>
      <point x="296" y="-43" type="curve" smooth="yes"/>
      <point x="297" y="-43"/>
      <point x="298" y="-43"/>
      <point x="298" y="-42" type="curve" smooth="yes"/>
      <point x="298" y="-42"/>
      <point x="297" y="-41"/>
    </contour>
    <contour>
      <point x="296" y="9" type="curve" smooth="yes"/>
      <point x="295" y="9"/>
      <point x="295" y="8"/>
      <point x="295" y="7" type="curve" smooth="yes"/>
      <point x="295" y="6"/>
      <point x="295" y="5"/>
      <point x="296" y="5" type="curve" smooth="yes"/>
      <point x="297" y="5"/>
      <point x="298" y="6"/>
      <point x="298" y="7" type="curve" smooth="yes"/>
      <point x="298" y="8"/>
      <point x="297" y="9"/>
    </contour>
    <contour>
      <point x="247" y="-41" type="curve" smooth="yes"/>
      <point x="246" y="-41"/>
      <point x="246" y="-42"/>
      <point x="246" y="-42" type="curve" smooth="yes"/>
      <point x="246" y="-43"/>
      <point x="246" y="-43"/>
      <point x="247" y="-43" type="curve" smooth="yes"/>
      <point x="248" y="-43"/>
      <point x="248" y="-43"/>
      <point x="248" y="-42" type="curve" smooth="yes"/>
      <point x="248" y="-42"/>
      <point x="248" y="-41"/>
    </contour>
    <contour>
      <point x="247" y="9" type="curve" smooth="yes"/>
      <point x="246" y="9"/>
      <point x="245" y="8"/>
      <point x="245" y="7" type="curve" smooth="yes"/>
      <point x="245" y="6"/>
      <point x="246" y="5"/>
      <point x="247" y="5" type="curve" smooth="yes"/>
      <point x="248" y="5"/>
      <point x="249" y="6"/>
      <point x="249" y="7" type="curve" smooth="yes"/>
      <point x="249" y="8"/>
      <point x="248" y="9"/>
    </contour>
    <contour>
      <point x="198" y="-41" type="curve" smooth="yes"/>
      <point x="197" y="-41"/>
      <point x="197" y="-42"/>
      <point x="197" y="-42" type="curve" smooth="yes"/>
      <point x="197" y="-43"/>
      <point x="197" y="-43"/>
      <point x="198" y="-43" type="curve" smooth="yes"/>
      <point x="198" y="-43"/>
      <point x="199" y="-43"/>
      <point x="199" y="-42" type="curve" smooth="yes"/>
      <point x="199" y="-42"/>
      <point x="198" y="-41"/>
    </contour>
    <contour>
      <point x="198" y="9" type="curve" smooth="yes"/>
      <point x="197" y="9"/>
      <point x="196" y="8"/>
      <point x="196" y="7" type="curve" smooth="yes"/>
      <point x="196" y="6"/>
      <point x="197" y="5"/>
      <point x="198" y="5" type="curve" smooth="yes"/>
      <point x="199" y="5"/>
      <point x="200" y="6"/>
      <point x="200" y="7" type="curve" smooth="yes"/>
      <point x="200" y="8"/>
      <point x="199" y="9"/>
    </contour>
    <contour>
      <point x="148" y="-41" type="curve" smooth="yes"/>
      <point x="148" y="-41"/>
      <point x="147" y="-42"/>
      <point x="147" y="-42" type="curve" smooth="yes"/>
      <point x="147" y="-43"/>
      <point x="148" y="-43"/>
      <point x="148" y="-43" type="curve" smooth="yes"/>
      <point x="149" y="-43"/>
      <point x="150" y="-43"/>
      <point x="150" y="-42" type="curve" smooth="yes"/>
      <point x="150" y="-42"/>
      <point x="149" y="-41"/>
    </contour>
    <contour>
      <point x="99" y="-41" type="curve" smooth="yes"/>
      <point x="98" y="-41"/>
      <point x="98" y="-42"/>
      <point x="98" y="-42" type="curve" smooth="yes"/>
      <point x="98" y="-43"/>
      <point x="98" y="-43"/>
      <point x="99" y="-43" type="curve" smooth="yes"/>
      <point x="100" y="-43"/>
      <point x="100" y="-43"/>
      <point x="100" y="-42" type="curve" smooth="yes"/>
      <point x="100" y="-42"/>
      <point x="100" y="-41"/>
    </contour>
    <contour>
      <point x="448" y="156" type="curve" smooth="yes"/>
      <point x="447" y="158"/>
      <point x="445" y="159"/>
      <point x="443" y="158" type="curve"/>
      <point x="389" y="134" type="line"/>
      <point x="388" y="206"/>
      <point x="342" y="247"/>
      <point x="270" y="257" type="curve"/>
      <point x="319" y="277"/>
      <point x="349" y="319"/>
      <point x="349" y="384" type="curve" smooth="yes"/>
      <point x="349" y="459"/>
      <point x="299" y="507"/>
      <point x="213" y="507" type="curve"/>
      <point x="108" y="506" type="line"/>
      <point x="108" y="10" type="line"/>
      <point x="-1" y="-38" type="line"/>
      <point x="-3" y="-39"/>
      <point x="-4" y="-42"/>
      <point x="-3" y="-44" type="curve" smooth="yes"/>
      <point x="-3" y="-45"/>
      <point x="-1" y="-46"/>
      <point x="0" y="-46" type="curve" smooth="yes"/>
      <point x="1" y="-46"/>
      <point x="2" y="-46"/>
      <point x="2" y="-46" type="curve"/>
      <point x="446" y="150" type="line"/>
      <point x="448" y="151"/>
      <point x="449" y="154"/>
    </contour>
    <contour>
      <point x="128" y="488" type="line"/>
      <point x="216" y="488" type="line"/>
      <point x="284" y="488"/>
      <point x="327" y="443"/>
      <point x="327" y="383" type="curve" smooth="yes"/>
      <point x="327" y="319"/>
      <point x="294" y="274"/>
      <point x="234" y="263" type="curve"/>
      <point x="128" y="265" type="line"/>
    </contour>
    <contour>
      <point x="128" y="244" type="line"/>
      <point x="241" y="245" type="line"/>
      <point x="323" y="237"/>
      <point x="368" y="198"/>
      <point x="368" y="131" type="curve" smooth="yes"/>
      <point x="368" y="129"/>
      <point x="368" y="127"/>
      <point x="368" y="125" type="curve"/>
      <point x="128" y="19" type="line"/>
    </contour>
  </outline>
</glyph>
<glyph name="b.1.0" format="1">
  <advance width="444"/>
  <outline>
    <contour>
      <point x="395" y="-41" type="curve" smooth="yes"/>
      <point x="394" y="-41"/>
      <point x="394" y="-42"/>
      <point x="394" y="-42" type="curve" smooth="yes"/>
      <point x="394" y="-43"/>
      <point x="394" y="-43"/>
      <point x="395" y="-43" type="curve" smooth="yes"/>
      <point x="396" y="-43"/>
      <point x="396" y="-43"/>
      <point x="396" y="-42" type="curve" smooth="yes"/>
      <point x="396" y="-42"/>
      <point x="396" y="-41"/>
    </contour>
    <contour>
      <point x="346" y="-41" type="curve" smooth="yes"/>
      <point x="345" y="-41"/>
      <point x="345" y="-42"/>
      <point x="345" y="-42" type="curve" smooth="yes"/>
      <point x="345" y="-43"/>
      <point x="345" y="-43"/>
      <point x="346" y="-43" type="curve" smooth="yes"/>
      <point x="346" y="-43"/>
      <point x="347" y="-43"/>
      <point x="347" y="-42" type="curve" smooth="yes"/>
      <point x="347" y="-42"/>
      <point x="346" y="-41"/>
    </contour>
    <contour>
      <point x="296" y="-41" type="curve" smooth="yes"/>
      <point x="296" y="-41"/>
      <point x="295" y="-42"/>
      <point x="295" y="-42" type="curve" smooth="yes"/>
      <point x="295" y="-43"/>
      <point x="296" y="-43"/>
      <point x="296" y="-43" type="curve" smooth="yes"/>
      <point x="297" y="-43"/>
      <point x="298" y="-43"/>
      <point x="298" y="-42" type="curve" smooth="yes"/>
      <point x="298" y="-42"/>
      <point x="297" y="-41"/>
    </contour>
    <contour>
      <point x="247" y="-41" type="curve" smooth="yes"/>
      <point x="246" y="-41"/>
      <point x="246" y="-42"/>
      <point x="246" y="-42" type="curve" smooth="yes"/>
      <point x="246" y="-43"/>
      <point x="246" y="-43"/>
      <point x="247" y="-43" type="curve" smooth="yes"/>
      <point x="248" y="-43"/>
      <point x="248" y="-43"/>
      <point x="248" y="-42" type="curve" smooth="yes"/>
      <point x="248" y="-42"/>
      <point x="248" y="-41"/>
    </contour>
    <contour>
      <point x="198" y="-41" type="curve" smooth="yes"/>
      <point x="197" y="-41"/>
      <point x="197" y="-42"/>
      <point x="197" y="-42" type="curve" smooth="yes"/>
      <point x="197" y="-43"/>
      <point x="197" y="-43"/>
      <point x="198" y="-43" type="curve" smooth="yes"/>
      <point x="198" y="-43"/>
      <point x="199" y="-43"/>
      <point x="199" y="-42" type="curve" smooth="yes"/>
      <point x="199" y="-42"/>
      <point x="198" y="-41"/>
    </contour>
    <contour>
      <point x="148" y="-41" type="curve" smooth="yes"/>
      <point x="148" y="-41"/>
      <point x="147" y="-42"/>
      <point x="147" y="-42" type="curve" smooth="yes"/>
      <point x="147" y="-43"/>
      <point x="148" y="-43"/>
      <point x="148" y="-43" type="curve" smooth="yes"/>
      <point x="149" y="-43"/>
      <point x="150" y="-43"/>
      <point x="150" y="-42" type="curve" smooth="yes"/>
      <point x="150" y="-42"/>
      <point x="149" y="-41"/>
    </contour>
    <contour>
      <point x="99" y="-41" type="curve" smooth="yes"/>
      <point x="98" y="-41"/>
      <point x="98" y="-42"/>
      <point x="98" y="-42" type="curve" smooth="yes"/>
      <point x="98" y="-43"/>
      <point x="98" y="-43"/>
      <point x="99" y="-43" type="curve" smooth="yes"/>
      <point x="100" y="-43"/>
      <point x="100" y="-43"/>
      <point x="100" y="-42" type="curve" smooth="yes"/>
      <point x="100" y="-42"/>
      <point x="100" y="-41"/>
    </contour>
    <contour>
      <point x="50" y="-41" type="curve" smooth="yes"/>
      <point x="49" y="-41"/>
      <point x="49" y="-42"/>
      <point x="49" y="-42" type="curve" smooth="yes"/>
      <point x="49" y="-43"/>
      <point x="49" y="-43"/>
      <point x="50" y="-43" type="curve" smooth="yes"/>
      <point x="50" y="-43"/>
      <point x="51" y="-43"/>
      <point x="51" y="-42" type="curve" smooth="yes"/>
      <point x="51" y="-42"/>
      <point x="50" y="-41"/>
    </contour>
    <contour>
      <point x="50" y="9" type="curve" smooth="yes"/>
      <point x="49" y="9"/>
      <point x="48" y="8"/>
      <point x="48" y="7" type="curve" smooth="yes"/>
      <point x="48" y="6"/>
      <point x="49" y="5"/>
      <point x="50" y="5" type="curve" smooth="yes"/>
      <point x="51" y="5"/>
      <point x="52" y="6"/>
      <point x="52" y="7" type="curve" smooth="yes"/>
      <point x="52" y="8"/>
      <point x="51" y="9"/>
    </contour>
    <contour>
      <point x="50" y="59" type="curve" smooth="yes"/>
      <point x="48" y="59"/>
      <point x="47" y="57"/>
      <point x="47" y="56" type="curve" smooth="yes"/>
      <point x="47" y="55"/>
      <point x="48" y="53"/>
      <point x="50" y="53" type="curve" smooth="yes"/>
      <point x="51" y="53"/>
      <point x="52" y="55"/>
      <point x="52" y="56" type="curve" smooth="yes"/>
      <point x="52" y="57"/>
      <point x="51" y="59"/>
    </contour>
    <contour>
      <point x="-3" y="156" type="curve" smooth="yes"/>
      <point x="-4" y="154"/>
      <point x="-3" y="151"/>
      <point x="-1" y="150" type="curve"/>
      <point x="83" y="113" type="line"/>
      <point x="83" y="122" type="line"/>
      <point x="2" y="158" type="line"/>
      <point x="0" y="159"/>
      <point x="-2" y="158"/>
    </contour>
    <contour>
      <point x="446" y="-38" type="curve"/>
      <point x="319" y="18" type="line"/>
      <point x="365" y="38"/>
      <point x="389" y="75"/>
      <point x="389" y="130" type="curve" smooth="yes"/>
      <point x="389" y="204"/>
      <point x="343" y="246"/>
      <point x="270" y="256" type="curve"/>
      <point x="319" y="276"/>
      <point x="349" y="318"/>
      <point x="349" y="383" type="curve" smooth="yes"/>
      <point x="349" y="458"/>
      <point x="299" y="507"/>
      <point x="213" y="507" type="curve"/>
      <point x="108" y="506" type="line"/>
      <point x="108" y="0" type="line"/>
      <point x="137" y="-2"/>
      <point x="174" y="-2"/>
      <point x="200" y="-2" type="curve" smooth="yes"/>
      <point x="222" y="-2"/>
      <point x="241" y="-1"/>
      <point x="259" y="2" type="curve"/>
      <point x="224" y="17" type="line"/>
      <point x="215" y="17"/>
      <point x="206" y="16"/>
      <point x="197" y="16" type="curve" smooth="yes"/>
      <point x="174" y="16"/>
      <point x="150" y="17"/>
      <point x="128" y="20" type="curve"/>
      <point x="128" y="243" type="line"/>
      <point x="241" y="244" type="line"/>
      <point x="323" y="237"/>
      <point x="368" y="197"/>
      <point x="368" y="130" type="curve" smooth="yes"/>
      <point x="368" y="80"/>
      <point x="342" y="47"/>
      <point x="292" y="30" type="curve"/>
      <point x="153" y="91" type="line"/>
      <point x="153" y="82" type="line"/>
      <point x="443" y="-46" type="line"/>
      <point x="443" y="-46"/>
      <point x="444" y="-46"/>
      <point x="444" y="-46" type="curve"/>
      <point x="444" y="-46" type="line"/>
      <point x="444" y="-46" type="line"/>
      <point x="446" y="-46"/>
      <point x="447" y="-46"/>
      <point x="448" y="-45" type="curve" smooth="yes"/>
      <point x="448" y="-45"/>
      <point x="448" y="-44"/>
      <point x="448" y="-44" type="curve" smooth="yes"/>
      <point x="449" y="-42"/>
      <point x="448" y="-39"/>
    </contour>
    <contour>
      <point x="234" y="263" type="curve"/>
      <point x="128" y="265" type="line"/>
      <point x="128" y="487" type="line"/>
      <point x="216" y="487" type="line"/>
      <point x="284" y="487"/>
      <point x="327" y="443"/>
      <point x="327" y="382" type="curve" smooth="yes"/>
      <point x="327" y="318"/>
      <point x="294" y="274"/>
    </contour>
  </outline>
</glyph>
<glyph name="b.1.1" format="1">
  <advance width="444"/>
  <outline>
    <contour>
      <point x="444" y="-41" type="curve" smooth="yes"/>
      <point x="444" y="-41"/>
      <point x="443" y="-42"/>
      <point x="443" y="-42" type="curve" smooth="yes"/>
      <point x="443" y="-43"/>
      <point x="444" y="-43"/>
      <point x="444" y="-43" type="curve" smooth="yes"/>
      <point x="445" y="-43"/>
      <point x="446" y="-43"/>
      <point x="446" y="-42" type="curve" smooth="yes"/>
      <point x="446" y="-42"/>
      <point x="445" y="-41"/>
    </contour>
    <contour>
      <point x="444" y="9" type="curve" smooth="yes"/>
      <point x="443" y="9"/>
      <point x="443" y="8"/>
      <point x="443" y="7" type="curve" smooth="yes"/>
      <point x="443" y="6"/>
      <point x="443" y="5"/>
      <point x="444" y="5" type="curve" smooth="yes"/>
      <point x="445" y="5"/>
      <point x="446" y="6"/>
      <point x="446" y="7" type="curve" smooth="yes"/>
      <point x="446" y="8"/>
      <point x="445" y="9"/>
    </contour>
    <contour>
      <point x="444" y="59" type="curve" smooth="yes"/>
      <point x="443" y="59"/>
      <point x="442" y="57"/>
      <point x="442" y="56" type="curve" smooth="yes"/>
      <point x="442" y="55"/>
      <point x="443" y="53"/>
      <point x="444" y="53" type="curve" smooth="yes"/>
      <point x="446" y="53"/>
      <point x="447" y="55"/>
      <point x="447" y="56" type="curve" smooth="yes"/>
      <point x="447" y="57"/>
      <point x="446" y="59"/>
    </contour>
    <contour>
      <point x="444" y="108" type="curve" smooth="yes"/>
      <point x="443" y="108"/>
      <point x="441" y="107"/>
      <point x="441" y="105" type="curve" smooth="yes"/>
      <point x="441" y="103"/>
      <point x="443" y="102"/>
      <point x="444" y="102" type="curve" smooth="yes"/>
      <point x="446" y="102"/>
      <point x="448" y="103"/>
      <point x="448" y="105" type="curve" smooth="yes"/>
      <point x="448" y="107"/>
      <point x="446" y="108"/>
    </contour>
    <contour>
      <point x="395" y="-41" type="curve" smooth="yes"/>
      <point x="395" y="-41"/>
      <point x="394" y="-42"/>
      <point x="394" y="-42" type="curve" smooth="yes"/>
      <point x="394" y="-43"/>
      <point x="395" y="-43"/>
      <point x="395" y="-43" type="curve" smooth="yes"/>
      <point x="396" y="-43"/>
      <point x="396" y="-43"/>
      <point x="396" y="-42" type="curve" smooth="yes"/>
      <point x="396" y="-42"/>
      <point x="396" y="-41"/>
    </contour>
    <contour>
      <point x="395" y="9" type="curve" smooth="yes"/>
      <point x="394" y="9"/>
      <point x="393" y="8"/>
      <point x="393" y="7" type="curve" smooth="yes"/>
      <point x="393" y="6"/>
      <point x="394" y="5"/>
      <point x="395" y="5" type="curve" smooth="yes"/>
      <point x="396" y="5"/>
      <point x="397" y="6"/>
      <point x="397" y="7" type="curve" smooth="yes"/>
      <point x="397" y="8"/>
      <point x="396" y="9"/>
    </contour>
    <contour>
      <point x="346" y="-41" type="curve" smooth="yes"/>
      <point x="345" y="-41"/>
      <point x="345" y="-42"/>
      <point x="345" y="-42" type="curve" smooth="yes"/>
      <point x="345" y="-43"/>
      <point x="345" y="-43"/>
      <point x="346" y="-43" type="curve" smooth="yes"/>
      <point x="346" y="-43"/>
      <point x="347" y="-43"/>
      <point x="347" y="-42" type="curve" smooth="yes"/>
      <point x="347" y="-42"/>
      <point x="346" y="-41"/>
    </contour>
    <contour>
      <point x="296" y="-41" type="curve" smooth="yes"/>
      <point x="296" y="-41"/>
      <point x="295" y="-42"/>
      <point x="295" y="-42" type="curve" smooth="yes"/>
      <point x="295" y="-43"/>
      <point x="296" y="-43"/>
      <point x="296" y="-43" type="curve" smooth="yes"/>
      <point x="297" y="-43"/>
      <point x="298" y="-43"/>
      <point x="298" y="-42" type="curve" smooth="yes"/>
      <point x="298" y="-42"/>
      <point x="297" y="-41"/>
    </contour>
    <contour>
      <point x="296" y="108" type="curve" smooth="yes"/>
      <point x="295" y="108"/>
      <point x="293" y="107"/>
      <point x="293" y="105" type="curve" smooth="yes"/>
      <point x="293" y="103"/>
      <point x="295" y="102"/>
      <point x="296" y="102" type="curve" smooth="yes"/>
      <point x="298" y="102"/>
      <point x="300" y="103"/>
      <point x="300" y="105" type="curve" smooth="yes"/>
      <point x="300" y="107"/>
      <point x="298" y="108"/>
    </contour>
    <contour>
      <point x="247" y="-41" type="curve" smooth="yes"/>
      <point x="247" y="-41"/>
      <point x="246" y="-42"/>
      <point x="246" y="-42" type="curve" smooth="yes"/>
      <point x="246" y="-43"/>
      <point x="247" y="-43"/>
      <point x="247" y="-43" type="curve" smooth="yes"/>
      <point x="248" y="-43"/>
      <point x="248" y="-43"/>
      <point x="248" y="-42" type="curve" smooth="yes"/>
      <point x="248" y="-42"/>
      <point x="248" y="-41"/>
    </contour>
    <contour>
      <point x="247" y="59" type="curve" smooth="yes"/>
      <point x="246" y="59"/>
      <point x="245" y="57"/>
      <point x="245" y="56" type="curve" smooth="yes"/>
      <point x="245" y="55"/>
      <point x="246" y="53"/>
      <point x="247" y="53" type="curve" smooth="yes"/>
      <point x="249" y="53"/>
      <point x="250" y="55"/>
      <point x="250" y="56" type="curve" smooth="yes"/>
      <point x="250" y="57"/>
      <point x="249" y="59"/>
    </contour>
    <contour>
      <point x="247" y="108" type="curve" smooth="yes"/>
      <point x="245" y="108"/>
      <point x="244" y="107"/>
      <point x="244" y="105" type="curve" smooth="yes"/>
      <point x="244" y="103"/>
      <point x="245" y="102"/>
      <point x="247" y="102" type="curve" smooth="yes"/>
      <point x="249" y="102"/>
      <point x="250" y="103"/>
      <point x="250" y="105" type="curve" smooth="yes"/>
      <point x="250" y="107"/>
      <point x="249" y="108"/>
    </contour>
    <contour>
      <point x="198" y="-41" type="curve" smooth="yes"/>
      <point x="197" y="-41"/>
      <point x="197" y="-42"/>
      <point x="197" y="-42" type="curve" smooth="yes"/>
      <point x="197" y="-43"/>
      <point x="197" y="-43"/>
      <point x="198" y="-43" type="curve" smooth="yes"/>
      <point x="198" y="-43"/>
      <point x="199" y="-43"/>
      <point x="199" y="-42" type="curve" smooth="yes"/>
      <point x="199" y="-42"/>
      <point x="198" y="-41"/>
    </contour>
    <contour>
      <point x="198" y="59" type="curve" smooth="yes"/>
      <point x="196" y="59"/>
      <point x="195" y="57"/>
      <point x="195" y="56" type="curve" smooth="yes"/>
      <point x="195" y="55"/>
      <point x="196" y="53"/>
      <point x="198" y="53" type="curve" smooth="yes"/>
      <point x="199" y="53"/>
      <point x="200" y="55"/>
      <point x="200" y="56" type="curve" smooth="yes"/>
      <point x="200" y="57"/>
      <point x="199" y="59"/>
    </contour>
    <contour>
      <point x="198" y="108" type="curve" smooth="yes"/>
      <point x="196" y="108"/>
      <point x="195" y="107"/>
      <point x="195" y="105" type="curve" smooth="yes"/>
      <point x="195" y="103"/>
      <point x="196" y="102"/>
      <point x="198" y="102" type="curve" smooth="yes"/>
      <point x="200" y="102"/>
      <point x="201" y="103"/>
      <point x="201" y="105" type="curve" smooth="yes"/>
      <point x="201" y="107"/>
      <point x="200" y="108"/>
    </contour>
    <contour>
      <point x="148" y="-41" type="curve" smooth="yes"/>
      <point x="148" y="-41"/>
      <point x="147" y="-42"/>
      <point x="147" y="-42" type="curve" smooth="yes"/>
      <point x="147" y="-43"/>
      <point x="148" y="-43"/>
      <point x="148" y="-43" type="curve" smooth="yes"/>
      <point x="149" y="-43"/>
      <point x="150" y="-43"/>
      <point x="150" y="-42" type="curve" smooth="yes"/>
      <point x="150" y="-42"/>
      <point x="149" y="-41"/>
    </contour>
    <contour>
      <point x="99" y="-41" type="curve" smooth="yes"/>
      <point x="99" y="-41"/>
      <point x="98" y="-42"/>
      <point x="98" y="-42" type="curve" smooth="yes"/>
      <point x="98" y="-43"/>
      <point x="99" y="-43"/>
      <point x="99" y="-43" type="curve" smooth="yes"/>
      <point x="100" y="-43"/>
      <point x="100" y="-43"/>
      <point x="100" y="-42" type="curve" smooth="yes"/>
      <point x="100" y="-42"/>
      <point x="100" y="-41"/>
    </contour>
    <contour>
      <point x="50" y="-41" type="curve" smooth="yes"/>
      <point x="49" y="-41"/>
      <point x="49" y="-42"/>
      <point x="49" y="-42" type="curve" smooth="yes"/>
      <point x="49" y="-43"/>
      <point x="49" y="-43"/>
      <point x="50" y="-43" type="curve" smooth="yes"/>
      <point x="50" y="-43"/>
      <point x="51" y="-43"/>
      <point x="51" y="-42" type="curve" smooth="yes"/>
      <point x="51" y="-42"/>
      <point x="50" y="-41"/>
    </contour>
    <contour>
      <point x="50" y="9" type="curve" smooth="yes"/>
      <point x="49" y="9"/>
      <point x="48" y="8"/>
      <point x="48" y="7" type="curve" smooth="yes"/>
      <point x="48" y="6"/>
      <point x="49" y="5"/>
      <point x="50" y="5" type="curve" smooth="yes"/>
      <point x="51" y="5"/>
      <point x="52" y="6"/>
      <point x="52" y="7" type="curve" smooth="yes"/>
      <point x="52" y="8"/>
      <point x="51" y="9"/>
    </contour>
    <contour>
      <point x="50" y="59" type="curve" smooth="yes"/>
      <point x="48" y="59"/>
      <point x="47" y="57"/>
      <point x="47" y="56" type="curve" smooth="yes"/>
      <point x="47" y="55"/>
      <point x="48" y="53"/>
      <point x="50" y="53" type="curve" smooth="yes"/>
      <point x="51" y="53"/>
      <point x="52" y="55"/>
      <point x="52" y="56" type="curve" smooth="yes"/>
      <point x="52" y="57"/>
      <point x="51" y="59"/>
    </contour>
    <contour>
      <point x="50" y="108" type="curve" smooth="yes"/>
      <point x="48" y="108"/>
      <point x="47" y="107"/>
      <point x="47" y="105" type="curve" smooth="yes"/>
      <point x="47" y="103"/>
      <point x="48" y="102"/>
      <point x="50" y="102" type="curve" smooth="yes"/>
      <point x="52" y="102"/>
      <point x="53" y="103"/>
      <point x="53" y="105" type="curve" smooth="yes"/>
      <point x="53" y="107"/>
      <point x="52" y="108"/>
    </contour>
    <contour>
      <point x="-4" y="154" type="curve" smooth="yes"/>
      <point x="-4" y="152"/>
      <point x="-2" y="150"/>
      <point x="0" y="150" type="curve"/>
      <point x="83" y="150" type="line"/>
      <point x="83" y="158" type="line"/>
      <point x="0" y="158" type="line"/>
      <point x="-2" y="158"/>
      <point x="-4" y="156"/>
    </contour>
    <contour>
      <point x="444" y="158" type="curve"/>
      <point x="387" y="158" type="line"/>
      <point x="377" y="215"/>
      <point x="334" y="248"/>
      <point x="270" y="256" type="curve"/>
      <point x="319" y="276"/>
      <point x="349" y="318"/>
      <point x="349" y="383" type="curve" smooth="yes"/>
      <point x="349" y="458"/>
      <point x="299" y="507"/>
      <point x="213" y="507" type="curve"/>
      <point x="108" y="506" type="line"/>
      <point x="108" y="0" type="line"/>
      <point x="137" y="-2"/>
      <point x="174" y="-2"/>
      <point x="200" y="-2" type="curve" smooth="yes"/>
      <point x="317" y="-2"/>
      <point x="384" y="35"/>
      <point x="389" y="119" type="curve"/>
      <point x="368" y="119" type="line"/>
      <point x="362" y="50"/>
      <point x="302" y="16"/>
      <point x="197" y="16" type="curve" smooth="yes"/>
      <point x="174" y="16"/>
      <point x="150" y="18"/>
      <point x="128" y="20" type="curve"/>
      <point x="128" y="243" type="line"/>
      <point x="241" y="244" type="line"/>
      <point x="311" y="238"/>
      <point x="354" y="208"/>
      <point x="366" y="158" type="curve"/>
      <point x="153" y="158" type="line"/>
      <point x="153" y="150" type="line"/>
      <point x="444" y="150" type="line"/>
      <point x="447" y="150"/>
      <point x="448" y="152"/>
      <point x="448" y="154" type="curve" smooth="yes"/>
      <point x="448" y="156"/>
      <point x="447" y="158"/>
    </contour>
    <contour>
      <point x="234" y="263" type="curve"/>
      <point x="128" y="265" type="line"/>
      <point x="128" y="487" type="line"/>
      <point x="216" y="487" type="line"/>
      <point x="284" y="487"/>
      <point x="327" y="443"/>
      <point x="327" y="382" type="curve" smooth="yes"/>
      <point x="327" y="318"/>
      <point x="294" y="274"/>
    </contour>
  </outline>
</glyph>
<glyph name="b.2" format="1">
  <advance width="444"/>
  <outline>
    <contour>
      <point x="444" y="-41" type="curve" smooth="yes"/>
      <point x="444" y="-41"/>
      <point x="443" y="-42"/>
      <point x="443" y="-42" type="curve" smooth="yes"/>
      <point x="443" y="-43"/>
      <point x="444" y="-43"/>
      <point x="444" y="-43" type="curve" smooth="yes"/>
      <point x="445" y="-43"/>
      <point x="446" y="-43"/>
      <point x="446" y="-42" type="curve" smooth="yes"/>
      <point x="446" y="-42"/>
      <point x="445" y="-41"/>
    </contour>
    <contour>
      <point x="444" y="9" type="curve" smooth="yes"/>
      <point x="443" y="9"/>
      <point x="443" y="8"/>
      <point x="443" y="7" type="curve" smooth="yes"/>
      <point x="443" y="6"/>
      <point x="443" y="5"/>
      <point x="444" y="5" type="curve" smooth="yes"/>
      <point x="445" y="5"/>
      <point x="446" y="6"/>
      <point x="446" y="7" type="curve" smooth="yes"/>
      <point x="446" y="8"/>
      <point x="445" y="9"/>
    </contour>
    <contour>
      <point x="444" y="59" type="curve" smooth="yes"/>
      <point x="443" y="59"/>
      <point x="442" y="57"/>
      <point x="442" y="56" type="curve" smooth="yes"/>
      <point x="442" y="55"/>
      <point x="443" y="53"/>
      <point x="444" y="53" type="curve" smooth="yes"/>
      <point x="446" y="53"/>
      <point x="447" y="55"/>
      <point x="447" y="56" type="curve" smooth="yes"/>
      <point x="447" y="57"/>
      <point x="446" y="59"/>
    </contour>
    <contour>
      <point x="444" y="108" type="curve" smooth="yes"/>
      <point x="443" y="108"/>
      <point x="441" y="107"/>
      <point x="441" y="105" type="curve" smooth="yes"/>
      <point x="441" y="103"/>
      <point x="443" y="102"/>
      <point x="444" y="102" type="curve" smooth="yes"/>
      <point x="446" y="102"/>
      <point x="448" y="103"/>
      <point x="448" y="105" type="curve" smooth="yes"/>
      <point x="448" y="107"/>
      <point x="446" y="108"/>
    </contour>
    <contour>
      <point x="444" y="158" type="curve" smooth="yes"/>
      <point x="442" y="158"/>
      <point x="440" y="156"/>
      <point x="440" y="154" type="curve" smooth="yes"/>
      <point x="440" y="152"/>
      <point x="442" y="150"/>
      <point x="444" y="150" type="curve" smooth="yes"/>
      <point x="447" y="150"/>
      <point x="448" y="152"/>
      <point x="448" y="154" type="curve" smooth="yes"/>
      <point x="448" y="156"/>
      <point x="447" y="158"/>
    </contour>
    <contour>
      <point x="444" y="208" type="curve" smooth="yes"/>
      <point x="442" y="208"/>
      <point x="440" y="206"/>
      <point x="440" y="203" type="curve" smooth="yes"/>
      <point x="440" y="201"/>
      <point x="442" y="199"/>
      <point x="444" y="199" type="curve" smooth="yes"/>
      <point x="447" y="199"/>
      <point x="449" y="201"/>
      <point x="449" y="203" type="curve" smooth="yes"/>
      <point x="449" y="206"/>
      <point x="447" y="208"/>
    </contour>
    <contour>
      <point x="444" y="258" type="curve" smooth="yes"/>
      <point x="441" y="258"/>
      <point x="439" y="255"/>
      <point x="439" y="252" type="curve" smooth="yes"/>
      <point x="439" y="249"/>
      <point x="441" y="247"/>
      <point x="444" y="247" type="curve" smooth="yes"/>
      <point x="447" y="247"/>
      <point x="450" y="249"/>
      <point x="450" y="252" type="curve" smooth="yes"/>
      <point x="450" y="255"/>
      <point x="447" y="258"/>
    </contour>
    <contour>
      <point x="444" y="308" type="curve" smooth="yes"/>
      <point x="441" y="308"/>
      <point x="438" y="305"/>
      <point x="438" y="301" type="curve" smooth="yes"/>
      <point x="438" y="298"/>
      <point x="441" y="295"/>
      <point x="444" y="295" type="curve" smooth="yes"/>
      <point x="448" y="295"/>
      <point x="451" y="298"/>
      <point x="451" y="301" type="curve" smooth="yes"/>
      <point x="451" y="305"/>
      <point x="448" y="308"/>
    </contour>
    <contour>
      <point x="395" y="-41" type="curve" smooth="yes"/>
      <point x="394" y="-41"/>
      <point x="394" y="-42"/>
      <point x="394" y="-42" type="curve" smooth="yes"/>
      <point x="394" y="-43"/>
      <point x="394" y="-43"/>
      <point x="395" y="-43" type="curve" smooth="yes"/>
      <point x="396" y="-43"/>
      <point x="396" y="-43"/>
      <point x="396" y="-42" type="curve" smooth="yes"/>
      <point x="396" y="-42"/>
      <point x="396" y="-41"/>
    </contour>
    <contour>
      <point x="395" y="9" type="curve" smooth="yes"/>
      <point x="394" y="9"/>
      <point x="393" y="8"/>
      <point x="393" y="7" type="curve" smooth="yes"/>
      <point x="393" y="6"/>
      <point x="394" y="5"/>
      <point x="395" y="5" type="curve" smooth="yes"/>
      <point x="396" y="5"/>
      <point x="397" y="6"/>
      <point x="397" y="7" type="curve" smooth="yes"/>
      <point x="397" y="8"/>
      <point x="396" y="9"/>
    </contour>
    <contour>
      <point x="395" y="258" type="curve" smooth="yes"/>
      <point x="392" y="258"/>
      <point x="390" y="255"/>
      <point x="390" y="252" type="curve" smooth="yes"/>
      <point x="390" y="249"/>
      <point x="392" y="247"/>
      <point x="395" y="247" type="curve" smooth="yes"/>
      <point x="398" y="247"/>
      <point x="400" y="249"/>
      <point x="400" y="252" type="curve" smooth="yes"/>
      <point x="400" y="255"/>
      <point x="398" y="258"/>
    </contour>
    <contour>
      <point x="346" y="-41" type="curve" smooth="yes"/>
      <point x="345" y="-41"/>
      <point x="345" y="-42"/>
      <point x="345" y="-42" type="curve" smooth="yes"/>
      <point x="345" y="-43"/>
      <point x="345" y="-43"/>
      <point x="346" y="-43" type="curve" smooth="yes"/>
      <point x="346" y="-43"/>
      <point x="347" y="-43"/>
      <point x="347" y="-42" type="curve" smooth="yes"/>
      <point x="347" y="-42"/>
      <point x="346" y="-41"/>
    </contour>
    <contour>
      <point x="296" y="-41" type="curve" smooth="yes"/>
      <point x="296" y="-41"/>
      <point x="295" y="-42"/>
      <point x="295" y="-42" type="curve" smooth="yes"/>
      <point x="295" y="-43"/>
      <point x="296" y="-43"/>
      <point x="296" y="-43" type="curve" smooth="yes"/>
      <point x="297" y="-43"/>
      <point x="298" y="-43"/>
      <point x="298" y="-42" type="curve" smooth="yes"/>
      <point x="298" y="-42"/>
      <point x="297" y="-41"/>
    </contour>
    <contour>
      <point x="247" y="-41" type="curve" smooth="yes"/>
      <point x="246" y="-41"/>
      <point x="246" y="-42"/>
      <point x="246" y="-42" type="curve" smooth="yes"/>
      <point x="246" y="-43"/>
      <point x="246" y="-43"/>
      <point x="247" y="-43" type="curve" smooth="yes"/>
      <point x="248" y="-43"/>
      <point x="248" y="-43"/>
      <point x="248" y="-42" type="curve" smooth="yes"/>
      <point x="248" y="-42"/>
      <point x="248" y="-41"/>
    </contour>
    <contour>
      <point x="198" y="-41" type="curve" smooth="yes"/>
      <point x="197" y="-41"/>
      <point x="197" y="-42"/>
      <point x="197" y="-42" type="curve" smooth="yes"/>
      <point x="197" y="-43"/>
      <point x="197" y="-43"/>
      <point x="198" y="-43" type="curve" smooth="yes"/>
      <point x="198" y="-43"/>
      <point x="199" y="-43"/>
      <point x="199" y="-42" type="curve" smooth="yes"/>
      <point x="199" y="-42"/>
      <point x="198" y="-41"/>
    </contour>
    <contour>
      <point x="148" y="-41" type="curve" smooth="yes"/>
      <point x="148" y="-41"/>
      <point x="147" y="-42"/>
      <point x="147" y="-42" type="curve" smooth="yes"/>
      <point x="147" y="-43"/>
      <point x="148" y="-43"/>
      <point x="148" y="-43" type="curve" smooth="yes"/>
      <point x="149" y="-43"/>
      <point x="150" y="-43"/>
      <point x="150" y="-42" type="curve" smooth="yes"/>
      <point x="150" y="-42"/>
      <point x="149" y="-41"/>
    </contour>
    <contour>
      <point x="99" y="-41" type="curve" smooth="yes"/>
      <point x="98" y="-41"/>
      <point x="98" y="-42"/>
      <point x="98" y="-42" type="curve" smooth="yes"/>
      <point x="98" y="-43"/>
      <point x="98" y="-43"/>
      <point x="99" y="-43" type="curve" smooth="yes"/>
      <point x="100" y="-43"/>
      <point x="100" y="-43"/>
      <point x="100" y="-42" type="curve" smooth="yes"/>
      <point x="100" y="-42"/>
      <point x="100" y="-41"/>
    </contour>
    <contour>
      <point x="50" y="-41" type="curve" smooth="yes"/>
      <point x="49" y="-41"/>
      <point x="49" y="-42"/>
      <point x="49" y="-42" type="curve" smooth="yes"/>
      <point x="49" y="-43"/>
      <point x="49" y="-43"/>
      <point x="50" y="-43" type="curve" smooth="yes"/>
      <point x="50" y="-43"/>
      <point x="51" y="-43"/>
      <point x="51" y="-42" type="curve" smooth="yes"/>
      <point x="51" y="-42"/>
      <point x="50" y="-41"/>
    </contour>
    <contour>
      <point x="-3" y="-45" type="curve" smooth="yes"/>
      <point x="-2" y="-46"/>
      <point x="-1" y="-47"/>
      <point x="0" y="-47" type="curve" smooth="yes"/>
      <point x="1" y="-47"/>
      <point x="2" y="-46"/>
      <point x="3" y="-45" type="curve"/>
      <point x="83" y="25" type="line"/>
      <point x="83" y="37" type="line"/>
      <point x="-2" y="-39" type="line"/>
      <point x="-4" y="-41"/>
      <point x="-4" y="-43"/>
    </contour>
    <contour>
      <point x="448" y="353" type="curve" smooth="yes"/>
      <point x="446" y="355"/>
      <point x="443" y="355"/>
      <point x="442" y="354" type="curve"/>
      <point x="317" y="244" type="line"/>
      <point x="302" y="251"/>
      <point x="285" y="256"/>
      <point x="265" y="259" type="curve"/>
      <point x="311" y="280"/>
      <point x="347" y="326"/>
      <point x="347" y="385" type="curve" smooth="yes"/>
      <point x="347" y="460"/>
      <point x="299" y="507"/>
      <point x="213" y="507" type="curve"/>
      <point x="108" y="506" type="line"/>
      <point x="108" y="0" type="line"/>
      <point x="137" y="-2"/>
      <point x="174" y="-2"/>
      <point x="200" y="-2" type="curve" smooth="yes"/>
      <point x="322" y="-2"/>
      <point x="389" y="38"/>
      <point x="389" y="130" type="curve" smooth="yes"/>
      <point x="389" y="166"/>
      <point x="376" y="197"/>
      <point x="351" y="221" type="curve"/>
      <point x="337" y="209" type="line"/>
      <point x="358" y="189"/>
      <point x="368" y="163"/>
      <point x="368" y="130" type="curve" smooth="yes"/>
      <point x="368" y="54"/>
      <point x="307" y="16"/>
      <point x="197" y="16" type="curve" smooth="yes"/>
      <point x="174" y="16"/>
      <point x="150" y="17"/>
      <point x="128" y="20" type="curve"/>
      <point x="128" y="243" type="line"/>
      <point x="241" y="244" type="line"/>
      <point x="265" y="242"/>
      <point x="285" y="237"/>
      <point x="302" y="230" type="curve"/>
      <point x="153" y="99" type="line"/>
      <point x="153" y="87" type="line"/>
      <point x="447" y="347" type="line"/>
      <point x="448" y="348"/>
      <point x="448" y="348"/>
      <point x="448" y="348" type="curve" smooth="yes"/>
      <point x="449" y="350"/>
      <point x="449" y="352"/>
    </contour>
    <contour>
      <point x="223" y="264" type="curve"/>
      <point x="128" y="265" type="line"/>
      <point x="128" y="487" type="line"/>
      <point x="216" y="487" type="line"/>
      <point x="284" y="487"/>
      <point x="325" y="444"/>
      <point x="325" y="384" type="curve" smooth="yes"/>
      <point x="325" y="329"/>
      <point x="283" y="276"/>
    </contour>
    <contour>
      <point x="296" y="108" type="curve"/>
      <point x="295" y="108"/>
      <point x="293" y="107"/>
      <point x="293" y="105" type="curve" smooth="yes"/>
      <point x="293" y="103"/>
      <point x="295" y="102"/>
      <point x="296" y="102" type="curve" smooth="yes"/>
      <point x="298" y="102"/>
      <point x="300" y="103"/>
      <point x="300" y="105" type="curve" smooth="yes"/>
      <point x="300" y="107"/>
      <point x="298" y="108"/>
    </contour>
    <contour>
      <point x="296" y="158" type="curve" smooth="yes"/>
      <point x="294" y="158"/>
      <point x="292" y="156"/>
      <point x="292" y="154" type="curve" smooth="yes"/>
      <point x="292" y="152"/>
      <point x="294" y="150"/>
      <point x="296" y="150" type="curve" smooth="yes"/>
      <point x="299" y="150"/>
      <point x="300" y="152"/>
      <point x="300" y="154" type="curve" smooth="yes"/>
      <point x="300" y="156"/>
      <point x="299" y="158"/>
    </contour>
    <contour>
      <point x="247" y="59" type="curve"/>
      <point x="246" y="59"/>
      <point x="245" y="57"/>
      <point x="245" y="56" type="curve" smooth="yes"/>
      <point x="245" y="55"/>
      <point x="246" y="53"/>
      <point x="247" y="53" type="curve" smooth="yes"/>
      <point x="249" y="53"/>
      <point x="250" y="55"/>
      <point x="250" y="56" type="curve" smooth="yes"/>
      <point x="250" y="57"/>
      <point x="249" y="59"/>
    </contour>
    <contour>
      <point x="247" y="108" type="curve" smooth="yes"/>
      <point x="245" y="108"/>
      <point x="244" y="107"/>
      <point x="244" y="105" type="curve" smooth="yes"/>
      <point x="244" y="103"/>
      <point x="245" y="102"/>
      <point x="247" y="102" type="curve" smooth="yes"/>
      <point x="249" y="102"/>
      <point x="250" y="103"/>
      <point x="250" y="105" type="curve" smooth="yes"/>
      <point x="250" y="107"/>
      <point x="249" y="108"/>
    </contour>
    <contour>
      <point x="198" y="59" type="curve"/>
      <point x="196" y="59"/>
      <point x="195" y="57"/>
      <point x="195" y="56" type="curve" smooth="yes"/>
      <point x="195" y="55"/>
      <point x="196" y="53"/>
      <point x="198" y="53" type="curve" smooth="yes"/>
      <point x="199" y="53"/>
      <point x="200" y="55"/>
      <point x="200" y="56" type="curve" smooth="yes"/>
      <point x="200" y="57"/>
      <point x="199" y="59"/>
    </contour>
  </outline>
</glyph>
<glyph name="b.2.0" format="1">
  <advance width="444"/>
  <outline>
    <contour>
      <point x="395" y="-41" type="curve" smooth="yes"/>
      <point x="395" y="-41"/>
      <point x="394" y="-42"/>
      <point x="394" y="-42" type="curve" smooth="yes"/>
      <point x="394" y="-43"/>
      <point x="395" y="-43"/>
      <point x="395" y="-43" type="curve" smooth="yes"/>
      <point x="396" y="-43"/>
      <point x="396" y="-43"/>
      <point x="396" y="-42" type="curve" smooth="yes"/>
      <point x="396" y="-42"/>
      <point x="396" y="-41"/>
    </contour>
    <contour>
      <point x="346" y="-41" type="curve" smooth="yes"/>
      <point x="345" y="-41"/>
      <point x="345" y="-42"/>
      <point x="345" y="-42" type="curve" smooth="yes"/>
      <point x="345" y="-43"/>
      <point x="345" y="-43"/>
      <point x="346" y="-43" type="curve" smooth="yes"/>
      <point x="346" y="-43"/>
      <point x="347" y="-43"/>
      <point x="347" y="-42" type="curve" smooth="yes"/>
      <point x="347" y="-42"/>
      <point x="346" y="-41"/>
    </contour>
    <contour>
      <point x="296" y="-41" type="curve" smooth="yes"/>
      <point x="296" y="-41"/>
      <point x="295" y="-42"/>
      <point x="295" y="-42" type="curve" smooth="yes"/>
      <point x="295" y="-43"/>
      <point x="296" y="-43"/>
      <point x="296" y="-43" type="curve" smooth="yes"/>
      <point x="297" y="-43"/>
      <point x="298" y="-43"/>
      <point x="298" y="-42" type="curve" smooth="yes"/>
      <point x="298" y="-42"/>
      <point x="297" y="-41"/>
    </contour>
    <contour>
      <point x="247" y="-41" type="curve" smooth="yes"/>
      <point x="247" y="-41"/>
      <point x="246" y="-42"/>
      <point x="246" y="-42" type="curve" smooth="yes"/>
      <point x="246" y="-43"/>
      <point x="247" y="-43"/>
      <point x="247" y="-43" type="curve" smooth="yes"/>
      <point x="248" y="-43"/>
      <point x="248" y="-43"/>
      <point x="248" y="-42" type="curve" smooth="yes"/>
      <point x="248" y="-42"/>
      <point x="248" y="-41"/>
    </contour>
    <contour>
      <point x="247" y="59" type="curve" smooth="yes"/>
      <point x="246" y="59"/>
      <point x="245" y="57"/>
      <point x="245" y="56" type="curve" smooth="yes"/>
      <point x="245" y="55"/>
      <point x="246" y="53"/>
      <point x="247" y="53" type="curve" smooth="yes"/>
      <point x="249" y="53"/>
      <point x="250" y="55"/>
      <point x="250" y="56" type="curve" smooth="yes"/>
      <point x="250" y="57"/>
      <point x="249" y="59"/>
    </contour>
    <contour>
      <point x="198" y="-41" type="curve" smooth="yes"/>
      <point x="197" y="-41"/>
      <point x="197" y="-42"/>
      <point x="197" y="-42" type="curve" smooth="yes"/>
      <point x="197" y="-43"/>
      <point x="197" y="-43"/>
      <point x="198" y="-43" type="curve" smooth="yes"/>
      <point x="198" y="-43"/>
      <point x="199" y="-43"/>
      <point x="199" y="-42" type="curve" smooth="yes"/>
      <point x="199" y="-42"/>
      <point x="198" y="-41"/>
    </contour>
    <contour>
      <point x="198" y="59" type="curve" smooth="yes"/>
      <point x="196" y="59"/>
      <point x="195" y="57"/>
      <point x="195" y="56" type="curve" smooth="yes"/>
      <point x="195" y="55"/>
      <point x="196" y="53"/>
      <point x="198" y="53" type="curve" smooth="yes"/>
      <point x="199" y="53"/>
      <point x="200" y="55"/>
      <point x="200" y="56" type="curve" smooth="yes"/>
      <point x="200" y="57"/>
      <point x="199" y="59"/>
    </contour>
    <contour>
      <point x="198" y="108" type="curve" smooth="yes"/>
      <point x="196" y="108"/>
      <point x="195" y="107"/>
      <point x="195" y="105" type="curve" smooth="yes"/>
      <point x="195" y="103"/>
      <point x="196" y="102"/>
      <point x="198" y="102" type="curve" smooth="yes"/>
      <point x="200" y="102"/>
      <point x="201" y="103"/>
      <point x="201" y="105" type="curve" smooth="yes"/>
      <point x="201" y="107"/>
      <point x="200" y="108"/>
    </contour>
    <contour>
      <point x="148" y="-41" type="curve" smooth="yes"/>
      <point x="148" y="-41"/>
      <point x="147" y="-42"/>
      <point x="147" y="-42" type="curve" smooth="yes"/>
      <point x="147" y="-43"/>
      <point x="148" y="-43"/>
      <point x="148" y="-43" type="curve" smooth="yes"/>
      <point x="149" y="-43"/>
      <point x="150" y="-43"/>
      <point x="150" y="-42" type="curve" smooth="yes"/>
      <point x="150" y="-42"/>
      <point x="149" y="-41"/>
    </contour>
    <contour>
      <point x="99" y="-41" type="curve" smooth="yes"/>
      <point x="99" y="-41"/>
      <point x="98" y="-42"/>
      <point x="98" y="-42" type="curve" smooth="yes"/>
      <point x="98" y="-43"/>
      <point x="99" y="-43"/>
      <point x="99" y="-43" type="curve" smooth="yes"/>
      <point x="100" y="-43"/>
      <point x="100" y="-43"/>
      <point x="100" y="-42" type="curve" smooth="yes"/>
      <point x="100" y="-42"/>
      <point x="100" y="-41"/>
    </contour>
    <contour>
      <point x="50" y="-41" type="curve" smooth="yes"/>
      <point x="49" y="-41"/>
      <point x="49" y="-42"/>
      <point x="49" y="-42" type="curve" smooth="yes"/>
      <point x="49" y="-43"/>
      <point x="49" y="-43"/>
      <point x="50" y="-43" type="curve" smooth="yes"/>
      <point x="50" y="-43"/>
      <point x="51" y="-43"/>
      <point x="51" y="-42" type="curve" smooth="yes"/>
      <point x="51" y="-42"/>
      <point x="50" y="-41"/>
    </contour>
    <contour>
      <point x="50" y="9" type="curve" smooth="yes"/>
      <point x="49" y="9"/>
      <point x="48" y="8"/>
      <point x="48" y="7" type="curve" smooth="yes"/>
      <point x="48" y="6"/>
      <point x="49" y="5"/>
      <point x="50" y="5" type="curve" smooth="yes"/>
      <point x="51" y="5"/>
      <point x="52" y="6"/>
      <point x="52" y="7" type="curve" smooth="yes"/>
      <point x="52" y="8"/>
      <point x="51" y="9"/>
    </contour>
    <contour>
      <point x="50" y="59" type="curve" smooth="yes"/>
      <point x="48" y="59"/>
      <point x="47" y="57"/>
      <point x="47" y="56" type="curve" smooth="yes"/>
      <point x="47" y="55"/>
      <point x="48" y="53"/>
      <point x="50" y="53" type="curve" smooth="yes"/>
      <point x="51" y="53"/>
      <point x="52" y="55"/>
      <point x="52" y="56" type="curve" smooth="yes"/>
      <point x="52" y="57"/>
      <point x="51" y="59"/>
    </contour>
    <contour>
      <point x="50" y="108" type="curve" smooth="yes"/>
      <point x="48" y="108"/>
      <point x="47" y="107"/>
      <point x="47" y="105" type="curve" smooth="yes"/>
      <point x="47" y="103"/>
      <point x="48" y="102"/>
      <point x="50" y="102" type="curve" smooth="yes"/>
      <point x="52" y="102"/>
      <point x="53" y="103"/>
      <point x="53" y="105" type="curve" smooth="yes"/>
      <point x="53" y="107"/>
      <point x="52" y="108"/>
    </contour>
    <contour>
      <point x="50" y="158" type="curve" smooth="yes"/>
      <point x="48" y="158"/>
      <point x="46" y="156"/>
      <point x="46" y="154" type="curve" smooth="yes"/>
      <point x="46" y="152"/>
      <point x="48" y="150"/>
      <point x="50" y="150" type="curve" smooth="yes"/>
      <point x="52" y="150"/>
      <point x="54" y="152"/>
      <point x="54" y="154" type="curve" smooth="yes"/>
      <point x="54" y="156"/>
      <point x="52" y="158"/>
    </contour>
    <contour>
      <point x="50" y="208" type="curve" smooth="yes"/>
      <point x="47" y="208"/>
      <point x="45" y="206"/>
      <point x="45" y="203" type="curve" smooth="yes"/>
      <point x="45" y="201"/>
      <point x="47" y="199"/>
      <point x="50" y="199" type="curve" smooth="yes"/>
      <point x="52" y="199"/>
      <point x="55" y="201"/>
      <point x="55" y="203" type="curve" smooth="yes"/>
      <point x="55" y="206"/>
      <point x="52" y="208"/>
    </contour>
    <contour>
      <point x="50" y="258" type="curve" smooth="yes"/>
      <point x="47" y="258"/>
      <point x="44" y="255"/>
      <point x="44" y="252" type="curve" smooth="yes"/>
      <point x="44" y="249"/>
      <point x="47" y="247"/>
      <point x="50" y="247" type="curve" smooth="yes"/>
      <point x="53" y="247"/>
      <point x="55" y="249"/>
      <point x="55" y="252" type="curve" smooth="yes"/>
      <point x="55" y="255"/>
      <point x="53" y="258"/>
    </contour>
    <contour>
      <point x="448" y="-40" type="curve" smooth="yes"/>
      <point x="448" y="-39"/>
      <point x="448" y="-39"/>
      <point x="447" y="-39" type="curve"/>
      <point x="356" y="42" type="line"/>
      <point x="378" y="63"/>
      <point x="389" y="92"/>
      <point x="389" y="130" type="curve" smooth="yes"/>
      <point x="389" y="204"/>
      <point x="343" y="246"/>
      <point x="270" y="256" type="curve"/>
      <point x="319" y="276"/>
      <point x="349" y="318"/>
      <point x="349" y="383" type="curve" smooth="yes"/>
      <point x="349" y="458"/>
      <point x="299" y="507"/>
      <point x="213" y="507" type="curve"/>
      <point x="108" y="506" type="line"/>
      <point x="108" y="0" type="line"/>
      <point x="137" y="-2"/>
      <point x="174" y="-2"/>
      <point x="200" y="-2" type="curve" smooth="yes"/>
      <point x="251" y="-2"/>
      <point x="292" y="5"/>
      <point x="322" y="19" type="curve"/>
      <point x="305" y="34" type="line"/>
      <point x="277" y="22"/>
      <point x="241" y="16"/>
      <point x="197" y="16" type="curve" smooth="yes"/>
      <point x="174" y="16"/>
      <point x="150" y="18"/>
      <point x="128" y="20" type="curve"/>
      <point x="128" y="243" type="line"/>
      <point x="241" y="244" type="line"/>
      <point x="323" y="237"/>
      <point x="368" y="197"/>
      <point x="368" y="130" type="curve" smooth="yes"/>
      <point x="368" y="99"/>
      <point x="358" y="75"/>
      <point x="339" y="57" type="curve"/>
      <point x="157" y="218" type="line"/>
      <point x="153" y="218" type="line"/>
      <point x="153" y="209" type="line"/>
      <point x="442" y="-45" type="line"/>
      <point x="442" y="-46"/>
      <point x="443" y="-46"/>
      <point x="444" y="-46" type="curve" smooth="yes"/>
      <point x="446" y="-46"/>
      <point x="447" y="-46"/>
      <point x="448" y="-45" type="curve" smooth="yes"/>
      <point x="449" y="-43"/>
      <point x="449" y="-41"/>
    </contour>
    <contour>
      <point x="234" y="263" type="curve"/>
      <point x="128" y="265" type="line"/>
      <point x="128" y="487" type="line"/>
      <point x="216" y="487" type="line"/>
      <point x="284" y="487"/>
      <point x="327" y="443"/>
      <point x="327" y="382" type="curve" smooth="yes"/>
      <point x="327" y="318"/>
      <point x="294" y="274"/>
    </contour>
    <contour>
      <point x="-3" y="353" type="curve" smooth="yes"/>
      <point x="-4" y="352"/>
      <point x="-4" y="349"/>
      <point x="-2" y="347" type="curve"/>
      <point x="83" y="271" type="line"/>
      <point x="83" y="283" type="line"/>
      <point x="3" y="354" type="line"/>
      <point x="2" y="355"/>
      <point x="-1" y="355"/>
    </contour>
  </outline>
</glyph>
